<svg width="24" height="24" viewBox="0 0 24 24" fill="none" xmlns="http://www.w3.org/2000/svg">
<g clip-path="url(#clip0_2300_1320)">
<path d="M24 9.51843V9.51632C24 9.49631 23.9989 9.47648 23.9972 9.45674C23.9968 9.45135 23.9961 9.44601 23.9955 9.44062C23.9938 9.42515 23.9917 9.40982 23.989 9.39464C23.988 9.38892 23.987 9.3832 23.9859 9.37753C23.9821 9.35901 23.9779 9.34064 23.9727 9.32259C23.9722 9.32081 23.9717 9.31898 23.9712 9.3172C23.9657 9.29873 23.9594 9.28059 23.9524 9.26268C23.9498 9.25584 23.9469 9.24914 23.944 9.24234C23.9389 9.23024 23.9334 9.21829 23.9276 9.20653C23.9242 9.19968 23.921 9.19279 23.9175 9.18604C23.9087 9.16959 23.8994 9.15346 23.8893 9.13771C23.8856 9.13185 23.8815 9.12623 23.8775 9.12046C23.8697 9.10898 23.8616 9.09773 23.8531 9.08676C23.8485 9.0809 23.844 9.07509 23.8393 9.06932C23.8269 9.05437 23.8142 9.03974 23.8006 9.02582C23.7995 9.02474 23.7985 9.02362 23.7974 9.02254C23.7829 9.00778 23.7674 8.99385 23.7515 8.98035C23.7495 8.97867 23.7479 8.97679 23.7458 8.97515L22.5469 7.98023V4.92262C22.5469 4.01798 21.8109 3.28199 20.9062 3.28199H16.8855L13.6464 0.593948C12.6923 -0.197677 11.3076 -0.197677 10.3536 0.593948L7.1145 3.28195H3.09375C2.18911 3.28195 1.45312 4.01793 1.45312 4.92257V7.98018L0.254109 8.97524C0.252141 8.97688 0.250406 8.97876 0.248438 8.98045C0.232547 8.99395 0.217078 9.00787 0.202547 9.02263C0.201469 9.02371 0.200437 9.02484 0.199359 9.02592C0.185812 9.03984 0.173016 9.05446 0.160688 9.06942C0.155953 9.07514 0.151406 9.08099 0.146859 9.08685C0.138375 9.09787 0.130266 9.10912 0.122437 9.12056C0.1185 9.12632 0.114375 9.13195 0.110625 9.13781C0.100594 9.15351 0.0912656 9.16963 0.0825 9.18613C0.0788906 9.19288 0.0756563 9.19978 0.0723281 9.20662C0.0665156 9.21838 0.0610781 9.23034 0.0559219 9.24243C0.0530625 9.24918 0.0501563 9.25593 0.0475313 9.26278C0.0405938 9.28068 0.0341719 9.29878 0.0287344 9.31729C0.0282187 9.31907 0.0277969 9.32085 0.0272813 9.32268C0.0220781 9.34073 0.0178125 9.3591 0.0140625 9.37762C0.0129375 9.38334 0.0119531 9.38901 0.0109688 9.39473C0.00829688 9.40992 0.00614063 9.42524 0.00445312 9.44071C0.00389062 9.4461 0.0031875 9.45145 0.00271875 9.45684C0.001125 9.47648 0 9.49631 0 9.51632V9.51843V9.51881V21.4216C0 22.1584 0.311156 22.8235 0.808406 23.2938C0.822516 23.3079 0.836672 23.3219 0.851766 23.3346C1.30912 23.7477 1.9147 23.9997 2.57812 23.9997H21.4219C22.0853 23.9997 22.691 23.7477 23.1484 23.3344C23.1633 23.3218 23.1774 23.3079 23.1914 23.2939C23.6887 22.8236 24 22.1585 24 21.4216V9.51881C24 9.51871 24 9.51857 24 9.51843ZM3.09375 4.6882H20.9062C21.0355 4.6882 21.1406 4.79334 21.1406 4.92257V10.392L20.7428 10.7222L12.7484 17.3566C12.3148 17.7164 11.6852 17.7164 11.2516 17.3566L3.25725 10.7223L2.85938 10.392V4.92257C2.85938 4.79334 2.96452 4.6882 3.09375 4.6882ZM1.40625 21.4216V11.0135L1.70869 11.2645C1.70887 11.2647 1.70906 11.2649 1.70925 11.265L8.57498 16.9627L1.47825 21.8261C1.4317 21.7 1.40625 21.5637 1.40625 21.4216ZM9.70017 17.8964L10.3536 18.4387C11.3076 19.2304 12.6924 19.2304 13.6464 18.4387L14.2998 17.8964L21.1539 22.5935H2.84606L9.70017 17.8964ZM15.425 16.9627L22.2907 11.265C22.2909 11.2649 22.2911 11.2647 22.2913 11.2645L22.5937 11.0135V21.4216C22.5937 21.5637 22.5683 21.7 22.5217 21.8261L15.425 16.9627ZM11.2516 1.67615C11.6852 1.31629 12.3148 1.31629 12.7484 1.67615L14.6835 3.28199H9.31655L11.2516 1.67615Z" fill="#999999"/>
<path d="M6.16406 7.73415C6.16406 8.12246 6.47887 8.43727 6.86719 8.43727H13.5234C13.9117 8.43727 14.2266 8.12246 14.2266 7.73415C14.2266 7.34583 13.9117 7.03102 13.5234 7.03102H6.86719C6.47887 7.03102 6.16406 7.34583 6.16406 7.73415Z" fill="#999999"/>
<path d="M6.86719 11.2498H17.1328C17.4604 11.2498 17.7348 11.0254 17.8129 10.7222C17.8274 10.666 17.8359 10.6074 17.8359 10.5466C17.8359 10.1583 17.5211 9.84352 17.1328 9.84352H6.86719C6.47887 9.84352 6.16406 10.1583 6.16406 10.5466C6.16406 10.6074 6.17259 10.666 6.18708 10.7222C6.26517 11.0255 6.53962 11.2498 6.86719 11.2498Z" fill="#999999"/>
</g>
<defs>
<clipPath id="clip0_2300_1320">
<rect width="24" height="24" fill="white"/>
</clipPath>
</defs>
</svg>
