<svg width="24" height="24" viewBox="0 0 24 24" fill="none" xmlns="http://www.w3.org/2000/svg">
<g clip-path="url(#clip0_2406_244)">
<path d="M21.75 3H2.25002C1.00928 3 0 4.00928 0 5.25002V18.75C0 19.9907 1.00928 21 2.25002 21H21.75C22.9907 21 24 19.9907 24 18.75V5.25002C24 4.00928 22.9907 3 21.75 3ZM21.75 4.49999C21.8519 4.49999 21.9488 4.52114 22.0374 4.55806L12 13.2576L1.9625 4.55806C2.05113 4.52119 2.14807 4.49999 2.24997 4.49999H21.75ZM21.75 19.5H2.25002C1.8362 19.5 1.49999 19.1638 1.49999 18.75V6.14282L11.5085 14.8169C11.6499 14.9392 11.825 15 12 15C12.175 15 12.3501 14.9392 12.4915 14.8169L22.5 6.14282V18.75C22.5 19.1638 22.1638 19.5 21.75 19.5Z" fill="#7AABDE"/>
</g>
<defs>
<clipPath id="clip0_2406_244">
<rect width="24" height="24" fill="white"/>
</clipPath>
</defs>
</svg>
