<svg width="24" height="24" viewBox="0 0 24 24" fill="none" xmlns="http://www.w3.org/2000/svg">
<path d="M6.6915 20.4905C8.11884 20.8937 10.0041 21.1158 12 21.1158C13.9959 21.1158 15.8812 20.8937 17.3085 20.4905C19.0547 19.9972 19.9402 19.2831 19.9402 18.3682C19.9402 17.4533 19.0547 16.7393 17.3085 16.246C16.5105 16.0206 15.5691 15.8521 14.5455 15.747C16.5499 12.3258 18.5363 8.45203 18.5363 6.5362C18.5363 2.93212 15.6041 0 12 0C8.39588 0 5.46375 2.93212 5.46375 6.5362C5.46375 8.45198 7.45003 12.3257 9.45445 15.7469C8.43089 15.852 7.48955 16.0205 6.69155 16.246C4.94531 16.7393 4.05989 17.4533 4.05989 18.3682C4.05984 19.2831 4.94527 19.9972 6.6915 20.4905ZM12 1.40625C14.8287 1.40625 17.13 3.70753 17.13 6.5362C17.13 7.98914 15.3323 11.7978 12.3211 16.7245C12.2216 16.8872 12.0634 16.9048 12 16.9048C11.9366 16.9048 11.7783 16.8872 11.6788 16.7245C8.66766 11.7978 6.86991 7.98919 6.86991 6.5362C6.87 3.70753 9.17128 1.40625 12 1.40625ZM7.32914 17.5307C8.1675 17.3172 9.17199 17.1673 10.2548 17.0894C10.3299 17.2133 10.4047 17.3362 10.479 17.4578C10.8055 17.992 11.3741 18.3109 12 18.3109C12.6259 18.3109 13.1944 17.992 13.521 17.4578C13.5953 17.3362 13.6701 17.2132 13.7452 17.0893C14.828 17.1673 15.8324 17.3172 16.6708 17.5307C17.9559 17.858 18.4254 18.2265 18.522 18.3682C18.4254 18.5099 17.956 18.8783 16.6709 19.2056C15.3953 19.5306 13.7364 19.7095 12 19.7095C10.2635 19.7095 8.60466 19.5306 7.32909 19.2056C6.04397 18.8783 5.57452 18.5098 5.478 18.3682C5.57456 18.2265 6.04402 17.8581 7.32914 17.5307Z" fill="#999999"/>
<path d="M21.9529 16.8268C21.6125 16.6398 21.185 16.7642 20.9981 17.1045C20.8111 17.4449 20.9355 17.8724 21.2758 18.0593C22.1134 18.5194 22.5938 19.0295 22.5938 19.4588C22.5938 19.9838 21.8498 20.7976 19.7619 21.507C17.6992 22.2078 14.9426 22.5937 12 22.5937C9.05742 22.5937 6.30084 22.2078 4.23811 21.507C2.15016 20.7976 1.40625 19.9838 1.40625 19.4588C1.40625 19.0295 1.88663 18.5194 2.72419 18.0592C3.06455 17.8723 3.18886 17.4448 3.00187 17.1045C2.81489 16.7641 2.38753 16.6398 2.04708 16.8268C1.11323 17.3398 0 18.2129 0 19.4588C0 20.4138 0.656813 21.7755 3.78572 22.8385C5.99034 23.5875 8.90756 24 12 24C15.0924 24 18.0097 23.5875 20.2143 22.8385C23.3432 21.7755 24 20.4138 24 19.4588C24 18.2129 22.8868 17.3398 21.9529 16.8268Z" fill="#999999"/>
<path d="M14.6272 6.08742C14.6272 4.63884 13.4486 3.46031 12 3.46031C10.5514 3.46031 9.3728 4.63884 9.3728 6.08742C9.3728 7.53605 10.5514 8.71458 12 8.71458C13.4486 8.71458 14.6272 7.53609 14.6272 6.08742ZM10.7791 6.08742C10.7791 5.41425 11.3268 4.86656 12 4.86656C12.6732 4.86656 13.221 5.41425 13.221 6.08742C13.221 6.76059 12.6732 7.30833 12 7.30833C11.3268 7.30833 10.7791 6.76064 10.7791 6.08742Z" fill="#999999"/>
</svg>
