<svg width="54" height="28" viewBox="0 0 54 28" fill="none" xmlns="http://www.w3.org/2000/svg">
<path fill-rule="evenodd" clip-rule="evenodd" d="M15.936 24.5218C21.1688 23.0291 25 18.2119 25 12.5C25 5.59644 19.4036 0 12.5 0C5.59644 0 0 5.59644 0 12.5C0 18.4934 4.21811 23.5017 9.84762 24.718C11.0874 26.0275 13.7765 27.8807 16.4184 27.6586C16.7659 27.6294 16.9246 27.2365 16.7535 26.9327C16.3727 26.2563 15.9552 25.3285 15.936 24.5218Z" fill="#A8084D"/>
<path fill-rule="evenodd" clip-rule="evenodd" d="M44.936 24.5218C50.1688 23.0291 54 18.2119 54 12.5C54 5.59644 48.4036 0 41.5 0C34.5964 0 29 5.59644 29 12.5C29 18.4934 33.2181 23.5017 38.8476 24.718C40.0874 26.0275 42.7765 27.8807 45.4184 27.6586C45.7659 27.6294 45.9246 27.2365 45.7535 26.9327C45.3727 26.2563 44.9552 25.3285 44.936 24.5218Z" fill="#A8084D"/>
</svg>
