<svg width="40" height="40" viewBox="0 0 40 40" fill="none" xmlns="http://www.w3.org/2000/svg">
<path d="M19.9999 0C31.0462 0 40 8.95499 40 20.0001C40 31.0464 31.0462 40 19.9999 40C8.95362 40 0 31.0462 0 20.0001C0 8.95499 8.95376 0 19.9999 0Z" fill="#76A9EA"/>
<g clip-path="url(#clip0_2407_728)">
<path d="M28.7137 14.2555C28.3138 14.4328 27.8986 14.5727 27.4726 14.674C27.942 14.2279 28.295 13.67 28.4941 13.0473C28.5509 12.8695 28.3578 12.7158 28.1973 12.811C27.6046 13.1625 26.9663 13.4262 26.2999 13.5948C26.2612 13.6046 26.2213 13.6096 26.1813 13.6096C26.0599 13.6096 25.9419 13.5645 25.8491 13.4827C25.14 12.8578 24.2281 12.5137 23.2814 12.5137C22.8717 12.5137 22.4581 12.5775 22.052 12.7035C20.7937 13.0938 19.8228 14.1317 19.5182 15.4123C19.4039 15.8926 19.373 16.3734 19.4262 16.8412C19.4323 16.895 19.4068 16.9325 19.3912 16.9501C19.3637 16.9809 19.3246 16.9986 19.2841 16.9986C19.2796 16.9986 19.275 16.9984 19.2704 16.998C16.516 16.7421 14.0322 15.4151 12.2766 13.2615C12.1871 13.1517 12.0154 13.1652 11.944 13.2876C11.6002 13.8774 11.4185 14.552 11.4185 15.2385C11.4185 16.2905 11.8412 17.2819 12.5754 18.0047C12.2666 17.9315 11.9678 17.8162 11.6902 17.662C11.5559 17.5874 11.3907 17.6833 11.3888 17.8369C11.3696 19.3998 12.2846 20.7904 13.6553 21.4166C13.6277 21.4173 13.6001 21.4176 13.5725 21.4176C13.3552 21.4176 13.1352 21.3966 12.9187 21.3552C12.7674 21.3263 12.6404 21.4698 12.6874 21.6164C13.1323 23.0055 14.3282 24.0293 15.7594 24.2618C14.5716 25.0591 13.1884 25.4797 11.7487 25.4797L11.2999 25.4795C11.1616 25.4795 11.0447 25.5696 11.0094 25.7036C10.9747 25.8355 11.0386 25.9746 11.1566 26.0432C12.7789 26.9874 14.6293 27.4863 16.5087 27.4863C18.1537 27.4863 19.6925 27.1599 21.0824 26.5161C22.3565 25.9258 23.4825 25.0821 24.4289 24.0084C25.3106 23.0081 26 21.8535 26.478 20.5765C26.9337 19.3592 27.1746 18.0604 27.1746 16.8203V16.7613C27.1745 16.5621 27.2646 16.3748 27.4217 16.2473C28.0179 15.7632 28.537 15.1934 28.9647 14.5537C29.0776 14.3847 28.8995 14.173 28.7137 14.2555Z" fill="white"/>
</g>
<defs>
<clipPath id="clip0_2407_728">
<rect width="18" height="18" fill="white" transform="translate(11 11)"/>
</clipPath>
</defs>
</svg>
