<svg width="15" height="13" viewBox="0 0 15 13" fill="none" xmlns="http://www.w3.org/2000/svg">
<path fill-rule="evenodd" clip-rule="evenodd" d="M0.921951 0.656497C0.590549 0.95755 0.573106 1.19522 0.573106 6.96276L0.555664 12.9363L3.36387 10.4803C13.6025 10.4803 13.8467 10.4645 14.1781 10.1634C14.5095 9.86237 14.5269 9.64054 14.5269 5.40996C14.5269 1.17938 14.5095 0.95755 14.1781 0.656497C13.8467 0.355444 13.6025 0.3396 7.55001 0.3396C1.49755 0.3396 1.25335 0.355444 0.921951 0.656497ZM2.92809 9.52979L1.61992 10.7182V1.29045H13.4806V9.52979H2.92809ZM3.36414 2.87494V3.82563H11.7364V2.87494H3.36414ZM3.36414 4.93478V5.88547H11.7364V4.93478H3.36414ZM8.77124 7.9453H3.36414V6.99461H8.77124V7.9453Z" fill="#01A7A5"/>
</svg>
