<svg width="93" height="23" viewBox="0 0 93 23" fill="none" xmlns="http://www.w3.org/2000/svg">
<rect x="0.75" y="0.75" width="91.5" height="21.5" rx="2.25" stroke="white" stroke-width="0.5"/>
<path d="M17.0795 10H16.0227C15.9602 9.69602 15.8509 9.42898 15.6946 9.19886C15.5412 8.96875 15.3537 8.77557 15.1321 8.61932C14.9134 8.46023 14.6705 8.34091 14.4034 8.26136C14.1364 8.18182 13.858 8.14205 13.5682 8.14205C13.0398 8.14205 12.5611 8.27557 12.1321 8.54261C11.706 8.80966 11.3665 9.20312 11.1136 9.72301C10.8636 10.2429 10.7386 10.8807 10.7386 11.6364C10.7386 12.392 10.8636 13.0298 11.1136 13.5497C11.3665 14.0696 11.706 14.4631 12.1321 14.7301C12.5611 14.9972 13.0398 15.1307 13.5682 15.1307C13.858 15.1307 14.1364 15.0909 14.4034 15.0114C14.6705 14.9318 14.9134 14.8139 15.1321 14.6577C15.3537 14.4986 15.5412 14.304 15.6946 14.0739C15.8509 13.8409 15.9602 13.5739 16.0227 13.2727H17.0795C17 13.7187 16.8551 14.1179 16.6449 14.4702C16.4347 14.8224 16.1733 15.1222 15.8608 15.3693C15.5483 15.6136 15.1974 15.7997 14.8082 15.9276C14.4219 16.0554 14.0085 16.1193 13.5682 16.1193C12.8239 16.1193 12.1619 15.9375 11.5824 15.5739C11.0028 15.2102 10.5469 14.6932 10.2145 14.0227C9.8821 13.3523 9.71591 12.5568 9.71591 11.6364C9.71591 10.7159 9.8821 9.92045 10.2145 9.25C10.5469 8.57955 11.0028 8.0625 11.5824 7.69886C12.1619 7.33523 12.8239 7.15341 13.5682 7.15341C14.0085 7.15341 14.4219 7.21733 14.8082 7.34517C15.1974 7.47301 15.5483 7.66051 15.8608 7.90767C16.1733 8.15199 16.4347 8.45028 16.6449 8.80256C16.8551 9.15199 17 9.55114 17.0795 10ZM21.31 16.1364C20.7191 16.1364 20.2006 15.9957 19.7546 15.7145C19.3114 15.4332 18.9648 15.0398 18.7148 14.5341C18.4677 14.0284 18.3441 13.4375 18.3441 12.7614C18.3441 12.0795 18.4677 11.4844 18.7148 10.9759C18.9648 10.4673 19.3114 10.0724 19.7546 9.79119C20.2006 9.50994 20.7191 9.36932 21.31 9.36932C21.9009 9.36932 22.418 9.50994 22.8612 9.79119C23.3072 10.0724 23.6538 10.4673 23.9009 10.9759C24.1509 11.4844 24.2759 12.0795 24.2759 12.7614C24.2759 13.4375 24.1509 14.0284 23.9009 14.5341C23.6538 15.0398 23.3072 15.4332 22.8612 15.7145C22.418 15.9957 21.9009 16.1364 21.31 16.1364ZM21.31 15.233C21.7589 15.233 22.1282 15.1179 22.418 14.8878C22.7077 14.6577 22.9222 14.3551 23.0614 13.9801C23.2006 13.6051 23.2702 13.1989 23.2702 12.7614C23.2702 12.3239 23.2006 11.9162 23.0614 11.5384C22.9222 11.1605 22.7077 10.8551 22.418 10.6222C22.1282 10.3892 21.7589 10.2727 21.31 10.2727C20.8612 10.2727 20.4918 10.3892 20.2021 10.6222C19.9123 10.8551 19.6978 11.1605 19.5586 11.5384C19.4194 11.9162 19.3498 12.3239 19.3498 12.7614C19.3498 13.1989 19.4194 13.6051 19.5586 13.9801C19.6978 14.3551 19.9123 14.6577 20.2021 14.8878C20.4918 15.1179 20.8612 15.233 21.31 15.233ZM25.8111 16V9.45455H26.7827V10.4773H26.8679C27.0043 10.1278 27.2244 9.85653 27.5284 9.66335C27.8324 9.46733 28.1974 9.36932 28.6236 9.36932C29.0554 9.36932 29.4148 9.46733 29.7017 9.66335C29.9915 9.85653 30.2173 10.1278 30.3793 10.4773H30.4474C30.6151 10.1392 30.8665 9.87074 31.2017 9.67188C31.5369 9.47017 31.9389 9.36932 32.4077 9.36932C32.9929 9.36932 33.4716 9.55256 33.8438 9.91903C34.2159 10.2827 34.402 10.8494 34.402 11.6193V16H33.3963V11.6193C33.3963 11.1364 33.2642 10.7912 33 10.5838C32.7358 10.3764 32.4247 10.2727 32.0668 10.2727C31.6065 10.2727 31.25 10.4119 30.9972 10.6903C30.7443 10.9659 30.6179 11.3153 30.6179 11.7386V16H29.5952V11.517C29.5952 11.1449 29.4744 10.8452 29.233 10.6179C28.9915 10.3878 28.6804 10.2727 28.2997 10.2727C28.0384 10.2727 27.794 10.3423 27.5668 10.4815C27.3423 10.6207 27.1605 10.8139 27.0213 11.0611C26.8849 11.3054 26.8168 11.5881 26.8168 11.9091V16H25.8111ZM36.2408 16V9.45455H37.2464V16H36.2408ZM36.7521 8.36364C36.5561 8.36364 36.3871 8.29688 36.245 8.16335C36.1058 8.02983 36.0362 7.86932 36.0362 7.68182C36.0362 7.49432 36.1058 7.33381 36.245 7.20028C36.3871 7.06676 36.5561 7 36.7521 7C36.9482 7 37.1158 7.06676 37.255 7.20028C37.397 7.33381 37.468 7.49432 37.468 7.68182C37.468 7.86932 37.397 8.02983 37.255 8.16335C37.1158 8.29688 36.9482 8.36364 36.7521 8.36364ZM40.0941 12.0625V16H39.0884V9.45455H40.06V10.4773H40.1452C40.2987 10.1449 40.5316 9.87784 40.8441 9.67614C41.1566 9.47159 41.56 9.36932 42.0543 9.36932C42.4975 9.36932 42.8853 9.46023 43.2177 9.64205C43.5501 9.82102 43.8086 10.0938 43.9933 10.4602C44.1779 10.8239 44.2702 11.2841 44.2702 11.8409V16H43.2646V11.9091C43.2646 11.3949 43.131 10.9943 42.864 10.7074C42.5969 10.4176 42.2305 10.2727 41.7646 10.2727C41.4435 10.2727 41.1566 10.3423 40.9038 10.4815C40.6538 10.6207 40.4563 10.8239 40.3114 11.0909C40.1665 11.358 40.0941 11.6818 40.0941 12.0625ZM48.75 18.5909C48.2642 18.5909 47.8466 18.5284 47.4972 18.4034C47.1477 18.2812 46.8565 18.1193 46.6236 17.9176C46.3935 17.7188 46.2102 17.5057 46.0739 17.2784L46.875 16.7159C46.9659 16.8352 47.081 16.9716 47.2202 17.125C47.3594 17.2812 47.5497 17.4162 47.7912 17.5298C48.0355 17.6463 48.3551 17.7045 48.75 17.7045C49.2784 17.7045 49.7145 17.5767 50.0582 17.321C50.402 17.0653 50.5739 16.6648 50.5739 16.1193V14.7898H50.4886C50.4148 14.9091 50.3097 15.0568 50.1733 15.233C50.0398 15.4062 49.8466 15.5611 49.5938 15.6974C49.3438 15.831 49.0057 15.8977 48.5795 15.8977C48.0511 15.8977 47.5767 15.7727 47.1562 15.5227C46.7386 15.2727 46.4077 14.9091 46.1634 14.4318C45.9219 13.9545 45.8011 13.375 45.8011 12.6932C45.8011 12.0227 45.919 11.4389 46.1548 10.9418C46.3906 10.4418 46.7188 10.0554 47.1392 9.78267C47.5597 9.5071 48.0455 9.36932 48.5966 9.36932C49.0227 9.36932 49.3608 9.44034 49.6108 9.58239C49.8636 9.72159 50.0568 9.88068 50.1903 10.0597C50.3267 10.2358 50.4318 10.3807 50.5057 10.4943H50.608V9.45455H51.5795V16.1875C51.5795 16.75 51.4517 17.2074 51.196 17.5597C50.9432 17.9148 50.6023 18.1747 50.1733 18.3395C49.7472 18.5071 49.2727 18.5909 48.75 18.5909ZM48.7159 14.9943C49.1193 14.9943 49.4602 14.902 49.7386 14.7173C50.017 14.5327 50.2287 14.267 50.3736 13.9205C50.5185 13.5739 50.5909 13.1591 50.5909 12.6761C50.5909 12.2045 50.5199 11.7884 50.3778 11.4276C50.2358 11.0668 50.0256 10.7841 49.7472 10.5795C49.4688 10.375 49.125 10.2727 48.7159 10.2727C48.2898 10.2727 47.9347 10.3807 47.6506 10.5966C47.3693 10.8125 47.1577 11.1023 47.0156 11.4659C46.8764 11.8295 46.8068 12.233 46.8068 12.6761C46.8068 13.1307 46.8778 13.5327 47.0199 13.8821C47.1648 14.2287 47.3778 14.5014 47.6591 14.7003C47.9432 14.8963 48.2955 14.9943 48.7159 14.9943ZM61.4318 10.9205L60.5284 11.1761C60.4716 11.0256 60.3878 10.8793 60.277 10.7372C60.169 10.5923 60.0213 10.473 59.8338 10.3793C59.6463 10.2855 59.4062 10.2386 59.1136 10.2386C58.7131 10.2386 58.3793 10.331 58.1122 10.5156C57.848 10.6974 57.7159 10.929 57.7159 11.2102C57.7159 11.4602 57.8068 11.6577 57.9886 11.8026C58.1705 11.9474 58.4545 12.0682 58.8409 12.1648L59.8125 12.4034C60.3977 12.5455 60.8338 12.7628 61.1207 13.0554C61.4077 13.3452 61.5511 13.7187 61.5511 14.1761C61.5511 14.5511 61.4432 14.8864 61.2273 15.1818C61.0142 15.4773 60.7159 15.7102 60.3324 15.8807C59.9489 16.0511 59.5028 16.1364 58.9943 16.1364C58.3267 16.1364 57.7741 15.9915 57.3366 15.7017C56.8991 15.4119 56.6222 14.9886 56.5057 14.4318L57.4602 14.1932C57.5511 14.5455 57.723 14.8097 57.9759 14.9858C58.2315 15.1619 58.5653 15.25 58.9773 15.25C59.446 15.25 59.8182 15.1506 60.0938 14.9517C60.3722 14.75 60.5114 14.5085 60.5114 14.2273C60.5114 14 60.4318 13.8097 60.2727 13.6562C60.1136 13.5 59.8693 13.3835 59.5398 13.3068L58.4489 13.0511C57.8494 12.9091 57.4091 12.6889 57.1278 12.3906C56.8494 12.0895 56.7102 11.7131 56.7102 11.2614C56.7102 10.892 56.8139 10.5653 57.0213 10.2812C57.2315 9.99716 57.517 9.77415 57.8778 9.61222C58.2415 9.45028 58.6534 9.36932 59.1136 9.36932C59.7614 9.36932 60.2699 9.51136 60.6392 9.79545C61.0114 10.0795 61.2756 10.4545 61.4318 10.9205ZM65.7241 16.1364C65.1332 16.1364 64.6147 15.9957 64.1687 15.7145C63.7255 15.4332 63.3789 15.0398 63.1289 14.5341C62.8817 14.0284 62.7582 13.4375 62.7582 12.7614C62.7582 12.0795 62.8817 11.4844 63.1289 10.9759C63.3789 10.4673 63.7255 10.0724 64.1687 9.79119C64.6147 9.50994 65.1332 9.36932 65.7241 9.36932C66.315 9.36932 66.832 9.50994 67.2752 9.79119C67.7212 10.0724 68.0678 10.4673 68.315 10.9759C68.565 11.4844 68.69 12.0795 68.69 12.7614C68.69 13.4375 68.565 14.0284 68.315 14.5341C68.0678 15.0398 67.7212 15.4332 67.2752 15.7145C66.832 15.9957 66.315 16.1364 65.7241 16.1364ZM65.7241 15.233C66.1729 15.233 66.5423 15.1179 66.832 14.8878C67.1218 14.6577 67.3363 14.3551 67.4755 13.9801C67.6147 13.6051 67.6843 13.1989 67.6843 12.7614C67.6843 12.3239 67.6147 11.9162 67.4755 11.5384C67.3363 11.1605 67.1218 10.8551 66.832 10.6222C66.5423 10.3892 66.1729 10.2727 65.7241 10.2727C65.2752 10.2727 64.9059 10.3892 64.6161 10.6222C64.3263 10.8551 64.1119 11.1605 63.9727 11.5384C63.8335 11.9162 63.7638 12.3239 63.7638 12.7614C63.7638 13.1989 63.8335 13.6051 63.9727 13.9801C64.1119 14.3551 64.3263 14.6577 64.6161 14.8878C64.9059 15.1179 65.2752 15.233 65.7241 15.233ZM72.8842 16.1364C72.2933 16.1364 71.7749 15.9957 71.3288 15.7145C70.8857 15.4332 70.5391 15.0398 70.2891 14.5341C70.0419 14.0284 69.9183 13.4375 69.9183 12.7614C69.9183 12.0795 70.0419 11.4844 70.2891 10.9759C70.5391 10.4673 70.8857 10.0724 71.3288 9.79119C71.7749 9.50994 72.2933 9.36932 72.8842 9.36932C73.4751 9.36932 73.9922 9.50994 74.4354 9.79119C74.8814 10.0724 75.228 10.4673 75.4751 10.9759C75.7251 11.4844 75.8501 12.0795 75.8501 12.7614C75.8501 13.4375 75.7251 14.0284 75.4751 14.5341C75.228 15.0398 74.8814 15.4332 74.4354 15.7145C73.9922 15.9957 73.4751 16.1364 72.8842 16.1364ZM72.8842 15.233C73.3331 15.233 73.7024 15.1179 73.9922 14.8878C74.282 14.6577 74.4964 14.3551 74.6357 13.9801C74.7749 13.6051 74.8445 13.1989 74.8445 12.7614C74.8445 12.3239 74.7749 11.9162 74.6357 11.5384C74.4964 11.1605 74.282 10.8551 73.9922 10.6222C73.7024 10.3892 73.3331 10.2727 72.8842 10.2727C72.4354 10.2727 72.0661 10.3892 71.7763 10.6222C71.4865 10.8551 71.272 11.1605 71.1328 11.5384C70.9936 11.9162 70.924 12.3239 70.924 12.7614C70.924 13.1989 70.9936 13.6051 71.1328 13.9801C71.272 14.3551 71.4865 14.6577 71.7763 14.8878C72.0661 15.1179 72.4354 15.233 72.8842 15.233ZM78.391 12.0625V16H77.3853V9.45455H78.3569V10.4773H78.4421C78.5955 10.1449 78.8285 9.87784 79.141 9.67614C79.4535 9.47159 79.8569 9.36932 80.3512 9.36932C80.7944 9.36932 81.1822 9.46023 81.5146 9.64205C81.8469 9.82102 82.1055 10.0938 82.2901 10.4602C82.4748 10.8239 82.5671 11.2841 82.5671 11.8409V16H81.5614V11.9091C81.5614 11.3949 81.4279 10.9943 81.1609 10.7074C80.8938 10.4176 80.5273 10.2727 80.0614 10.2727C79.7404 10.2727 79.4535 10.3423 79.2006 10.4815C78.9506 10.6207 78.7532 10.8239 78.6083 11.0909C78.4634 11.358 78.391 11.6818 78.391 12.0625Z" fill="white"/>
</svg>
