<svg width="28" height="28" viewBox="0 0 28 28" fill="none" xmlns="http://www.w3.org/2000/svg">
<path d="M14.0033 6.82101C12.5833 6.82061 11.1952 7.24131 10.0143 8.02991C8.83347 8.81851 7.91301 9.93958 7.36934 11.2513C6.82567 12.5631 6.68322 14.0066 6.96 15.3993C7.23677 16.7921 7.92035 18.0714 8.92427 19.0756C9.92819 20.0798 11.2074 20.7638 12.6 21.0409C13.9927 21.3181 15.4362 21.176 16.7481 20.6327C18.06 20.0894 19.1814 19.1693 19.9703 17.9887C20.7592 16.808 21.1803 15.42 21.1803 14C21.1819 13.057 20.9973 12.1229 20.6372 11.2513C20.2771 10.3797 19.7486 9.58779 19.0818 8.92087C18.4151 8.25395 17.6233 7.72517 16.7518 7.36483C15.8804 7.00449 14.9463 6.81969 14.0033 6.82101ZM14.0033 18.662C13.0802 18.6622 12.1778 18.3887 11.4102 17.876C10.6426 17.3633 10.0442 16.6344 9.69084 15.7817C9.33745 14.9289 9.24489 13.9905 9.42485 13.0851C9.60481 12.1798 10.0492 11.3481 10.7019 10.6953C11.3545 10.0425 12.1861 9.59791 13.0914 9.41775C13.9968 9.2376 14.9352 9.32996 15.788 9.68316C16.6409 10.0364 17.3698 10.6346 17.8827 11.4021C18.3956 12.1696 18.6693 13.0719 18.6693 13.995C18.6672 15.2319 18.1749 16.4176 17.3004 17.2924C16.4258 18.1671 15.2402 18.6596 14.0033 18.662ZM23.1483 6.52201C23.1483 6.85309 23.0501 7.17674 22.8662 7.45203C22.6822 7.72732 22.4208 7.94188 22.1149 8.06858C21.809 8.19528 21.4724 8.22843 21.1477 8.16384C20.823 8.09925 20.5247 7.93982 20.2906 7.7057C20.0565 7.47159 19.8971 7.17331 19.8325 6.84859C19.7679 6.52386 19.801 6.18728 19.9277 5.88139C20.0544 5.57551 20.269 5.31407 20.5443 5.13013C20.8196 4.94618 21.1432 4.84801 21.4743 4.84801C21.6945 4.84774 21.9126 4.89104 22.1161 4.97541C22.3195 5.05978 22.5042 5.18355 22.6597 5.33961C22.8151 5.49566 22.9381 5.68091 23.0216 5.8847C23.1051 6.08848 23.1475 6.30677 23.1463 6.52701L23.1483 6.52201ZM27.9023 8.22201C27.946 6.04724 27.1328 3.94251 25.6383 2.36201C24.0536 0.870985 21.9488 0.0585021 19.7733 0.0980059C17.4623 -0.0329941 10.5343 -0.0329941 8.2233 0.0980059C6.04833 0.0548013 3.94282 0.864554 2.3573 2.35401C0.865012 3.93811 0.0532624 6.04413 0.0962969 8.22001C-0.0347031 10.532 -0.0347031 17.461 0.0962969 19.772C0.0499827 21.9488 0.862176 24.0563 2.3573 25.639C3.9432 27.1285 6.04792 27.9401 8.2233 27.901C10.5343 28.032 17.4623 28.032 19.7733 27.901C21.9496 27.947 24.0565 27.1344 25.6383 25.639C27.1296 24.054 27.9424 21.9489 27.9033 19.773C28.0343 17.461 28.0343 10.539 27.9033 8.22701L27.9023 8.22201ZM24.9143 22.253C24.6768 22.8554 24.3181 23.4025 23.8603 23.8604C23.4026 24.3183 22.8556 24.6773 22.2533 24.915C20.4103 25.646 16.0383 25.477 14.0013 25.477C11.9643 25.477 7.5863 25.639 5.7493 24.915C5.14703 24.6773 4.60004 24.3183 4.14229 23.8604C3.68454 23.4025 3.32578 22.8554 3.0883 22.253C2.3573 20.41 2.5263 16.036 2.5263 14C2.5263 11.964 2.3643 7.58301 3.0883 5.74701C3.32578 5.14465 3.68454 4.59753 4.14229 4.1396C4.60004 3.68168 5.14703 3.32272 5.7493 3.08501C7.5923 2.35401 11.9643 2.52201 14.0033 2.52201C16.0423 2.52201 20.4183 2.36001 22.2553 3.08401C22.8576 3.32172 23.4046 3.68068 23.8623 4.1386C24.3201 4.59653 24.6788 5.14365 24.9163 5.74601C25.6473 7.58901 25.4783 11.963 25.4783 13.999C25.4783 16.035 25.6443 20.416 24.9143 22.253Z" fill="white"/>
</svg>
