<svg width="17" height="18" viewBox="0 0 17 18" fill="none" xmlns="http://www.w3.org/2000/svg">
<path fill-rule="evenodd" clip-rule="evenodd" d="M15.6553 17.1196L10.4053 12.1196L11.0949 11.3955L16.3449 16.3955L15.6553 17.1196Z" fill="#182A64"/>
<path d="M6.5 13.7578C10.0899 13.7578 13 10.8477 13 7.25781C13 3.66796 10.0899 0.757812 6.5 0.757812C2.91015 0.757812 0 3.66796 0 7.25781C0 10.8477 2.91015 13.7578 6.5 13.7578Z" fill="white"/>
<path fill-rule="evenodd" clip-rule="evenodd" d="M6.5 1.75781C3.46243 1.75781 1 4.22025 1 7.25781C1 10.2954 3.46243 12.7578 6.5 12.7578C9.53757 12.7578 12 10.2954 12 7.25781C12 4.22025 9.53757 1.75781 6.5 1.75781ZM0 7.25781C0 3.66796 2.91015 0.757812 6.5 0.757812C10.0899 0.757812 13 3.66796 13 7.25781C13 10.8477 10.0899 13.7578 6.5 13.7578C2.91015 13.7578 0 10.8477 0 7.25781Z" fill="#182A64"/>
</svg>
