<svg width="236" height="63" viewBox="0 0 236 63" fill="none" xmlns="http://www.w3.org/2000/svg">
<path d="M48.3702 7.81227C48.8422 7.74321 49.3142 7.66263 49.4062 7.6396C49.4983 7.62809 50.166 7.60507 50.8682 7.59356C51.6394 7.58205 52.192 7.62809 52.2265 7.69716C52.261 7.76623 52.1689 7.81227 52.0308 7.81227C51.8812 7.81227 51.3516 7.91587 50.8452 8.05401C50.3387 8.18063 49.694 8.37632 49.4062 8.46841C49.1185 8.5605 48.4969 8.82526 48.0249 9.05548C47.5529 9.28571 46.7241 9.75767 46.1831 10.126C45.6421 10.4829 44.7442 11.2656 44.1686 11.8527C43.5931 12.4513 42.8909 13.2801 42.6146 13.7175C42.3269 14.1434 42.0276 14.4888 41.947 14.4888C41.8779 14.4888 41.8088 14.4427 41.8088 14.3737C41.8088 14.3046 41.4865 13.9132 41.0952 13.4988C40.5081 12.8887 40.2318 12.693 39.6217 12.4743C39.2073 12.3247 38.7814 12.175 38.6778 12.1405C38.5627 12.106 38.4936 12.0254 38.5282 11.9563C38.5627 11.8872 39.0346 11.5419 39.5872 11.1851C40.1512 10.8282 41.2793 10.2066 42.0966 9.81522C42.9139 9.42384 44.0075 8.96339 44.514 8.79073C45.0205 8.61806 45.9068 8.36481 46.4709 8.21517C47.0349 8.06552 47.8983 7.89285 48.3702 7.81227Z" fill="#182A64"/>
<path d="M53.0323 9.71162C53.4812 9.60802 54.1949 9.46989 54.6439 9.42384C55.0928 9.36629 55.9676 9.35478 56.6008 9.3778C57.2339 9.41233 58.0627 9.49291 58.4426 9.55047C58.8224 9.61953 59.5707 9.7922 60.1117 9.95336C60.6527 10.103 61.5045 10.4253 62.011 10.6671C62.5175 10.9088 63.2658 11.3347 63.6802 11.611C64.0946 11.8872 64.7622 12.3822 65.1766 12.7045C65.591 13.0384 66.3162 13.7175 66.7882 14.2125C67.2601 14.7075 67.9048 15.5133 68.2156 15.9852C68.5379 16.4572 69.1134 17.5392 70.2415 19.899H71.5078C72.1985 19.899 72.8546 19.9336 72.9582 19.9911C73.0733 20.0372 73.3035 20.3825 73.4992 20.7624C73.6834 21.1423 74.0748 22.0171 74.3511 22.7193C74.6273 23.4215 75.0417 24.6877 75.2604 25.5395C75.4792 26.3914 75.7439 27.7152 75.836 28.4749C75.9396 29.2346 76.0202 30.639 76.0317 31.5829C76.0317 32.5268 75.9741 33.8506 75.8936 34.5183C75.813 35.1859 75.6633 36.1644 75.5367 36.7054C75.4216 37.2464 75.1684 38.2249 74.9842 38.8925C74.7885 39.5602 74.4316 40.5732 74.1899 41.1372C73.787 42.1042 73.7525 42.1502 73.6834 41.8279C73.6374 41.6437 73.6028 41.1027 73.5913 40.6538C73.5913 40.1933 73.4992 39.307 73.4071 38.6969C73.315 38.0753 73.1424 37.2349 73.0158 36.8205C72.9006 36.4061 72.7395 35.9111 72.6704 35.727C72.5898 35.5428 72.3711 35.0708 72.1754 34.691C71.9797 34.3111 71.6689 33.7701 71.4732 33.4823C71.2776 33.1945 70.9092 32.711 70.6559 32.4117C70.3912 32.1009 69.8271 31.5484 69.3782 31.1915C68.9293 30.8232 68.3077 30.3512 67.9969 30.1325C67.6861 29.9253 66.7767 29.4188 65.9824 29.0274C65.0155 28.544 63.7838 28.049 62.2413 27.5655C60.975 27.1511 59.0642 26.5525 57.9821 26.2302C56.9 25.9079 55.5302 25.459 54.9316 25.2287C54.333 24.9985 53.4006 24.6071 52.8596 24.3539C52.3186 24.1122 51.4437 23.6172 50.9027 23.2718C50.3617 22.9265 49.648 22.397 49.3026 22.0977C48.9573 21.8099 48.4393 21.2574 48.163 20.8775C47.8868 20.4976 47.5875 20.0372 47.5069 19.8415C47.4148 19.6458 47.2652 19.2544 47.1731 18.9436C47.058 18.5983 46.9889 17.9997 46.9889 17.2745C46.9889 16.6644 47.0695 15.8356 47.1616 15.4327C47.2537 15.0413 47.4493 14.4773 47.5875 14.178C47.7256 13.8672 48.0249 13.3377 48.2666 12.9923C48.4969 12.647 48.9573 12.0944 49.2796 11.7836C49.6019 11.4613 50.0969 11.0584 50.3617 10.8858C50.6264 10.7016 51.156 10.4138 51.5358 10.2296C51.9157 10.057 52.5833 9.82674 53.0323 9.71162Z" fill="#182A64"/>
<path d="M95.2784 15.9277C94.9676 16.0083 94.7259 16.0543 94.7374 16.0313C94.7489 16.0083 94.4611 16.1349 94.1043 16.3191C93.7359 16.5032 93.2294 16.814 92.9762 17.0212C92.7229 17.2284 92.3776 17.5853 92.2165 17.8155C92.0553 18.0457 91.8251 18.4601 91.7215 18.7479C91.5948 19.0587 91.5143 19.5998 91.5143 20.1293C91.5143 20.6703 91.5833 21.2343 91.71 21.6257C91.8596 22.0747 92.0898 22.42 92.5042 22.8459C92.8265 23.1567 93.3791 23.5596 93.7244 23.7208C94.0698 23.8934 94.8525 24.1582 95.4511 24.3194C96.0497 24.492 97.1663 24.7453 97.926 24.9064C98.6858 25.0676 99.6182 25.2863 99.998 25.4129C100.378 25.5395 100.942 25.7813 101.264 25.9655C101.575 26.1381 101.989 26.4489 102.174 26.6331C102.358 26.8173 102.611 27.2087 102.738 27.4964C102.933 27.9339 102.956 28.1526 102.887 28.9353C102.841 29.4418 102.715 30.0634 102.588 30.3167C102.473 30.5699 102.162 30.9728 101.909 31.2146C101.644 31.4448 101.184 31.7671 100.861 31.9283C100.551 32.0894 99.929 32.2966 99.48 32.3887C99.0311 32.4808 98.3519 32.5614 97.9605 32.5614C97.5577 32.5614 96.844 32.4808 96.372 32.4002C95.9 32.3081 95.3245 32.1585 95.1058 32.0894C94.8871 32.0088 94.4726 31.8132 94.1849 31.652C93.8971 31.4908 93.4366 31.1225 93.1489 30.8232C92.8265 30.5009 92.5388 30.0404 92.3776 29.6145C92.228 29.2462 92.0783 28.613 92.0323 28.2101L91.9402 27.4849C91.0653 27.554 91.0193 27.5885 90.9848 27.8993C90.9617 28.0835 91.0308 28.59 91.1229 29.0274C91.2265 29.4534 91.4452 30.0865 91.6294 30.4433C91.8136 30.8347 92.2049 31.3412 92.5733 31.6865C92.9301 32.0088 93.4942 32.4117 93.8395 32.5729C94.1849 32.7456 94.7374 32.9643 95.0482 33.0564C95.3705 33.16 96.0842 33.2981 96.6598 33.3787C97.2699 33.4593 98.0987 33.4823 98.6742 33.4362C99.2153 33.4017 99.9175 33.2866 100.228 33.183C100.551 33.0909 101.115 32.8607 101.494 32.6765C101.874 32.4923 102.438 32.0894 102.738 31.7901C103.049 31.4908 103.428 30.9498 103.601 30.6045C103.889 30.0289 103.912 29.8447 103.912 28.6476C103.912 27.3813 103.9 27.3008 103.555 26.6907C103.348 26.3453 102.991 25.8964 102.749 25.7007C102.496 25.505 102.024 25.2057 101.702 25.033C101.368 24.8719 100.562 24.5841 99.9175 24.3999C99.2613 24.2158 98.5476 24.0316 98.3289 23.9855C98.1102 23.951 97.3274 23.7898 96.6022 23.6172C95.877 23.456 94.9216 23.1567 94.4726 22.961C94.0007 22.7423 93.5172 22.4085 93.2985 22.1668C93.0913 21.9365 92.8381 21.5452 92.7345 21.3149C92.6309 21.0732 92.5503 20.5667 92.5503 20.1868C92.5503 19.7034 92.6309 19.312 92.815 18.8745C92.9647 18.5292 93.2985 18.0688 93.5518 17.8501C93.805 17.6198 94.277 17.3205 94.5878 17.1709C94.9101 17.0328 95.4741 16.8486 95.854 16.7795C96.2569 16.6989 97.0166 16.6759 97.6958 16.7104C98.3289 16.745 99.1117 16.8601 99.4225 16.9637C99.7448 17.0673 100.217 17.2745 100.493 17.4241C100.758 17.5853 101.161 17.9076 101.391 18.1493C101.621 18.3796 101.92 18.8055 102.07 19.0933C102.22 19.381 102.381 19.8875 102.438 20.2329C102.484 20.5667 102.588 20.889 102.646 20.9466C102.703 21.0041 102.933 21.0041 103.141 20.9581C103.474 20.889 103.509 20.8315 103.509 20.4746C103.509 20.2559 103.417 19.7379 103.29 19.3235C103.164 18.9091 102.91 18.3681 102.726 18.1148C102.542 17.8616 102.22 17.4817 102.001 17.263C101.782 17.0558 101.253 16.6989 100.804 16.4917C100.355 16.273 99.5836 16.0198 99.0771 15.9277C98.5706 15.8356 97.6382 15.7665 97.0051 15.7665C96.372 15.778 95.6008 15.8471 95.2784 15.9277Z" fill="#182A64"/>
<path d="M117.322 16.273C117.61 16.1694 118.151 16.0083 118.531 15.9277C118.911 15.8471 119.763 15.7665 120.43 15.7665C121.305 15.755 121.869 15.8126 122.479 15.9852C122.928 16.1119 123.55 16.3421 123.861 16.4917C124.16 16.6414 124.701 17.0443 125.081 17.3781C125.449 17.7234 125.91 18.2299 126.094 18.5177C126.29 18.8055 126.531 19.2429 126.646 19.4962C126.762 19.7494 126.911 20.1638 126.98 20.4171C127.049 20.6703 127.107 20.9466 127.107 21.0271C127.107 21.1192 126.934 21.1653 126.128 21.1653L125.933 20.5091C125.818 20.1408 125.53 19.5307 125.288 19.1508C125.046 18.7709 124.621 18.276 124.333 18.0457C124.056 17.827 123.7 17.5623 123.538 17.4587C123.377 17.3666 122.94 17.1709 122.56 17.0212C121.961 16.7795 121.662 16.745 120.373 16.745C119.394 16.7335 118.715 16.791 118.416 16.8946C118.163 16.9752 117.645 17.2054 117.265 17.3896C116.885 17.5853 116.344 17.9191 116.056 18.1609C115.78 18.3911 115.319 18.8861 115.043 19.2659C114.755 19.6458 114.387 20.2674 114.214 20.6473C114.042 21.0271 113.8 21.6948 113.685 22.1437C113.512 22.7653 113.466 23.3409 113.466 24.6186C113.478 25.9885 113.524 26.4489 113.731 27.1856C113.869 27.6691 114.145 28.3943 114.341 28.7972C114.537 29.1886 114.894 29.7411 115.124 30.0289C115.354 30.3052 115.722 30.7081 115.941 30.9153C116.16 31.134 116.655 31.4793 117.035 31.698C117.414 31.9168 118.14 32.193 118.646 32.3196C119.153 32.4578 119.878 32.5614 120.258 32.5614C120.638 32.5614 121.259 32.4808 121.639 32.3772C122.019 32.2736 122.537 32.0894 122.79 31.9628C123.043 31.8362 123.527 31.5139 123.872 31.2491C124.218 30.9959 124.69 30.5239 124.931 30.2016C125.173 29.8908 125.518 29.3152 125.703 28.9353C125.887 28.5555 126.094 27.9914 126.163 27.6691C126.244 27.3583 126.324 26.9554 126.359 26.7828C126.405 26.495 126.462 26.4604 127.395 26.4604L127.303 27.1741C127.257 27.577 127.141 28.1296 127.038 28.4173C126.934 28.7051 126.67 29.2922 126.439 29.7411C126.163 30.2707 125.737 30.8462 125.162 31.4218C124.528 32.0434 124.045 32.4002 123.423 32.711C122.951 32.9528 122.169 33.2175 121.697 33.3211C121.098 33.4477 120.534 33.4823 119.855 33.4362C119.314 33.4017 118.566 33.2981 118.186 33.1945C117.806 33.0909 117.138 32.8377 116.689 32.6189C116.217 32.3887 115.55 31.9168 115.078 31.4908C114.594 31.0534 114.065 30.4203 113.754 29.9023C113.466 29.4303 113.063 28.5325 112.856 27.8993C112.511 26.8864 112.453 26.5525 112.407 25.1942C112.373 24.2848 112.396 23.3064 112.476 22.8344C112.545 22.3855 112.729 21.6372 112.879 21.1653C113.029 20.6933 113.386 19.9106 113.662 19.4386C113.938 18.9666 114.468 18.276 114.848 17.9076C115.227 17.5277 115.826 17.0558 116.171 16.8371C116.517 16.6299 117.035 16.3766 117.322 16.273Z" fill="#182A64"/>
<path d="M170.723 15.9622C170.309 16.0773 169.56 16.3651 169.054 16.6184C168.398 16.9522 167.914 17.309 167.281 17.9421C166.809 18.4256 166.28 19.0702 166.118 19.381C165.946 19.7034 165.681 20.2789 165.508 20.6818C165.347 21.0732 165.128 21.7984 165.025 22.2934C164.91 22.8344 164.841 23.7553 164.852 24.6762C164.852 25.8734 164.91 26.3914 165.128 27.2662C165.278 27.8648 165.623 28.7742 165.877 29.2807C166.141 29.7872 166.544 30.4318 166.786 30.7196C167.016 31.0074 167.454 31.4448 167.753 31.698C168.052 31.9513 168.605 32.3196 168.973 32.5268C169.342 32.734 169.871 32.9758 170.159 33.0679C170.447 33.16 171.011 33.2981 171.425 33.3557C171.84 33.4247 172.45 33.4823 172.783 33.4823C173.106 33.4823 173.762 33.4017 174.222 33.2981C174.671 33.1945 175.362 32.9528 175.742 32.7801C176.122 32.5959 176.732 32.2045 177.1 31.9283C177.457 31.6405 177.963 31.134 178.205 30.8117C178.458 30.4779 178.85 29.8102 179.08 29.3382C179.322 28.8663 179.598 28.1181 179.69 27.6691C179.782 27.2202 179.828 26.7712 179.794 26.6676C179.736 26.518 179.587 26.4604 179.31 26.4604C179.092 26.4604 178.884 26.5295 178.861 26.6101C178.848 26.6496 178.809 26.8169 178.756 27.0412L178.756 27.0422C178.716 27.2101 178.669 27.4098 178.62 27.6116C178.516 28.0835 178.263 28.7857 178.056 29.1541C177.86 29.5339 177.365 30.2016 176.951 30.639C176.513 31.0995 175.914 31.5944 175.512 31.8132C175.132 32.0319 174.51 32.2851 174.13 32.3772C173.75 32.4808 173.152 32.5614 172.806 32.5614C172.461 32.5614 171.805 32.4808 171.368 32.3887C170.93 32.2966 170.17 32.0204 169.698 31.7901C169.146 31.5139 168.582 31.0995 168.144 30.662C167.765 30.2822 167.27 29.6606 167.051 29.2807C166.832 28.9008 166.498 28.1526 166.314 27.6116C165.992 26.6907 165.969 26.5295 165.969 24.7338C165.957 23.2488 166.003 22.6733 166.164 22.0862C166.28 21.6718 166.579 20.912 166.821 20.394C167.085 19.8415 167.546 19.1508 167.903 18.7594C168.237 18.3796 168.766 17.9191 169.077 17.7234C169.388 17.5392 170.009 17.24 170.447 17.0788C171.034 16.8486 171.552 16.7565 172.346 16.7104C172.945 16.6759 173.75 16.7104 174.13 16.7795C174.51 16.8486 175.189 17.0788 175.627 17.2975C176.064 17.5162 176.663 17.9191 176.939 18.1954C177.215 18.4601 177.618 18.9666 177.837 19.3005C178.044 19.6228 178.286 20.1753 178.378 20.5091L178.528 21.1077C179.471 21.1538 179.598 21.1307 179.598 20.9926C179.598 20.9005 179.471 20.4976 179.333 20.1062C179.184 19.7034 178.907 19.1278 178.723 18.8055C178.539 18.4947 178.079 17.9191 177.699 17.5277C177.261 17.0903 176.732 16.6989 176.26 16.4802C175.845 16.273 175.178 16.0313 174.763 15.9392C174.303 15.8241 173.52 15.7665 172.749 15.7665C171.978 15.7665 171.183 15.8471 170.723 15.9622Z" fill="#182A64"/>
<path d="M161.433 24.3539C161.468 17.263 161.491 16.1924 161.641 16.1003C161.733 16.0428 161.825 15.9852 161.848 15.9852C161.859 15.9852 162.009 16.0313 162.504 16.2155L162.446 33.0218L162.159 33.0794C161.997 33.1139 161.79 33.1139 161.698 33.0794C161.606 33.0449 161.502 32.9067 161.468 32.7571C161.433 32.6189 161.422 28.8317 161.433 24.3539Z" fill="#182A64"/>
<path d="M129.697 16.1924C129.651 16.25 129.616 20.0026 129.628 24.515C129.628 28.465 129.637 31.8358 129.639 32.6811L129.639 32.7009L129.639 32.7068L129.639 32.8837C129.639 32.9873 130.779 33.0218 134.935 33.0218H140.23L140.172 32.1585L130.675 32.1009L130.618 16.1579C129.973 16.1003 129.743 16.1349 129.697 16.1924Z" fill="#182A64"/>
<path d="M141.404 24.6762C141.392 20.1178 141.404 16.3191 141.438 16.2385C141.484 16.1464 141.657 16.1003 142.359 16.1579L142.417 24.3884C142.451 28.9123 142.451 32.711 142.417 32.8261C142.371 32.9988 142.267 33.0333 141.438 32.9643L141.404 24.6762Z" fill="#182A64"/>
<path d="M145.479 16.273C145.444 16.3651 145.41 20.0947 145.41 24.5611C145.41 29.0274 145.433 32.7571 145.467 32.8492C145.506 32.9643 145.678 33.0218 145.985 33.0218H146.446C146.469 21.5567 146.503 18.0918 146.549 17.9076C146.607 17.6198 146.745 17.781 148.161 19.8645C149.013 21.1192 149.945 22.4776 150.244 22.892C150.544 23.3064 151.292 24.3884 151.914 25.3093C152.524 26.2302 153.974 28.3368 155.125 30.0059L157.209 33.0333L158.417 33.0218L158.36 16.1579C157.715 16.1003 157.52 16.1464 157.474 16.2385C157.427 16.3191 157.381 19.7839 157.381 23.928C157.393 31.157 157.381 31.4563 157.186 31.2721C157.071 31.1685 156.357 30.167 155.597 29.0505C154.837 27.9339 154.089 26.8403 153.928 26.6216C153.767 26.4144 153.26 25.6777 152.8 24.9985C152.34 24.3078 151.453 23.0071 150.82 22.0862C150.379 21.4322 149.664 20.3951 149.007 19.4407L149.003 19.435C148.736 19.0475 148.479 18.6737 148.253 18.345C147.459 17.2054 146.734 16.2385 146.63 16.1924C146.526 16.1349 146.239 16.1003 145.997 16.1003C145.698 16.1003 145.525 16.1579 145.479 16.273Z" fill="#182A64"/>
<path fill-rule="evenodd" clip-rule="evenodd" d="M186.378 17.827C186.507 17.4979 186.663 17.1127 186.777 16.8316C186.827 16.7097 186.868 16.6074 186.896 16.5378C187.057 16.1234 187.103 16.1003 187.564 16.1003C187.84 16.0888 188.116 16.1579 188.185 16.2385C188.255 16.3191 188.738 17.4817 189.268 18.8055C189.664 19.8288 190.17 21.1158 190.534 22.0447L190.566 22.1251C190.664 22.3753 190.751 22.5969 190.822 22.7769C191.167 23.6287 191.777 25.1827 192.18 26.2302C192.583 27.2777 193.342 29.1886 193.86 30.4894L193.867 30.5062C194.371 31.7995 194.793 32.8839 194.793 32.9413C194.793 32.9873 194.551 33.0103 194.252 32.9988C194.006 32.9831 193.872 32.9746 193.774 32.9106C193.656 32.8338 193.591 32.6768 193.446 32.3312C193.308 31.9858 192.836 30.7887 191.616 27.6691L187.817 27.6346C185.734 27.6231 183.915 27.6461 183.765 27.6921C183.546 27.7727 183.316 28.2562 182.476 30.3743C181.497 32.8492 181.44 32.9643 181.095 33.0564C180.91 33.1024 180.669 33.1139 180.577 33.0794C180.484 33.0449 180.404 32.9528 180.404 32.8837C180.404 32.8031 180.692 32.0319 181.025 31.18C181.371 30.3282 181.751 29.3728 181.877 29.0505C181.992 28.7397 182.833 26.6331 183.731 24.3884C184.278 23.0371 184.813 21.7024 185.192 20.7562C185.443 20.1309 185.626 19.6748 185.699 19.4962C185.872 19.0587 186.182 18.299 186.378 17.827ZM186.271 20.6889C186.155 20.9897 186.051 21.2574 185.975 21.4531C185.859 21.7388 185.745 22.0274 185.654 22.2592C185.565 22.485 185.497 22.6568 185.469 22.7193C185.411 22.8459 185.089 23.6287 184.767 24.446C184.444 25.2633 184.133 26.0806 184.076 26.2533C183.984 26.5295 184.007 26.5871 184.226 26.6331C184.375 26.6677 185.906 26.6907 187.633 26.6907C189.348 26.6907 190.845 26.6677 190.937 26.6331C191.029 26.5986 191.109 26.5065 191.109 26.4259C191.109 26.3569 190.971 25.931 190.81 25.482C190.72 25.2327 190.592 24.891 190.466 24.5557L190.465 24.5537L190.464 24.5522L190.464 24.5501C190.363 24.2835 190.265 24.0213 190.188 23.8129C190.092 23.5669 189.893 23.0396 189.651 22.3986L189.651 22.3981C189.429 21.8093 189.17 21.1248 188.922 20.4746C188.404 19.1163 187.921 17.8501 187.852 17.6774C187.771 17.5047 187.679 17.3551 187.633 17.3666C187.587 17.3666 187.288 18.0573 186.965 18.8861V18.8976C186.761 19.424 186.505 20.0851 186.289 20.642L186.271 20.6889Z" fill="#182A64"/>
<path d="M196.117 16.1694C196.071 16.2155 196.025 19.9336 196.036 24.6417C196.059 32.5268 196.071 33.0218 196.266 33.0564C196.37 33.0679 198.741 33.0564 201.527 33.0218L206.592 32.9643V32.1585C199.317 32.1124 197.199 32.0894 197.187 32.0779C197.164 32.0549 197.13 28.4749 197.095 24.1006L197.038 16.1579C196.404 16.1003 196.174 16.1234 196.117 16.1694Z" fill="#182A64"/>
<path d="M87.1515 17.3205C87.14 17.0097 87.2091 16.8716 87.4623 16.6874C87.635 16.5493 87.8997 16.4457 88.0494 16.4457C88.1875 16.4457 88.4178 16.5032 88.5444 16.5608C88.671 16.6299 88.8322 16.8371 88.8897 17.0212C88.9588 17.2284 88.9588 17.4702 88.9012 17.6313C88.8552 17.7695 88.7286 17.9421 88.648 18.0227C88.5559 18.0918 88.3602 18.1839 88.199 18.2299C87.9803 18.2875 87.8192 18.2299 87.5429 18.0112C87.2551 17.781 87.163 17.6198 87.1515 17.3205Z" fill="#182A64"/>
<path d="M32.9452 17.5623C32.6689 17.9306 32.2315 18.5637 31.9783 18.9782C31.725 19.3926 31.207 20.4055 30.8041 21.2228C30.4127 22.0516 29.9638 23.1107 29.8027 23.5826C29.6415 24.0546 29.3767 24.964 29.2271 25.5971C29.0659 26.2302 28.8472 27.2317 28.7551 27.8188C28.617 28.5785 28.571 29.6606 28.571 31.675C28.571 33.5629 28.6285 34.8061 28.7436 35.5543C28.8357 36.1529 28.9854 36.9587 29.0774 37.3385C29.1695 37.7184 29.4113 38.5472 29.607 39.1803C29.8027 39.8134 30.171 40.8264 30.4358 41.425C30.689 42.0236 31.1149 42.91 31.3682 43.3819C31.6214 43.8539 32.0934 44.6366 32.4042 45.1086C32.715 45.5806 33.0718 46.0871 33.1869 46.2367C33.3596 46.4439 33.4172 46.4554 33.4632 46.3173C33.4978 46.2252 33.5208 41.3559 33.5208 35.4967C33.5208 27.082 33.5553 24.8374 33.6704 24.8028C33.7395 24.7683 34.3496 24.7222 35.0172 24.6877C35.6849 24.6532 37.0317 24.5496 38.0101 24.446C38.9886 24.3539 40.0246 24.2388 40.3009 24.1927C40.5771 24.1352 40.8189 24.0776 40.8304 24.0431C40.8419 24.0086 40.7959 23.5711 40.7038 23.0646C40.6232 22.5581 40.5541 21.7408 40.5541 21.2574C40.5426 20.7394 40.4966 20.3595 40.4275 20.3595C40.3699 20.3595 40.0361 20.4976 39.7138 20.6703C39.2994 20.866 38.8505 20.9926 38.3555 21.0271C37.872 21.0617 37.3425 21.0156 36.8936 20.889C36.4907 20.7854 35.9727 20.5782 35.7424 20.4286C35.5007 20.2789 35.0863 19.9221 34.8215 19.6573C34.5568 19.381 34.246 18.9436 34.1078 18.6904C33.9812 18.4371 33.8086 17.9767 33.7395 17.6544C33.6589 17.3436 33.5553 17.0328 33.5208 16.9867C33.4862 16.9292 33.2215 17.1824 32.9452 17.5623Z" fill="#182A64"/>
<path d="M87.5774 21.0387L87.8652 20.9351C88.0149 20.8775 88.1645 20.8315 88.199 20.8315C88.2336 20.8315 88.3257 20.866 88.3947 20.912C88.5098 20.9696 88.5329 22.3279 88.4868 32.9643L87.6235 33.0218L87.5774 21.0387Z" fill="#182A64"/>
<path d="M42.7643 28.2677C42.7297 28.3137 42.6952 31.3757 42.7067 35.0823C42.7297 41.0912 42.7528 41.9891 42.9485 43.2668C43.0751 44.0611 43.3398 45.2237 43.547 45.8568C43.7427 46.49 44.1341 47.4454 44.3989 47.9864C44.6636 48.5274 45.1931 49.3793 45.573 49.8858C45.9529 50.3923 46.5975 51.1175 47.0004 51.5088C47.4033 51.9002 48.2091 52.5103 48.7731 52.8787C49.3487 53.2585 50.0969 53.673 50.4423 53.8111C50.7876 53.9492 51.5473 54.2025 52.1114 54.3521C52.6869 54.5133 53.6654 54.709 54.2985 54.7895C55.0007 54.8701 56.0252 54.9046 56.9461 54.8586C57.7634 54.8241 58.8339 54.709 59.3059 54.6054C59.7779 54.5018 60.5606 54.26 61.0326 54.0874C61.5045 53.9032 62.2182 53.5463 62.6211 53.2816C63.0125 53.0283 63.5766 52.6024 63.8643 52.3376C64.1521 52.0614 64.6356 51.5088 64.9234 51.0944C65.2111 50.68 65.568 50.093 65.7061 49.7706C65.8443 49.4598 66.063 48.8382 66.1896 48.3893C66.3277 47.9519 66.4774 47.0425 66.5349 46.3748C66.604 45.6381 66.604 44.8208 66.5349 44.3028C66.4774 43.8309 66.3738 43.2553 66.3047 43.0366C66.2356 42.8179 66.0745 42.4035 65.9479 42.1157C65.8212 41.8279 65.5104 41.3099 65.2802 40.9646C65.0385 40.6192 64.6011 40.0782 64.2902 39.7559C63.991 39.4451 63.4845 38.9616 63.1621 38.7084C62.8513 38.4436 62.1952 37.9832 61.7232 37.6839C61.2513 37.3846 60.3419 36.8781 59.7088 36.5673C59.0757 36.2565 57.8785 35.75 57.0612 35.4392C56.2439 35.1284 54.7129 34.6104 53.6654 34.2881C52.6179 33.9657 51.4552 33.5974 51.0754 33.4593C50.6955 33.3326 49.8897 33.0218 49.2911 32.7571C48.6926 32.5038 47.7026 32.0088 47.104 31.6635C46.5054 31.3182 45.6536 30.7656 45.2047 30.4318C44.7557 30.098 44.0535 29.4649 43.6276 29.0159C43.2017 28.567 42.8103 28.2332 42.7643 28.2677Z" fill="#182A64"/>
<path fill-rule="evenodd" clip-rule="evenodd" d="M110.565 39.3875C110.738 39.2839 111.026 39.1688 111.198 39.1113C111.371 39.0652 111.774 39.0192 112.085 39.0192C112.407 39.0077 112.948 39.0882 113.293 39.1918C113.765 39.3415 114.076 39.5372 114.514 39.9746C114.905 40.366 115.158 40.7459 115.285 41.1372C115.389 41.4595 115.504 41.9776 115.55 42.2884C115.584 42.6107 115.561 43.1632 115.481 43.5546C115.4 43.9345 115.25 44.4294 115.135 44.6482C115.02 44.8669 114.79 45.2237 114.606 45.4309C114.422 45.6496 114.019 45.9489 113.696 46.0986C113.224 46.3288 112.948 46.3863 112.2 46.3863C111.463 46.3863 111.164 46.3288 110.703 46.0986C110.393 45.9489 109.932 45.5921 109.69 45.3273C109.391 44.982 109.172 44.5561 109.011 44.015C108.827 43.4049 108.781 43.0136 108.827 42.4035C108.862 41.9315 108.988 41.3559 109.138 41.0221C109.276 40.7113 109.587 40.2509 109.817 40.0091C110.047 39.7674 110.393 39.4796 110.565 39.3875ZM111.221 40.32C110.83 40.5272 110.634 40.7229 110.416 41.1603C110.231 41.5286 110.116 41.9776 110.093 42.4726C110.07 42.887 110.105 43.451 110.185 43.7388C110.255 44.0266 110.462 44.441 110.623 44.6482C110.796 44.8669 111.141 45.1432 111.394 45.2468C111.693 45.3849 112.027 45.4309 112.373 45.3964C112.66 45.3734 113.075 45.2237 113.293 45.0856C113.512 44.936 113.811 44.5906 113.95 44.3028C114.076 44.0266 114.226 43.4855 114.272 43.1057C114.329 42.6107 114.306 42.2308 114.168 41.7474C114.065 41.3905 113.846 40.9301 113.662 40.7344C113.489 40.5387 113.167 40.2969 112.948 40.2164C112.729 40.1243 112.361 40.0552 112.142 40.0552C111.912 40.0552 111.498 40.1703 111.221 40.32Z" fill="#182A64"/>
<path d="M142.244 39.1803C141.991 39.2724 141.657 39.4451 141.507 39.5487C141.358 39.6638 141.139 39.8825 141.012 40.0437C140.897 40.2048 140.771 40.5387 140.725 40.7919C140.679 41.1257 140.725 41.402 140.909 41.8049C141.036 42.1042 141.266 42.4265 141.415 42.5186C141.554 42.6107 142.325 42.8869 143.131 43.1172C144.074 43.4049 144.65 43.6352 144.765 43.7848C144.857 43.9114 144.949 44.1417 144.949 44.3028C144.949 44.464 144.869 44.7057 144.777 44.8554C144.685 44.9935 144.431 45.1892 144.236 45.2928C143.959 45.4309 143.706 45.4539 143.338 45.4079C143.05 45.3619 142.67 45.2698 142.486 45.1892C142.313 45.1086 142.06 44.9014 141.945 44.7057C141.83 44.5215 141.726 44.2683 141.726 44.1647C141.726 44.0496 141.646 43.9345 141.554 43.8999C141.461 43.8654 141.254 43.8424 141.105 43.8424C140.943 43.8424 140.736 43.9345 140.633 44.0496C140.494 44.1762 140.46 44.3489 140.506 44.5676C140.541 44.7402 140.713 45.0856 140.897 45.3503C141.093 45.6496 141.415 45.9259 141.784 46.0986C142.244 46.3288 142.543 46.3864 143.338 46.3979C144.017 46.3979 144.454 46.3403 144.777 46.2137C145.03 46.1101 145.41 45.8568 145.617 45.6496C145.893 45.3734 146.02 45.1201 146.112 44.6482C146.193 44.1762 146.193 43.9114 146.089 43.6121C146.02 43.3934 145.87 43.1172 145.767 42.9905C145.663 42.8754 145.398 42.6912 145.18 42.5761C144.961 42.461 144.362 42.2653 143.856 42.1502C143.349 42.0236 142.762 41.8279 142.566 41.7243C142.359 41.6207 142.118 41.4135 142.048 41.2523C141.933 41.0221 141.933 40.907 142.048 40.6768C142.118 40.5156 142.359 40.3084 142.566 40.2048C142.797 40.0782 143.131 40.0322 143.476 40.0552C143.879 40.0897 144.097 40.1818 144.362 40.4466C144.558 40.6423 144.719 40.884 144.719 40.9991C144.719 41.1027 144.8 41.2178 144.892 41.2523C144.984 41.2869 145.249 41.3099 145.467 41.3099C145.744 41.3099 145.893 41.2523 145.951 41.1142C145.985 40.9991 145.951 40.7228 145.87 40.5041C145.79 40.2854 145.617 39.9746 145.479 39.8365C145.352 39.6868 145.03 39.4566 144.777 39.3185C144.477 39.1688 144.028 39.0767 143.51 39.0422C142.981 39.0192 142.543 39.0652 142.244 39.1803Z" fill="#182A64"/>
<path d="M152.236 39.3645C152.344 39.3177 152.457 39.267 152.56 39.2211C152.71 39.1542 152.837 39.0972 152.892 39.0767C152.984 39.0422 153.433 39.0307 153.871 39.0422C154.435 39.0652 154.849 39.1573 155.24 39.3645C155.574 39.5257 155.931 39.8134 156.081 40.0437C156.23 40.2624 156.368 40.6307 156.38 40.8495C156.403 41.2178 156.38 41.2523 156.058 41.2869C155.862 41.3099 155.597 41.2984 155.459 41.2639C155.309 41.2293 155.171 41.0797 155.137 40.9415C155.102 40.7919 154.964 40.5617 154.814 40.4235C154.676 40.2739 154.377 40.1242 154.158 40.0897C153.94 40.0437 153.56 40.0437 153.329 40.0897C153.088 40.1242 152.788 40.2624 152.662 40.389C152.535 40.5156 152.432 40.7574 152.432 40.9415C152.432 41.1257 152.535 41.3559 152.685 41.4941C152.834 41.6207 153.099 41.7934 153.295 41.8509C153.491 41.92 154.009 42.0696 154.446 42.1732C154.883 42.2884 155.448 42.484 155.689 42.6222C155.931 42.7488 156.196 42.9675 156.276 43.0941C156.368 43.2208 156.484 43.5316 156.553 43.7848C156.645 44.1186 156.633 44.3949 156.541 44.7748C156.461 45.0741 156.276 45.4539 156.115 45.6266C155.954 45.7993 155.701 46.0065 155.54 46.0871C155.378 46.1676 154.964 46.2943 154.619 46.3518C154.204 46.4324 153.721 46.4439 153.237 46.3748C152.754 46.3058 152.305 46.1446 151.971 45.9374C151.683 45.7647 151.338 45.4079 151.2 45.1662C151.05 44.9129 150.935 44.533 150.935 44.3374C150.935 44.0381 150.993 43.946 151.2 43.8884C151.338 43.8539 151.58 43.8424 151.741 43.8769C151.937 43.9229 152.098 44.1071 152.259 44.441C152.386 44.7057 152.639 45.028 152.811 45.1662C153.053 45.3388 153.295 45.3964 153.79 45.3849C154.147 45.3734 154.619 45.2813 154.826 45.1777C155.022 45.0741 155.252 44.8669 155.309 44.7057C155.367 44.5446 155.39 44.2798 155.344 44.1186C155.286 43.946 155.125 43.7157 154.964 43.6121C154.803 43.497 154.216 43.2898 153.64 43.1517C153.065 43.0136 152.397 42.7949 152.144 42.6567C151.902 42.5186 151.568 42.2193 151.43 42.0006C151.246 41.7243 151.165 41.4365 151.165 41.0797C151.165 40.7459 151.269 40.389 151.453 40.0782C151.649 39.7329 151.891 39.5142 152.236 39.3645Z" fill="#182A64"/>
<path fill-rule="evenodd" clip-rule="evenodd" d="M170.504 39.1343C170.286 39.2034 169.894 39.3875 169.641 39.5602C169.388 39.7329 169.008 40.1358 168.801 40.4466C168.593 40.7689 168.363 41.2293 168.294 41.4826C168.237 41.7358 168.179 42.2538 168.179 42.6337C168.179 43.0136 168.213 43.5085 168.248 43.7273C168.294 43.946 168.444 44.3604 168.582 44.6366C168.72 44.9129 169.019 45.3158 169.238 45.523C169.457 45.7417 169.871 46.0295 170.159 46.1561C170.516 46.3288 170.93 46.3979 171.483 46.3979C172.07 46.4094 172.438 46.3403 172.864 46.1561C173.186 46.018 173.635 45.7072 173.877 45.477C174.107 45.2467 174.418 44.7978 174.556 44.4755C174.706 44.1071 174.821 43.5661 174.855 42.979C174.89 42.3114 174.855 41.8855 174.706 41.425C174.602 41.0797 174.349 40.5617 174.142 40.2739C173.912 39.9631 173.52 39.6293 173.14 39.4221C172.657 39.1573 172.346 39.0767 171.713 39.0537C171.275 39.0307 170.723 39.0652 170.504 39.1343ZM169.906 40.9301C170.078 40.6883 170.401 40.3775 170.619 40.2624C170.919 40.0897 171.183 40.0552 171.655 40.0897C172.035 40.1128 172.427 40.2279 172.634 40.366C172.829 40.4926 173.117 40.8725 173.301 41.2178C173.555 41.7243 173.612 41.9891 173.612 42.6452C173.612 43.0942 173.555 43.6467 173.497 43.8769C173.428 44.1187 173.244 44.4755 173.06 44.6827C172.887 44.8784 172.53 45.1432 172.254 45.2583C171.909 45.4079 171.632 45.4425 171.287 45.3964C171.011 45.3504 170.631 45.2122 170.424 45.0741C170.216 44.9475 169.952 44.6482 169.825 44.4295C169.698 44.2108 169.537 43.7158 169.468 43.3359C169.376 42.8409 169.376 42.4611 169.468 42.0121C169.526 41.6668 169.721 41.1718 169.906 40.9301Z" fill="#182A64"/>
<path fill-rule="evenodd" clip-rule="evenodd" d="M87.5314 42.8409C87.4853 39.7559 87.5084 39.4681 87.6925 39.2954C87.8652 39.1228 88.1185 39.1113 89.684 39.1458C90.9848 39.1803 91.5948 39.2494 91.8826 39.376C92.1013 39.4796 92.4006 39.6868 92.5388 39.8365C92.6769 39.9746 92.8381 40.2394 92.9071 40.4235C92.9762 40.5962 93.0337 41.0451 93.0337 41.425C93.0337 41.8049 92.9532 42.2653 92.8611 42.461C92.769 42.6567 92.5157 42.933 92.3201 43.0826C92.1129 43.2323 91.779 43.3819 91.5948 43.428C91.4107 43.4625 90.7315 43.5201 90.0984 43.5546C89.3962 43.6006 88.9127 43.6812 88.8667 43.7618C88.8206 43.8424 88.7746 44.4294 88.7746 46.2597L87.5659 46.2022L87.5314 42.8409ZM88.9242 40.366C88.8091 40.4811 88.7631 40.7919 88.7631 41.4135C88.7631 42.0927 88.8091 42.3344 88.9588 42.4726C89.1084 42.6107 89.3502 42.6337 90.0869 42.5877C90.6855 42.5416 91.1344 42.4495 91.3416 42.3229C91.5143 42.2193 91.6984 41.9546 91.756 41.7474C91.8136 41.5517 91.8251 41.2178 91.779 41.0337C91.733 40.8495 91.5603 40.5962 91.4107 40.4811C91.2035 40.3315 90.8696 40.2739 90.1099 40.2394C89.3617 40.2164 89.0509 40.2509 88.9242 40.366Z" fill="#182A64"/>
<path fill-rule="evenodd" clip-rule="evenodd" d="M98.3289 39.1918C98.1908 39.2494 98.1677 39.7904 98.1908 42.7603L98.2138 46.2597C99.2038 46.2597 99.3764 46.2137 99.4225 46.0871C99.457 45.995 99.48 45.3503 99.48 44.6482V43.3819C101.264 43.3819 101.782 43.4395 101.978 43.5431C102.162 43.6237 102.358 43.8424 102.438 44.0266C102.507 44.2107 102.6 44.7518 102.646 45.2237C102.68 45.6957 102.749 46.1216 102.795 46.1791C102.841 46.2252 103.129 46.2482 103.451 46.2367C103.889 46.2137 104.015 46.1561 103.992 46.0295C103.969 45.9374 103.9 45.4424 103.843 44.9359C103.833 44.8643 103.823 44.792 103.814 44.7202C103.755 44.2841 103.698 43.8656 103.659 43.7273C103.624 43.5661 103.451 43.3013 103.267 43.1287C102.968 42.8409 102.956 42.7949 103.129 42.7028C103.244 42.6567 103.451 42.415 103.59 42.1848C103.785 41.8855 103.854 41.5862 103.854 41.1142C103.854 40.6077 103.797 40.343 103.601 40.0437C103.451 39.825 103.129 39.5372 102.876 39.4106C102.484 39.2149 102.139 39.1803 100.458 39.1573C99.3764 39.1458 98.421 39.1573 98.3289 39.1918ZM99.4455 41.2063C99.48 40.7344 99.5721 40.3085 99.6412 40.2624C99.7102 40.2164 100.159 40.1703 100.631 40.1703C101.103 40.1703 101.69 40.2279 101.932 40.2854C102.162 40.3545 102.404 40.4926 102.461 40.5962C102.519 40.7113 102.577 40.9301 102.588 41.0912C102.6 41.2524 102.611 41.4711 102.6 41.5747C102.588 41.6898 102.461 41.9085 102.3 42.0697C102.036 42.3459 101.955 42.3575 100.746 42.3575C99.8369 42.3575 99.4685 42.3114 99.434 42.2193C99.3994 42.1387 99.4109 41.6783 99.4455 41.2063Z" fill="#182A64"/>
<path d="M120.649 42.7028C120.649 39.8595 120.661 39.4681 120.833 39.307C120.994 39.1573 121.374 39.1228 123.147 39.1228C124.874 39.1228 125.3 39.1573 125.438 39.2954C125.53 39.3875 125.61 39.5372 125.61 39.6178C125.61 39.6868 125.587 39.871 125.553 40.0206C125.495 40.2739 125.461 40.2739 123.769 40.2739C122.077 40.2739 122.042 40.2739 121.973 40.5387C121.938 40.6768 121.927 41.0797 121.984 42.0581L125.092 42.1732L125.116 42.6107C125.139 42.8409 125.139 43.0481 125.116 43.0481C125.104 43.0596 124.39 43.1057 121.984 43.2093L121.927 46.2597H121.351C120.937 46.2597 120.764 46.2137 120.718 46.0871C120.684 45.995 120.661 44.464 120.649 42.7028Z" fill="#182A64"/>
<path d="M130.744 39.2494C130.526 39.3645 130.526 39.5142 130.537 42.6337C130.549 44.441 130.583 45.995 130.618 46.0871C130.664 46.2367 131.055 46.2597 133.208 46.2597H135.74V45.2237C132.747 45.2237 132.172 45.1892 132.022 45.0856C131.85 44.959 131.827 44.7978 131.85 44.0726L131.884 43.2093L135.337 43.0941L135.395 42.1157C132.241 42.1157 131.93 42.0812 131.884 41.943C131.85 41.8509 131.827 41.5516 131.827 41.2869C131.827 41.0106 131.85 40.6768 131.884 40.5387C131.942 40.2739 131.965 40.2739 133.703 40.2739C134.958 40.2739 135.499 40.2278 135.602 40.1358C135.683 40.0552 135.74 39.848 135.74 39.6753C135.74 39.4681 135.66 39.307 135.51 39.2379C135.383 39.1688 134.336 39.1228 133.116 39.1228C131.884 39.1228 130.871 39.1803 130.744 39.2494Z" fill="#182A64"/>
<path d="M161.733 42.7603C161.71 39.7904 161.733 39.2494 161.871 39.2034C161.963 39.1688 162.159 39.1343 162.308 39.1343C162.446 39.1228 162.665 39.1803 162.792 39.2379C163.01 39.353 163.022 39.4681 163.022 42.6337C163.022 44.441 162.999 45.995 162.964 46.0871C162.918 46.2137 162.746 46.2597 161.756 46.2597L161.733 42.7603Z" fill="#182A64"/>
<path d="M180.116 39.307C179.943 39.4681 179.932 39.8595 179.932 42.7028C179.943 44.464 179.966 45.995 180.001 46.0871C180.035 46.2022 180.22 46.2597 180.577 46.2597C180.968 46.2597 181.106 46.2137 181.164 46.064C181.198 45.9489 181.221 45.051 181.21 44.0726C181.198 43.0941 181.198 42.0927 181.198 41.8624C181.21 41.5977 181.267 41.4365 181.336 41.4595C181.405 41.4711 181.659 41.7934 181.889 42.1732C182.084 42.4797 182.534 43.2207 182.99 43.9731L182.994 43.9785L183.02 44.0229C183.12 44.1866 183.219 44.3505 183.316 44.51C183.869 45.4079 184.41 46.1907 184.525 46.2482C184.628 46.3058 184.939 46.3173 185.216 46.2827L185.699 46.2022C185.734 41.92 185.734 40.366 185.722 39.9861C185.711 39.6062 185.676 39.2724 185.641 39.2379C185.595 39.2034 185.388 39.1803 185.181 39.1918C184.962 39.1918 184.744 39.2379 184.698 39.2839C184.652 39.33 184.594 40.4351 184.582 41.7243C184.559 43.0136 184.513 44.0726 184.467 44.0726C184.41 44.0726 183.777 43.1057 183.051 41.9315C182.326 40.7459 181.59 39.6293 181.417 39.4566C181.187 39.2149 180.979 39.1228 180.703 39.1228C180.484 39.1228 180.22 39.2034 180.116 39.307Z" fill="#182A64"/>
<path fill-rule="evenodd" clip-rule="evenodd" d="M193.043 39.3875C193.078 39.3185 193.181 39.2264 193.285 39.2034C193.389 39.1688 193.607 39.1458 193.791 39.1343C193.964 39.1343 194.194 39.1688 194.309 39.2264C194.413 39.2839 194.597 39.5717 194.724 39.8825C194.839 40.1933 195.322 41.4595 195.794 42.6912C195.952 43.1028 196.111 43.5195 196.258 43.9036C196.55 44.6689 196.792 45.3046 196.876 45.5115C197.003 45.8338 197.095 46.1216 197.095 46.1791C197.095 46.2252 196.807 46.2482 195.794 46.2022L195.184 44.4755H192.353L191.719 46.2022L191.121 46.2367C190.626 46.2597 190.534 46.2252 190.534 46.064C190.534 45.9489 190.729 45.3388 190.983 44.7057C191.15 44.2886 191.441 43.5266 191.743 42.7392L191.744 42.7361L191.746 42.7306L191.748 42.7245C191.903 42.3216 192.059 41.9125 192.203 41.5401C192.629 40.4351 193.009 39.4681 193.043 39.3875ZM193.435 41.3445C193.308 41.6783 193.112 42.2539 192.997 42.6222C192.801 43.2093 192.801 43.3014 192.951 43.3935C193.043 43.4625 193.389 43.4971 193.699 43.4971C194.022 43.4971 194.367 43.4625 194.482 43.4395C194.586 43.4165 194.678 43.3014 194.678 43.1863C194.678 43.0827 194.574 42.7028 194.448 42.3575C194.321 42.0121 194.137 41.5056 194.045 41.2294C193.953 40.9646 193.826 40.7459 193.768 40.7459C193.699 40.7459 193.55 41.0222 193.435 41.356V41.3445Z" fill="#182A64"/>
<path d="M202.149 39.2034C202.045 39.2264 201.93 39.3645 201.884 39.5026C201.849 39.6408 201.815 41.1603 201.815 42.8639C201.815 44.5791 201.861 46.041 201.907 46.1101C201.964 46.2252 202.551 46.2482 204.29 46.2252L206.592 46.2022C206.638 45.5806 206.603 45.3503 206.534 45.2813C206.454 45.2122 205.844 45.1777 205.003 45.2122C204.232 45.2352 203.484 45.2122 203.346 45.1777L203.081 45.1086C203.081 39.9401 203.058 39.4451 202.908 39.2954C202.816 39.2034 202.644 39.1343 202.54 39.1343C202.425 39.1458 202.252 39.1688 202.149 39.2034Z" fill="#182A64"/>
</svg>
