<svg width="236" height="63" viewBox="0 0 236 63" fill="none" xmlns="http://www.w3.org/2000/svg">
<path d="M201.548 14.3228C202.08 14.0408 203.365 13.6023 204.367 13.3517C205.62 13.0384 207.406 12.9131 210.381 13.0071C213.921 13.0697 214.955 13.2264 218.996 14.636L219.09 17.2047C219.121 18.6144 219.09 19.7734 218.996 19.7734C218.902 19.7734 218.244 19.5228 217.524 19.1783C216.772 18.865 215.049 18.3638 213.671 18.0505C212.01 17.6746 210.413 17.5493 208.972 17.6433C207.687 17.7373 206.153 18.0819 205.307 18.4578C204.398 18.865 203.552 19.5542 203.145 20.1807C202.675 20.9325 202.55 21.4964 202.675 22.4361C202.769 23.1253 203.051 23.8771 203.239 24.1277C203.458 24.347 204.21 24.8795 204.899 25.2868C205.589 25.694 207.562 26.6025 209.285 27.2916C211.008 28.0121 213.326 29.0459 214.422 29.5784C215.55 30.1423 217.179 31.3013 218.056 32.1471C219.215 33.2435 219.873 34.2773 220.374 35.5929C220.938 37.0966 221.064 37.9111 220.97 39.6653C220.876 41.0436 220.531 42.4846 220.061 43.5497C219.654 44.4895 218.745 45.7425 218.056 46.3377C217.367 46.9642 216.051 47.7787 215.174 48.1859C214.266 48.5931 212.574 49.063 211.415 49.251C210.162 49.4703 207.719 49.5642 205.526 49.4389C202.989 49.345 201.109 49.063 199.731 48.6245C198.603 48.2799 197.381 47.7787 197.005 47.4967C196.348 47.0895 196.285 46.7762 196.285 44.5208C196.285 42.2967 196.348 42.0461 196.849 42.1714C197.131 42.234 198.634 42.7665 200.201 43.3304C202.738 44.2389 203.365 44.3328 206.622 44.3328C209.88 44.3642 210.381 44.3015 211.76 43.581C212.606 43.1425 213.608 42.3593 213.953 41.8581C214.454 41.1689 214.61 40.4484 214.61 39.0701C214.61 37.3159 214.548 37.1906 213.326 36.0942C212.449 35.311 210.569 34.3399 207.218 32.9929C204.555 31.8965 201.61 30.4869 200.671 29.8603C199.731 29.2338 198.54 28.1374 198.008 27.4483C197.444 26.7278 196.849 25.4747 196.629 24.4723C196.348 23.188 196.348 22.2795 196.598 20.8698C196.786 19.8361 197.287 18.3951 197.695 17.6746C198.133 16.9228 198.948 15.983 199.511 15.5758C200.044 15.1686 200.984 14.6047 201.548 14.3228Z" fill="#182A64"/>
<path d="M19.2944 21.3397C19.2944 17.3927 19.3884 13.9155 19.4824 13.6649C19.639 13.2577 21.4559 13.195 48.2707 13.3517L48.4274 18.5204H25.2463V22.2795C25.2463 25.6314 25.1837 26.1012 24.6198 26.6651C24.2752 27.0097 23.3981 27.5736 22.6776 27.9181C21.9258 28.2627 20.8607 28.5447 19.2944 28.5447V21.3397Z" fill="#182A64"/>
<path d="M58.8275 31.5206C58.7962 21.8723 58.8275 13.7902 58.9215 13.5709C59.0468 13.289 59.8299 13.195 64.5601 13.3517L64.8734 43.7376L85.3918 43.8943L85.2351 49.063H58.9215L58.8275 31.5206Z" fill="#182A64"/>
<path d="M93.1605 21.0891C93.1292 16.9855 93.2232 13.5083 93.3798 13.4143C93.5364 13.289 100.021 13.195 122.043 13.195V18.5204H99.1751V22.0602C99.1751 24.9109 99.0811 25.7253 98.6425 26.3205C98.3293 26.7591 97.3895 27.4169 96.5124 27.8242C95.6666 28.2001 94.5702 28.5447 93.2232 28.5447L93.1605 21.0891Z" fill="#182A64"/>
<path d="M132.318 31.176C132.255 16.7348 132.318 13.8842 132.694 13.5709C132.944 13.3517 133.947 13.195 134.949 13.195C136.265 13.195 136.923 13.3517 137.33 13.7589C137.612 14.0722 140.838 18.8337 144.441 24.3783C148.075 29.9543 151.082 34.4652 151.176 34.4652C151.27 34.4652 154.308 29.923 157.911 24.3783C161.545 18.8337 164.74 14.0722 165.053 13.7589C165.429 13.3517 166.087 13.195 167.465 13.195C169.031 13.195 169.407 13.289 169.658 13.8216C169.846 14.2288 169.971 20.6506 169.971 31.2073C169.971 41.7641 169.846 48.1859 169.658 48.5931C169.376 49.1257 169.031 49.2197 167.152 49.2197C165.962 49.2197 164.74 49.157 164.489 49.063C164.082 48.9377 164.019 47.3401 164.019 37.3159C164.019 29.8917 163.894 25.6627 163.706 25.5687C163.549 25.4747 161.043 29.0459 158.161 33.4941C155.279 37.9111 152.711 41.8581 152.429 42.234C152.178 42.6412 151.614 42.9545 151.176 42.9545C150.581 42.9545 150.173 42.6412 149.516 41.6388C149.014 40.887 146.446 36.94 143.783 32.8676C141.12 28.7639 138.833 25.4747 138.646 25.5687C138.458 25.6627 138.332 29.8917 138.332 37.3159C138.332 47.3401 138.27 48.9377 137.862 49.063C137.612 49.157 136.453 49.2197 135.294 49.2197C133.978 49.2197 133.007 49.063 132.756 48.8437C132.443 48.5305 132.349 44.6148 132.318 31.176Z" fill="#182A64"/>
<path d="M180.685 31.5206C180.653 21.8723 180.685 13.7902 180.779 13.5709C180.904 13.289 181.687 13.195 186.417 13.3517V49.063H180.779L180.685 31.5206Z" fill="#182A64"/>
<path d="M34.8007 27.323C35.8344 27.135 37.2441 26.947 37.9333 26.8844C38.6224 26.8531 39.7501 26.8531 40.4393 26.9157C41.1285 26.9784 42.3189 27.1663 43.102 27.323C43.8851 27.5109 45.0755 27.9808 45.7647 28.388C46.4539 28.7953 47.3623 29.4844 47.8009 29.923C48.3647 30.5495 48.4587 30.7688 48.1141 30.7688C47.8635 30.8001 46.5165 30.7688 45.1382 30.7688C43.4779 30.7375 41.849 30.9254 40.2827 31.3326C38.9983 31.6772 36.179 32.5544 34.0175 33.2435C31.8561 33.964 29.0054 34.6845 25.215 35.2797L25.403 43.7376L48.4274 43.8943L48.2707 49.063L34.0175 49.1257C22.9595 49.1883 19.7017 49.1257 19.545 48.8124C19.4197 48.6245 19.2944 45.3039 19.2944 34.4965L18.292 34.0267C17.7281 33.7761 16.7884 33.1809 16.1932 32.711C15.5667 32.1784 15.1908 31.6772 15.3161 31.458C15.4727 31.176 16.0052 31.1134 17.039 31.2387C17.8534 31.3326 19.5137 31.2387 20.7041 31.0194C21.9258 30.8314 25.1523 29.9856 27.909 29.1712C30.6657 28.3254 33.7669 27.5109 34.8007 27.323Z" fill="#182A64"/>
<path d="M106.693 27.6989C107.633 27.4483 109.419 27.135 110.609 27.0097C111.831 26.9157 113.585 26.8531 114.525 26.947C115.464 27.0097 117.031 27.3543 117.971 27.6989C118.91 28.0748 120.226 28.8579 120.884 29.4531C121.542 30.0796 122.074 30.6748 122.043 30.8001C122.043 30.9567 121.009 30.9567 119.787 30.8314C118.378 30.7061 116.718 30.8001 115.464 31.0507C114.337 31.27 111.235 32.1471 108.573 32.9929C105.91 33.87 102.652 34.7158 99.0185 35.311V43.7376L122.043 43.8943L121.886 49.063H93.3798L93.2232 34.6532L92.3774 34.2459C91.8762 34.0267 90.9677 33.4628 90.2786 32.9929C89.6207 32.523 88.9629 31.9278 88.8376 31.6772C88.6183 31.27 89.0569 31.2073 91.7509 31.176C94.5702 31.1447 95.51 30.9567 99.9582 29.6411C102.715 28.8266 105.753 27.9495 106.693 27.6989Z" fill="#182A64"/>
</svg>
