<svg width="236" height="63" viewBox="0 0 236 63" fill="none" xmlns="http://www.w3.org/2000/svg">
<path fill-rule="evenodd" clip-rule="evenodd" d="M133.734 13.3019C133.787 13.1826 134.675 11.6457 135.695 9.88353L137.55 6.69043L145.844 6.75668L147.686 10.1353C148.706 11.9902 149.514 13.5404 149.487 13.5801C149.474 13.6198 148.626 15.1568 145.764 20.3373H137.55L136.609 18.7209C136.453 18.4482 136.264 18.1173 136.06 17.7612L136.056 17.755C135.588 16.9359 135.044 15.9845 134.648 15.3025C133.906 14.0306 133.654 13.4476 133.734 13.3019ZM138.318 7.85642C138.239 7.90942 137.444 9.20786 136.556 10.7315L134.94 13.5139C135.509 14.5474 136.251 15.8193 136.967 17.025L138.239 19.2111L145.036 19.2774C145.817 17.8862 146.533 16.601 147.129 15.5013L148.215 13.5139C147.46 12.083 146.758 10.7978 146.175 9.73783L145.102 7.81667C139.974 7.76368 138.411 7.79017 138.318 7.85642Z" fill="#182A64"/>
<path fill-rule="evenodd" clip-rule="evenodd" d="M111.382 15.435L113.648 11.5264L115.927 7.60464L125.334 7.68413L129.534 15.435L128.355 17.5814C128.089 18.069 127.78 18.6384 127.473 19.2011L127.47 19.2074C127.029 20.0188 126.596 20.8154 126.314 21.331C125.837 22.2054 125.374 22.9871 125.268 23.0799C125.135 23.1991 123.982 23.2389 115.874 23.1859L114.575 20.9335C113.86 19.6881 112.853 17.9524 111.382 15.435ZM120.405 8.81038L116.523 8.87662C115.897 9.9581 115.383 10.8427 114.96 11.5698L114.96 11.5705L114.958 11.5732C114.337 12.6436 113.913 13.3722 113.621 13.8849L112.707 15.4351C115.291 19.9001 116.192 21.4238 116.364 21.702L116.682 22.1922C122.591 22.1922 124.367 22.1392 124.459 22.0862C124.539 22.0332 124.963 21.3708 125.387 20.6023C125.824 19.8338 126.632 18.3632 127.189 17.3297L128.209 15.4351C125.917 11.1688 125.122 9.69808 124.963 9.4066C124.804 9.11511 124.592 8.85012 124.486 8.81038C124.38 8.77063 122.551 8.77063 120.405 8.81038Z" fill="#182A64"/>
<path fill-rule="evenodd" clip-rule="evenodd" d="M155.675 13.7523C155.158 14.64 154.403 15.9517 153.992 16.6672C153.581 17.3827 153.263 18.0319 153.277 18.1246C153.29 18.2174 153.542 18.6944 153.833 19.1978C153.932 19.3686 154.084 19.6293 154.266 19.9407L154.267 19.9417C154.621 20.5481 155.087 21.3464 155.489 22.0464L156.616 23.9941H163.77C165.32 21.2117 166.062 19.8735 166.407 19.2243L167.043 18.0319L163.77 12.1227L156.602 12.1359L155.675 13.7523ZM155.9 15.7C156.655 14.4281 157.331 13.3417 157.411 13.2887C157.49 13.2357 158.749 13.1827 160.206 13.1827C162.141 13.1827 162.909 13.2224 163.081 13.3417C163.201 13.4344 163.73 14.3221 164.247 15.3026C164.777 16.283 165.334 17.3032 165.758 18.0187L163.121 22.8547H157.291L156.006 20.6288C155.304 19.4099 154.681 18.3234 154.641 18.2174C154.588 18.0982 155.065 17.1442 155.9 15.7Z" fill="#182A64"/>
<path fill-rule="evenodd" clip-rule="evenodd" d="M96.1985 21.4635C96.5827 20.8143 97.0597 19.9928 97.2584 19.6483L97.6162 19.0123H102.545C106.414 18.9991 107.5 19.0388 107.619 19.1713C107.699 19.2641 108.626 20.8937 109.66 22.7884C110.693 24.6831 111.594 26.3127 111.66 26.4055C111.74 26.5247 112.734 26.5777 115.649 26.6042L115.667 26.6044C119.478 26.644 119.532 26.6445 120.524 27.0017C121.068 27.2004 121.743 27.5317 122.021 27.7304C122.313 27.9292 122.724 28.3001 122.949 28.5519C123.161 28.8036 123.492 29.3468 123.678 29.7443C123.929 30.3008 124.022 30.7645 124.075 31.7317C124.115 32.6592 124.075 33.2024 123.903 33.7854C123.784 34.2226 123.479 34.8851 123.24 35.2428C123.002 35.6138 122.472 36.1305 122.088 36.3955C121.704 36.6737 121.054 37.0182 120.657 37.1507C120.246 37.2965 119.411 37.4687 118.802 37.5482C118.179 37.6277 116.695 37.6939 113.37 37.6939L113.303 47.2997L111.25 47.366L111.21 38.5287C111.197 33.3084 111.131 29.6781 111.051 29.6781C110.985 29.6781 110.23 30.9633 109.368 32.5267C108.494 34.0901 107.712 35.4548 107.633 35.5475C107.54 35.6403 107.142 35.7463 106.745 35.7728C106.334 35.8125 105.977 35.8655 105.95 35.9053C105.91 35.945 106.096 36.4353 106.361 37.005C106.626 37.5614 106.917 38.3829 106.997 38.8201C107.076 39.2574 107.142 39.9463 107.129 40.3438C107.129 40.7413 107.036 41.4965 106.93 42C106.824 42.5167 106.506 43.3382 106.241 43.8416C105.95 44.3716 105.407 45.1003 104.956 45.5376C104.426 46.0543 103.804 46.4915 103.101 46.836C102.518 47.1142 101.684 47.419 101.246 47.5117C100.77 47.5912 99.8553 47.631 98.9941 47.5912C98.0004 47.5515 97.2717 47.4322 96.7417 47.2467C96.3045 47.101 95.589 46.7433 95.1518 46.4518C94.7145 46.1735 94.1978 45.7893 94.0123 45.6303C93.8268 45.4581 93.4956 45.0738 93.2704 44.7824C93.0319 44.4909 92.7006 43.9211 92.5152 43.5237C92.3164 43.1262 92.0779 42.3842 91.9719 41.8675C91.8659 41.364 91.7732 40.6486 91.7732 40.2776C91.7732 39.9198 91.8659 39.2044 91.9719 38.6876C92.0779 38.1842 92.3562 37.376 92.5814 36.899C92.8596 36.3028 93.2704 35.7463 93.9328 35.0971C94.4496 34.5803 95.165 34.0371 95.5095 33.8781C95.854 33.7191 96.1455 33.5071 96.1455 33.4276C96.1455 33.3349 95.8275 32.7254 95.4433 32.063C95.1403 31.5511 94.615 30.6439 94.1465 29.8348L94.1263 29.7999C94.0078 29.5953 93.8932 29.3974 93.7871 29.2143C93.2704 28.3001 92.8331 27.4787 92.8331 27.3992C92.8331 27.3064 93.4294 26.1935 94.1713 24.9481C94.6216 24.1704 95.1426 23.2763 95.5657 22.5504C95.8274 22.1014 96.0516 21.7166 96.1985 21.4635ZM96.4027 23.428C96.1979 23.7825 95.9954 24.133 95.8142 24.4446C95.2445 25.4251 94.6218 26.4983 94.4496 26.8295L94.1183 27.4257C94.5555 28.2472 95.271 29.5059 95.9997 30.7381L97.3114 32.9905C100.995 32.9905 101.352 33.0302 102.108 33.2952C102.585 33.4674 103.353 33.8384 103.83 34.1299C104.665 34.6334 104.718 34.6466 105.791 34.6201L106.891 34.5804C107.701 33.1294 108.343 31.9808 108.846 31.0785C109.875 29.237 110.33 28.4212 110.481 28.1544L110.879 27.4257C109.09 24.1399 108.202 22.5102 107.752 21.702L106.944 20.2048H98.2786L97.5632 21.437C97.292 21.8889 96.8421 22.6675 96.4027 23.428ZM113.515 28.4989C113.356 28.5652 113.33 29.1349 113.343 32.1425L113.37 35.7066C116.814 35.7066 118.166 35.6403 118.603 35.5608C119.04 35.4813 119.676 35.2826 119.994 35.1104C120.326 34.9381 120.75 34.6334 120.948 34.4214C121.147 34.2227 121.425 33.7854 121.584 33.4542C121.743 33.0832 121.849 32.5797 121.849 32.1293C121.849 31.6788 121.73 31.1223 121.558 30.6718C121.333 30.1551 121.094 29.8371 120.657 29.5059C120.339 29.2674 119.676 28.9362 119.199 28.7904C118.524 28.5917 117.848 28.5254 116.02 28.4724C114.748 28.4459 113.621 28.4592 113.515 28.4989ZM98.0666 36.2763C97.8546 36.3691 97.4969 36.528 97.2717 36.6473C97.0597 36.7665 96.649 37.1243 96.3707 37.4423C96.1057 37.7602 95.7612 38.3432 95.6155 38.7274C95.4565 39.1514 95.3505 39.7476 95.3505 40.2776C95.3505 40.8341 95.4565 41.4038 95.642 41.9073C95.8407 42.424 96.1455 42.8745 96.6092 43.325C97.0332 43.749 97.5234 44.0669 97.9341 44.2259C98.3051 44.3452 98.9808 44.4512 99.4578 44.4512C99.9348 44.4512 100.597 44.3717 100.915 44.2524C101.246 44.1464 101.803 43.8019 102.161 43.4972C102.518 43.1792 102.969 42.636 103.154 42.265C103.459 41.682 103.499 41.4436 103.499 40.2776C103.499 39.1647 103.459 38.8599 103.207 38.3962C103.035 38.0782 102.704 37.6012 102.465 37.3363C102.214 37.058 101.723 36.687 101.366 36.5015C100.849 36.2366 100.491 36.1703 99.5903 36.1438C98.9411 36.1306 98.3051 36.1836 98.0666 36.2763Z" fill="#182A64"/>
<path fill-rule="evenodd" clip-rule="evenodd" d="M168.341 24.3386C167.586 25.6768 166.937 26.856 166.924 26.962C166.897 27.0812 167.48 28.2074 168.222 29.4926C168.964 30.7645 169.64 31.8775 169.719 31.9835C169.838 32.116 170.541 32.1425 172.899 32.116L175.933 32.0762L176.017 31.9234C177.584 29.056 178.189 27.9502 178.371 27.6377L178.716 27.0415L175.96 22.0067L169.732 21.9272L168.341 24.3386ZM168.792 25.8756C168.951 25.6106 169.156 25.2628 169.361 24.915L169.364 24.9101C169.569 24.5639 169.773 24.2181 169.931 23.9544L170.488 23.0004H172.767C174.025 23.0004 175.112 23.0402 175.178 23.0932C175.257 23.1462 175.787 24.0604 177.404 27.0415L177.046 27.704C176.891 27.9654 176.595 28.5026 176.012 29.5588C175.798 29.948 175.544 30.4077 175.244 30.9501H170.408L169.348 29.1217C168.765 28.1279 168.275 27.2005 168.262 27.068C168.235 26.9355 168.487 26.4055 168.792 25.8756Z" fill="#182A64"/>
<path fill-rule="evenodd" clip-rule="evenodd" d="M74.0455 34.2756C74.0985 33.9311 74.1383 31.7317 74.1383 29.3866V25.107H77.5831L77.5169 47.2997L74.2708 47.366V46.6108C74.2708 46.1868 74.231 45.7761 74.178 45.6833C74.0985 45.5641 73.966 45.6303 73.6746 45.9218C73.4626 46.147 73.0386 46.5048 72.7471 46.7035C72.4556 46.9155 71.8329 47.207 71.3559 47.366C70.614 47.6177 70.2827 47.6575 69.0373 47.6045C68.0436 47.5647 67.3546 47.472 66.8511 47.2865C66.4537 47.1407 65.7514 46.7565 65.2877 46.4385C64.824 46.1073 64.2145 45.5508 63.9363 45.1798C63.658 44.8221 63.3003 44.2524 63.1413 43.9211C62.9823 43.6032 62.7306 42.7949 62.5981 42.1325C62.4656 41.4833 62.3463 40.6618 62.3463 40.3173C62.3463 39.9728 62.4391 39.2176 62.5583 38.6611C62.6643 38.0914 62.9691 37.1905 63.2341 36.634C63.5653 35.945 63.9495 35.4018 64.5192 34.8321C64.9697 34.3948 65.6454 33.8649 66.0297 33.6794C66.4139 33.4806 67.0631 33.2422 67.4871 33.1229C67.8978 33.0169 68.6928 32.9242 69.236 32.9242C69.7792 32.9242 70.5875 33.0169 71.0247 33.1362C71.4619 33.2422 72.0846 33.4939 72.4159 33.6926C72.7471 33.8914 73.2241 34.2359 73.9395 34.8983L74.0455 34.2756ZM67.0101 37.376C67.2619 37.0845 67.8183 36.687 68.2556 36.475C68.971 36.1306 69.1698 36.0908 70.1767 36.1306C71.0512 36.1571 71.4487 36.2366 71.8991 36.475C72.2304 36.6473 72.6941 36.9785 72.9458 37.2038C73.1843 37.4423 73.5421 37.9325 73.7276 38.2902C73.9925 38.8069 74.0853 39.2044 74.125 40.0789C74.1913 41.1123 74.1648 41.2846 73.807 42.053C73.5818 42.5698 73.2108 43.0997 72.8663 43.4045C72.5484 43.6959 72.0184 44.0404 71.6739 44.1994C71.2367 44.3849 70.7597 44.4644 70.1105 44.4644C69.554 44.4644 68.9313 44.3717 68.5338 44.2259C68.1761 44.0934 67.6196 43.749 67.3016 43.4575C66.9704 43.166 66.5464 42.5963 66.3609 42.1988C66.0562 41.5761 66.0032 41.2978 66.0164 40.2776C66.0164 39.3634 66.0827 38.9394 66.2947 38.489C66.4404 38.1577 66.7584 37.6542 67.0101 37.376Z" fill="#182A64"/>
<path fill-rule="evenodd" clip-rule="evenodd" d="M190.295 25.2793C190.256 25.372 190.229 27.5979 190.216 30.2213C190.216 32.2785 190.208 34.1401 190.204 34.9437L190.203 35.2197C190.203 35.2844 190.203 35.3281 190.203 35.3488V35.7198C189.262 34.8453 188.719 34.4346 188.374 34.2226C188.03 34.0239 187.367 33.7324 186.89 33.5734C186.215 33.3482 185.738 33.2819 184.704 33.2952C183.684 33.3084 183.167 33.3746 182.452 33.6264C181.948 33.7986 181.259 34.0901 180.928 34.2889C180.597 34.4743 179.987 34.9778 179.563 35.4018C179.153 35.8258 178.623 36.5147 178.411 36.9122C178.199 37.3097 177.934 37.9987 177.828 38.4359C177.709 38.8996 177.616 39.7608 177.616 40.4896C177.616 41.1785 177.682 42.0132 177.762 42.3445C177.841 42.6757 178.08 43.3249 178.305 43.8019C178.583 44.3849 179.02 44.9678 179.656 45.6038C180.226 46.1735 180.888 46.677 181.326 46.889C181.723 47.0745 182.439 47.3262 182.916 47.4455C183.565 47.6177 184.135 47.6575 185.168 47.6177C186.241 47.5647 186.745 47.472 187.354 47.2202C187.791 47.048 188.361 46.7565 188.626 46.571C188.891 46.3988 189.355 46.0278 189.66 45.7496L190.203 45.2593C190.229 45.9218 190.256 46.2133 190.269 46.3193C190.282 46.4253 190.309 46.7035 190.322 46.942L190.335 47.3792L192.124 47.313V25.1865C190.627 25.1203 190.348 25.16 190.295 25.2793ZM182.306 35.6138C182.545 35.4946 182.969 35.3224 183.26 35.2164C183.605 35.1104 184.267 35.0574 185.115 35.0839C186.228 35.1236 186.572 35.1899 187.208 35.4813C187.619 35.6801 188.295 36.1571 188.706 36.5413C189.183 36.9785 189.593 37.535 189.858 38.0915C190.256 38.8997 190.282 39.0454 190.282 40.4234C190.282 41.841 190.269 41.9073 189.805 42.8745C189.487 43.5105 189.09 44.0669 188.679 44.4512C188.321 44.7692 187.646 45.2196 187.169 45.4449C186.387 45.8026 186.201 45.8424 184.916 45.8424C183.565 45.8424 183.472 45.8291 182.492 45.3521C181.789 44.9944 181.339 44.6764 181.034 44.2922C180.782 43.9742 180.451 43.4575 180.279 43.1262C180.12 42.795 179.895 42.1193 179.789 41.6026C179.669 40.9931 179.63 40.3969 179.696 39.8801C179.749 39.4429 179.895 38.7937 180.014 38.4227C180.146 38.065 180.398 37.5217 180.57 37.2303C180.756 36.9388 181.127 36.5015 181.392 36.2763C181.657 36.0378 182.068 35.7331 182.306 35.6138Z" fill="#182A64"/>
<path d="M26.3081 36.9785C26.3081 31.48 26.3478 26.8825 26.3876 26.7765C26.4538 26.6175 26.7851 26.5777 30.0179 26.5777V30.4863C30.0179 32.6327 30.0444 34.4876 30.0841 34.5936C30.1371 34.7658 30.8129 34.7923 39.8224 34.7923V26.5777H43.5322L43.466 47.313H39.8887L39.8489 42.8082C39.8224 39.4429 39.7694 38.2769 39.6502 38.1974C39.5707 38.1444 37.4508 38.1047 34.9599 38.1047C31.1043 38.1047 30.3889 38.1312 30.2166 38.3034C30.0444 38.4757 30.0179 39.1646 30.0179 47.3792H28.2292C26.7586 47.3792 26.4273 47.3395 26.3743 47.1805C26.3346 47.0745 26.3081 42.477 26.3081 36.9785Z" fill="#182A64"/>
<path d="M162.843 33.5336L160.06 33.6661L159.994 35.3223C162.512 35.3223 162.657 35.3488 162.777 35.5873C162.856 35.7463 162.909 37.6409 162.909 40.4233C162.909 44.6631 162.936 45.0473 163.174 45.7231C163.36 46.2398 163.598 46.5843 164.009 46.9155C164.313 47.1805 164.777 47.4455 165.029 47.5117C165.281 47.578 165.943 47.6442 166.486 47.6442C167.03 47.6442 167.798 47.5515 168.182 47.4455L168.871 47.2467C168.871 46.2663 168.818 45.8953 168.752 45.7893C168.646 45.6171 168.527 45.6171 167.851 45.7761C167.414 45.882 166.804 45.9218 166.42 45.8688C166.062 45.8291 165.652 45.6966 165.506 45.5641C165.373 45.4316 165.161 45.1136 165.042 44.8618C164.87 44.4776 164.83 43.6959 164.79 40.1583C164.764 37.8264 164.777 35.786 164.817 35.6138C164.896 35.3223 164.936 35.3223 166.818 35.3223H168.739L168.673 33.6661L164.83 33.5336L164.764 29.7576H162.922L162.843 33.5336Z" fill="#182A64"/>
<path d="M86.7914 33.6264C87.0034 33.4806 87.4539 33.2687 87.7851 33.1627C88.1164 33.0434 88.7391 32.9507 89.1763 32.9374C89.6135 32.9374 90.1038 32.9639 90.2628 33.0037C90.5543 33.0567 90.5675 33.1097 90.5675 36.3028H89.0703C87.8116 36.3028 87.5069 36.3558 87.0564 36.5942C86.7649 36.74 86.3144 37.0977 86.076 37.3892C85.8242 37.6674 85.5195 38.1047 85.4135 38.3564C85.2413 38.7406 85.1883 39.5886 85.069 47.2997H81.6242V33.2554L83.2141 33.2289C84.3403 33.2024 84.857 33.2422 84.9763 33.3614C85.0823 33.4674 85.1485 33.8516 85.1353 35.2428L85.758 34.5671C86.1157 34.1961 86.5662 33.7721 86.7914 33.6264Z" fill="#182A64"/>
<path d="M46.0496 33.3614C46.0496 33.4541 46.1556 33.7986 46.3014 34.1166C46.4339 34.4478 47.1228 36.0908 47.8383 37.7602C48.276 38.8089 48.7651 39.9658 49.1453 40.865C49.3751 41.4085 49.5651 41.8579 49.68 42.1325C49.8629 42.5517 50.1466 43.2252 50.443 43.9285C50.6618 44.4478 50.8874 44.9833 51.0844 45.4448L51.9191 47.4322C51.5216 48.5319 51.2036 49.2474 50.9519 49.7376C50.5677 50.4531 50.3822 50.6651 49.8919 50.9168C49.5077 51.1155 49.0572 51.2083 48.6333 51.2083C48.2623 51.2083 47.7323 51.1553 47.4408 51.0891C47.1493 51.0228 46.8446 51.0096 46.7783 51.0758C46.6988 51.142 46.5664 51.8045 46.4736 52.5597C46.3676 53.3149 46.3411 53.9774 46.4074 54.0304C46.4604 54.0834 47.0433 54.2027 47.7058 54.2822C48.6333 54.4014 49.15 54.4014 50.0244 54.2822C50.7664 54.1762 51.3626 54.0039 51.7999 53.7654C52.1443 53.5667 52.6478 53.1692 52.8863 52.9042C53.138 52.626 53.5488 51.99 53.8005 51.4733C54.0522 50.9698 54.5027 49.9364 54.781 49.1944C54.9438 48.7724 55.1853 48.1561 55.4314 47.5279C55.6257 47.0317 55.8229 46.5282 55.9867 46.1073C56.2087 45.5444 56.6157 44.4975 57.063 43.3471C57.3631 42.5751 57.6814 41.7565 57.9741 41.0063C58.3318 40.0788 58.7491 39.0057 59.1317 38.0219L59.1323 38.0203C59.5147 37.0372 59.8622 36.1435 60.0807 35.574C60.5312 34.4478 60.8889 33.4541 60.8889 33.3614C60.8889 33.2422 60.4649 33.1892 59.193 33.1892C57.9741 33.1892 57.4706 33.2289 57.3513 33.3482C57.2718 33.4541 56.4769 35.5475 55.5892 38.0252C54.7015 40.5028 53.9198 42.5962 53.8535 42.6625C53.7873 42.7419 53.7078 42.7684 53.668 42.7287C53.6283 42.7022 52.7538 40.5558 51.7071 37.9589L49.8124 33.2554C46.4869 33.1892 46.0496 33.2289 46.0496 33.3614Z" fill="#182A64"/>
<path fill-rule="evenodd" clip-rule="evenodd" d="M131.111 33.7059C131.508 33.5469 132.131 33.3879 132.502 33.3217C132.859 33.2687 133.615 33.2554 134.158 33.2952C134.701 33.3349 135.483 33.4806 135.88 33.6131C136.278 33.7589 136.848 34.0106 137.139 34.1829C137.431 34.3551 137.947 34.7791 138.305 35.1368C138.649 35.4945 139.126 36.1703 139.378 36.634C139.617 37.111 139.882 37.7999 139.961 38.1577C140.054 38.5287 140.133 39.2971 140.186 40.94L128.792 41.0725L128.832 41.47C128.858 41.6953 128.991 42.1987 129.136 42.5962C129.282 43.0069 129.6 43.6032 129.839 43.9211C130.077 44.2524 130.634 44.7559 131.058 45.0473C131.482 45.3256 132.171 45.6436 132.568 45.7496C133.054 45.882 133.628 45.9218 134.29 45.8688C135.019 45.8158 135.496 45.6833 136.079 45.4051C136.516 45.1798 137.179 44.6896 137.55 44.3054C138.186 43.6429 138.252 43.6032 138.49 43.7887C138.636 43.9079 138.941 44.1596 139.166 44.3584C139.405 44.5571 139.59 44.7691 139.59 44.8221C139.59 44.8751 139.219 45.2858 138.769 45.7231C138.265 46.2133 137.589 46.6903 137.073 46.942C136.596 47.1672 135.947 47.419 135.615 47.4852C135.284 47.5647 134.476 47.631 133.827 47.631C133.164 47.631 132.369 47.5647 132.038 47.4985C131.707 47.419 131.005 47.1407 130.461 46.8625C129.759 46.518 129.242 46.1338 128.659 45.5111C128.222 45.0473 127.692 44.3319 127.507 43.9211C127.308 43.5237 127.056 42.8347 126.95 42.3975C126.831 41.9602 126.738 41.1123 126.738 40.5161C126.738 39.9066 126.805 39.1116 126.884 38.7274C126.964 38.3432 127.175 37.7072 127.361 37.2965C127.533 36.899 127.917 36.263 128.196 35.8788C128.487 35.4945 129.097 34.9116 129.547 34.5803C130.011 34.2491 130.713 33.8516 131.111 33.7059ZM130.793 35.9186C131.018 35.7728 131.521 35.5078 131.919 35.3356C132.555 35.0839 132.833 35.0441 133.906 35.0839C134.94 35.1236 135.284 35.1899 135.827 35.4681C136.198 35.6536 136.728 36.0643 137.02 36.3823C137.298 36.7003 137.616 37.1773 137.722 37.429C137.828 37.6807 137.96 38.1577 138.013 38.489C138.08 38.8202 138.093 39.1647 138.066 39.2574C138.027 39.3767 136.993 39.4164 128.871 39.4164V38.9924C128.871 38.7539 129.017 38.2637 129.189 37.8927C129.348 37.535 129.693 37.005 129.945 36.7135C130.196 36.4353 130.581 36.0776 130.793 35.9186Z" fill="#182A64"/>
<path fill-rule="evenodd" clip-rule="evenodd" d="M150.057 33.3217C149.726 33.3746 149.156 33.5204 148.798 33.6396C148.427 33.7589 147.844 34.0371 147.5 34.2491C147.156 34.4743 146.639 34.8586 146.347 35.1103C145.99 35.4151 145.791 35.521 145.751 35.4151C145.725 35.3223 145.672 34.8851 145.658 34.4478L145.619 33.6529H143.764V55.7793H145.619C145.672 47.3792 145.738 45.5376 145.831 45.4448C145.919 45.3565 146.003 45.3918 146.082 45.5508C146.162 45.6701 146.586 46.041 147.036 46.3723C147.5 46.6903 148.321 47.101 148.891 47.2997C149.713 47.5647 150.176 47.631 151.144 47.631C151.819 47.631 152.667 47.5515 153.038 47.4587C153.396 47.366 154.111 47.0745 154.615 46.836C155.158 46.571 155.847 46.0675 156.271 45.6436C156.682 45.2461 157.185 44.6234 157.384 44.2524C157.596 43.8946 157.874 43.2322 158.02 42.7949C158.166 42.3577 158.311 41.523 158.351 40.94C158.404 40.2246 158.365 39.5621 158.219 38.8864C158.1 38.3432 157.821 37.5084 157.583 37.0315C157.331 36.5147 156.841 35.8523 156.364 35.3621C155.913 34.9248 155.198 34.3816 154.761 34.1564C154.323 33.9311 153.634 33.6529 153.237 33.5469C152.84 33.4276 152.084 33.3084 151.581 33.2687C151.064 33.2422 150.388 33.2554 150.057 33.3217ZM149.209 35.3091C148.772 35.4681 148.123 35.8126 147.752 36.0776C147.394 36.3558 146.851 36.9255 146.559 37.3628C146.228 37.853 145.937 38.5022 145.791 39.0587C145.672 39.5489 145.566 40.1849 145.566 40.4764C145.566 40.7678 145.672 41.4038 145.791 41.9073C145.937 42.4505 146.228 43.0997 146.559 43.59C146.904 44.0934 147.394 44.5704 147.924 44.9414C148.374 45.2594 148.971 45.5774 149.249 45.6436C149.514 45.7231 150.163 45.8291 150.667 45.8688C151.236 45.9218 151.886 45.8821 152.323 45.7761C152.734 45.6834 153.343 45.4581 153.701 45.2594C154.058 45.0739 154.588 44.6499 154.893 44.3187C155.185 43.9874 155.569 43.3912 155.754 42.9937C155.927 42.5963 156.139 41.8543 156.218 41.3376C156.311 40.6751 156.311 40.1451 156.192 39.4562C156.112 38.9262 155.86 38.1445 155.648 37.7337C155.436 37.3098 155.012 36.7135 154.694 36.4088C154.376 36.1041 153.754 35.6801 153.316 35.4813C152.654 35.1766 152.323 35.1104 151.263 35.0839C150.282 35.0574 149.832 35.0971 149.209 35.3091Z" fill="#182A64"/>
<path fill-rule="evenodd" clip-rule="evenodd" d="M200.206 33.6794C200.564 33.5469 201.16 33.3746 201.531 33.3217C201.889 33.2687 202.644 33.2422 203.187 33.2819C203.73 33.3216 204.512 33.4674 204.91 33.6131C205.307 33.7589 205.877 34.0106 206.168 34.1829C206.46 34.3551 206.91 34.6996 207.175 34.9381C207.427 35.1766 207.851 35.7065 208.116 36.104C208.368 36.5147 208.672 37.111 208.792 37.429C208.898 37.7602 209.057 38.4227 209.149 38.8864C209.229 39.3634 209.282 40.0258 209.216 40.94L197.821 41.0063L197.901 41.6423C197.954 41.9867 198.166 42.6227 198.391 43.0599C198.616 43.4972 199.053 44.1199 199.371 44.4379C199.676 44.7559 200.299 45.2063 200.736 45.4316C201.465 45.8026 201.637 45.8423 202.856 45.8423C204.062 45.8423 204.26 45.8158 205.042 45.4448C205.532 45.2063 206.195 44.7426 206.592 44.3451C207.016 43.9344 207.361 43.6959 207.453 43.7489C207.546 43.8019 207.851 44.0271 208.116 44.2524C208.394 44.4776 208.619 44.7161 208.619 44.7824C208.619 44.8618 208.288 45.2726 207.864 45.6966C207.361 46.1868 206.764 46.624 206.168 46.9155C205.651 47.154 204.976 47.419 204.645 47.4985C204.313 47.5647 203.505 47.631 202.856 47.631C202.193 47.631 201.398 47.5647 201.067 47.4852C200.736 47.419 200.1 47.1805 199.636 46.9685C199.186 46.7433 198.457 46.2398 198.007 45.8158C197.556 45.3918 197 44.7294 196.761 44.3186C196.509 43.9211 196.191 43.1527 196.046 42.5962C195.86 41.9602 195.767 41.2183 195.767 40.4763C195.767 39.8668 195.86 38.9924 195.966 38.5552C196.085 38.1179 196.311 37.4687 196.483 37.0977C196.655 36.74 197.066 36.1173 197.384 35.7065C197.715 35.3091 198.325 34.7526 198.762 34.4611C199.186 34.1696 199.835 33.8251 200.206 33.6794ZM200.882 35.3754C200.444 35.5608 199.822 35.9318 199.504 36.2101C199.173 36.475 198.749 36.9653 198.537 37.2965C198.338 37.6277 198.099 38.1047 198.033 38.3565C197.967 38.6082 197.901 38.9527 197.901 39.1249V39.4164C205.877 39.4297 206.884 39.3899 207.003 39.2574C207.109 39.1382 207.122 38.8732 207.056 38.4227C206.99 38.065 206.857 37.5615 206.738 37.3363C206.619 37.0978 206.287 36.6473 206.022 36.3558C205.744 36.0511 205.227 35.6536 204.857 35.4681C204.313 35.1899 203.969 35.1236 202.935 35.0839C201.822 35.0441 201.597 35.0706 200.882 35.3754Z" fill="#182A64"/>
<path d="M171.985 33.6794C171.919 33.7324 171.879 36.8195 171.892 40.5691L171.919 47.366H173.774L173.707 33.6529C172.462 33.5999 172.051 33.6264 171.985 33.6794Z" fill="#182A64"/>
</svg>
