<svg width="236" height="63" viewBox="0 0 236 63" fill="none" xmlns="http://www.w3.org/2000/svg">
<path d="M18.0711 10.4986L18.0355 10.1671L18 9.84747H30.45L30.6158 10.1789C30.7106 10.3565 31.8478 13.0319 33.1508 16.1217C34.4538 19.2115 37.4508 26.3262 39.8082 31.9257C42.1655 37.5252 44.1319 42.1421 44.1674 42.2013C44.2148 42.2486 44.8189 40.7333 45.5178 38.8274C46.2167 36.9214 48.3608 30.9668 50.2917 25.5923C52.2226 20.2177 54.2956 14.4762 55.9777 9.83564L67.172 9.84747V10.4986L65.7268 10.6406C64.9213 10.7235 64.0684 10.8419 63.8196 10.9129C63.5827 10.9721 63.2036 11.1852 62.6114 11.7179L62.5758 31.026C62.5521 47.9665 62.5758 50.3814 62.7298 50.7484C62.8601 51.0444 63.0496 51.2338 63.405 51.3877C63.6893 51.5179 64.3408 51.6718 64.8621 51.7428C65.3833 51.8139 66.1177 51.8967 66.4849 51.9322C67.1246 51.9914 67.172 52.0151 67.172 52.5833H50.7063V52.2874C50.7063 52.0151 50.7537 51.9914 51.3815 51.9322C51.7606 51.8967 52.5187 51.8139 53.0755 51.7428C53.6322 51.6718 54.2601 51.5297 54.4851 51.4232C54.7102 51.3167 55.0063 51.0681 55.1366 50.8905C55.3736 50.5709 55.3854 50.3696 55.4565 44.9714C55.5039 41.8935 55.5631 33.5357 55.6105 26.3973C55.6697 16.0152 55.646 13.4108 55.5276 13.4581C55.4565 13.4936 53.9521 17.5897 52.1989 22.5499C50.4457 27.5101 48.7281 32.34 48.3964 33.2871C48.0528 34.2341 46.347 39.0405 44.5939 43.977C41.8456 51.7073 41.3718 52.9503 41.1941 52.9148C41.0283 52.8911 40.6966 52.2282 39.9385 50.3933C39.3699 49.0319 37.9839 45.729 36.8704 43.0536C35.8192 40.5655 32.8867 33.5632 30.1489 27.0259L29.5734 25.6515C26.683 18.7498 24.2664 13.0911 24.1835 13.0793C24.0888 13.0556 24.0532 17.7317 24.0532 31.2509C24.0651 41.7988 24.1124 49.6712 24.1717 49.9789C24.2427 50.2986 24.4086 50.6419 24.61 50.8431C24.7877 51.0207 25.1786 51.2456 25.4747 51.3403C25.7709 51.435 26.4579 51.5653 27.0147 51.6363C27.5714 51.6955 28.8982 51.8139 29.9761 51.8731C31.0541 51.9322 32.0018 51.9914 32.0728 51.9914C32.1558 51.9914 32.2268 52.1217 32.2268 52.5833H18.0118V52.2874C18.0118 52.1217 18.0474 51.9914 18.0948 51.9914C18.154 51.9914 18.8055 51.9322 19.5518 51.8731C20.2981 51.8139 21.2339 51.7073 21.6248 51.6363C22.0157 51.5653 22.5133 51.3995 22.7146 51.2811C22.9279 51.1509 23.1885 50.855 23.2832 50.63C23.4372 50.2631 23.4609 47.8599 23.4609 31.3693C23.4609 20.9991 23.4254 12.3335 23.378 12.1086C23.3188 11.8836 23.1648 11.5759 23.0226 11.422C22.8686 11.2799 22.4659 11.0668 22.1342 10.9721C21.7907 10.8774 20.7364 10.7235 18.0711 10.4986Z" fill="#182A64"/>
<path fill-rule="evenodd" clip-rule="evenodd" d="M128.947 8.01223L129.006 28.9064C129.065 48.5575 129.077 49.836 129.278 50.132C129.385 50.3095 129.728 50.57 130.048 50.7002C130.415 50.8659 131.055 50.9962 131.967 51.0672C132.713 51.1382 133.401 51.2092 133.483 51.2329C133.555 51.2566 133.626 51.4105 133.626 51.5762C133.626 51.813 133.555 51.884 133.235 51.9314C133.033 51.9669 130.937 52.2273 128.591 52.5233C126.246 52.8192 124.137 53.1152 123.912 53.1862C123.687 53.2572 123.308 53.2927 122.668 53.2335L122.597 51.6946C122.55 50.8541 122.514 49.8479 122.502 49.4691C122.502 49.1021 122.455 48.7943 122.408 48.7943C122.349 48.7943 121.91 49.1849 121.425 49.6585C120.939 50.132 120.193 50.7594 119.766 51.0435C119.34 51.3276 118.593 51.7538 118.108 52.0024C117.622 52.2392 116.959 52.5233 116.627 52.6298C116.307 52.7363 115.668 52.9139 115.206 53.0205C114.673 53.1507 113.891 53.2217 113.014 53.2217C112.055 53.2217 111.332 53.1507 110.586 52.9731C109.993 52.8429 109.093 52.5588 108.572 52.3575C108.051 52.1444 107.198 51.6946 106.677 51.3395C106.155 50.9962 105.326 50.2977 104.841 49.7887C104.355 49.2678 103.703 48.4865 103.395 48.0248C103.087 47.5631 102.637 46.7463 102.377 46.1899C102.116 45.6335 101.773 44.7575 101.607 44.2366C101.441 43.7158 101.204 42.7806 101.074 42.165C100.943 41.5494 100.766 40.4011 100.683 39.6198C100.6 38.7911 100.576 37.5363 100.612 36.6011C100.647 35.7251 100.766 34.5531 100.86 33.9967C100.955 33.4403 101.18 32.5051 101.346 31.9251C101.512 31.345 101.938 30.2796 102.282 29.5575C102.625 28.8353 103.182 27.8883 103.502 27.4266C103.822 26.9649 104.402 26.2547 104.793 25.8403C105.172 25.426 105.942 24.7394 106.499 24.3251C107.056 23.9107 108.098 23.2715 108.809 22.9282C109.52 22.573 110.621 22.1469 111.237 21.993C111.853 21.8272 112.813 21.6378 113.369 21.5668C113.926 21.5076 114.673 21.4484 115.028 21.4484C115.383 21.4484 116.189 21.5313 116.805 21.626C117.421 21.7088 118.357 21.9338 118.878 22.1113C119.399 22.2771 120.169 22.6085 120.595 22.8216C121.022 23.0347 121.543 23.3188 122.135 23.6976V17.7194C122.135 12.6646 122.112 11.682 121.958 11.3269C121.863 11.102 121.638 10.8178 121.46 10.7113C121.271 10.5929 120.832 10.439 120.477 10.3562C120.122 10.2733 119.304 10.1668 117.515 10.0247V9.69323C117.515 9.51566 117.539 9.37361 117.575 9.37361C117.61 9.37361 119.837 9.11317 122.526 8.78171C125.203 8.46208 127.537 8.14245 127.703 8.08326C127.869 8.02407 128.212 7.97672 128.947 8.01223ZM112.955 22.8453C112.635 23.0229 111.984 23.5319 111.522 23.9936C111.06 24.4434 110.467 25.1892 110.195 25.6509C109.934 26.1126 109.555 26.8821 109.354 27.3674C109.164 27.8528 108.868 28.7643 108.702 29.3799C108.525 29.9955 108.276 31.2503 108.134 32.1618C107.932 33.5232 107.885 34.3519 107.873 36.8379C107.873 39.4304 107.909 40.0696 108.134 41.3718C108.276 42.2005 108.56 43.3961 108.762 44.0236C108.963 44.6628 109.318 45.5507 109.543 46.0123C109.78 46.474 110.195 47.1606 110.467 47.5513C110.752 47.9419 111.237 48.5102 111.557 48.818C111.865 49.1257 112.446 49.5638 112.836 49.8005C113.227 50.0373 113.891 50.3332 114.317 50.4634C114.85 50.6292 115.407 50.7002 116.153 50.7002C116.746 50.7002 117.539 50.6173 117.93 50.5226C118.321 50.4161 119.115 50.0965 119.707 49.8005C120.299 49.5046 121.081 49.031 121.46 48.7351L122.135 48.2024C122.135 29.0958 122.123 28.5512 121.898 27.4858C121.768 26.8702 121.496 26.0179 121.294 25.5917C121.093 25.1656 120.737 24.5618 120.489 24.2303C120.252 23.9107 119.707 23.4135 119.28 23.1294C118.866 22.8453 118.179 22.5138 117.752 22.3836C117.219 22.2297 116.663 22.1587 115.916 22.1587C115.324 22.1705 114.554 22.2534 114.199 22.3481C113.843 22.4428 113.275 22.6677 112.955 22.8453Z" fill="#182A64"/>
<path d="M135.935 22.7978L141.266 22.1348C144.204 21.7797 146.798 21.4719 147.485 21.4482L147.509 36.0329C147.544 48.7708 147.568 50.6649 147.722 50.9017C147.817 51.0437 148.113 51.2687 148.374 51.3989C148.634 51.5173 149.298 51.6712 149.854 51.7422C150.411 51.8132 151.169 51.8961 151.536 51.9316C152.176 51.9908 152.223 52.0145 152.223 52.5827H135.995V52.2867C135.995 52.0145 136.042 51.9908 136.67 51.9316C137.049 51.8961 137.783 51.8132 138.305 51.7422C138.826 51.6712 139.477 51.5173 139.75 51.387C140.117 51.2331 140.307 51.0437 140.437 50.7478C140.591 50.3926 140.615 48.6642 140.615 37.7257C140.615 25.9586 140.603 25.0944 140.401 24.6919C140.283 24.4196 140.034 24.171 139.75 24.0408C139.513 23.9105 138.98 23.7685 138.565 23.7093C138.162 23.6501 137.416 23.5672 136.919 23.5317C136.007 23.4607 135.995 23.4489 135.935 22.7978Z" fill="#182A64"/>
<path d="M141.681 10.6876C141.977 10.5574 142.534 10.3917 142.925 10.3325C143.316 10.2851 143.659 10.2259 143.695 10.2259C143.73 10.2141 144.157 10.2614 144.642 10.3325C145.152 10.3917 145.792 10.5811 146.123 10.7468C146.443 10.9126 146.941 11.2677 147.225 11.54C147.498 11.8123 147.841 12.3096 147.983 12.6292C148.196 13.0909 148.256 13.4461 148.256 14.2275C148.256 15.0681 148.208 15.3404 147.948 15.885C147.782 16.2401 147.426 16.7374 147.178 16.986C146.917 17.2346 146.419 17.5779 146.064 17.7555C145.46 18.0515 145.306 18.0752 143.872 18.0752C142.463 18.0752 142.273 18.0515 141.681 17.7674C141.325 17.6016 140.84 17.3056 140.615 17.1044C140.39 16.9031 140.046 16.4532 139.845 16.1099C139.513 15.5179 139.489 15.3877 139.489 14.2275C139.489 13.0673 139.513 12.937 139.845 12.3451C140.046 11.9899 140.413 11.5282 140.674 11.3151C140.934 11.102 141.385 10.8179 141.681 10.6876Z" fill="#182A64"/>
<path d="M159.864 8.72252C162.268 8.42656 164.401 8.14245 164.602 8.08326C164.803 8.02407 165.147 7.97672 165.786 8.01223L165.846 36.5419L167.528 36.4472C168.464 36.3999 169.565 36.2933 169.992 36.1986C170.418 36.1157 170.999 35.9145 171.295 35.7724C171.591 35.6185 172.171 35.1805 172.586 34.778C173 34.3756 174.493 32.6472 175.891 30.9188C177.3 29.1905 178.603 27.545 178.781 27.249C178.959 26.9531 179.172 26.4796 179.243 26.1836C179.326 25.864 179.35 25.4615 179.302 25.1774C179.231 24.8459 179.065 24.5618 178.722 24.2185C178.426 23.9462 177.928 23.6384 177.514 23.4727C177.123 23.3188 176.459 23.1294 176.033 23.0347C175.607 22.9518 174.837 22.8335 174.315 22.7861C173.403 22.6914 173.368 22.6796 173.368 22.0995L186.931 22.0403V22.3718C186.931 22.6796 186.895 22.7032 185.9 22.9045C185.32 23.0229 184.432 23.307 183.91 23.5319C183.389 23.7568 182.678 24.1712 182.323 24.4434C181.968 24.7157 181.387 25.3076 181.02 25.7575C180.653 26.2073 178.994 28.2079 177.336 30.1967C175.666 32.1855 174.268 33.8665 174.221 33.9375C174.173 34.0086 176.756 37.6192 179.942 41.9874C183.129 46.3556 186.019 50.2267 186.362 50.6173C186.706 50.9962 187.227 51.4342 187.523 51.5762C187.819 51.7301 188.281 51.9077 188.554 51.9787C188.945 52.0734 189.063 52.1681 189.063 52.3457C189.063 52.5825 188.98 52.5825 178.994 52.5825L174.469 45.8703C171.271 41.1351 169.707 38.9214 169.162 38.365C168.582 37.7731 168.227 37.5126 167.741 37.3351C167.386 37.2048 166.805 37.0746 165.846 36.9562L165.869 43.7513L165.87 43.8021C165.905 50.4404 165.906 50.559 166.154 50.8896C166.284 51.0672 166.58 51.3039 166.805 51.4223C167.03 51.5289 167.658 51.6709 168.215 51.742C168.772 51.8011 169.53 51.8959 169.897 51.9314C170.537 51.9906 170.584 52.0142 170.584 52.5825H154.355V52.2865C154.355 52.0142 154.415 51.9906 154.912 51.9314C155.232 51.9077 155.824 51.8485 156.251 51.813C156.677 51.7656 157.317 51.6591 157.672 51.5644C158.028 51.4697 158.442 51.2803 158.596 51.1264C158.738 50.9843 158.916 50.6529 158.975 50.3924C159.046 50.0965 159.094 42.8042 159.094 31.0964C159.094 18.5244 159.046 12.0964 158.963 11.7412C158.892 11.4453 158.726 11.0901 158.584 10.9362C158.442 10.7942 158.11 10.5929 157.85 10.4864C157.589 10.3917 156.713 10.2496 154.415 10.0247L154.379 9.69323C154.355 9.39728 154.391 9.37361 154.912 9.31442C155.232 9.2789 157.459 9.01847 159.864 8.72252Z" fill="#182A64"/>
<path fill-rule="evenodd" clip-rule="evenodd" d="M204.462 12.3448C205.209 12.3448 206.381 12.4158 207.068 12.5223C207.755 12.6289 208.845 12.8893 209.497 13.1024C210.148 13.3155 211.025 13.6588 211.451 13.8719C211.878 14.085 212.541 14.4756 212.932 14.736C213.323 14.9965 213.986 15.5647 214.413 15.9909C214.839 16.417 215.384 17.0918 215.621 17.4825C215.858 17.8731 216.201 18.6189 216.379 19.1398C216.663 19.9448 216.711 20.2881 216.711 21.389C216.723 22.4189 216.663 22.8688 216.462 23.5199C216.32 23.9816 216 24.6918 215.751 25.1062C215.502 25.5205 215.029 26.1598 214.697 26.5267C214.365 26.8937 213.749 27.4619 213.335 27.8052C212.92 28.1367 212.091 28.6931 211.499 29.0482C210.918 29.3915 210.053 29.8414 209.58 30.0308C209.106 30.2202 208.727 30.4214 208.727 30.4806C208.727 30.528 209.295 30.8713 209.994 31.2501C210.693 31.6171 211.878 32.3274 212.636 32.8246C213.382 33.3218 214.448 34.1504 214.993 34.6595C215.562 35.204 216.261 36.0208 216.651 36.6009C217.019 37.1691 217.457 38.0215 217.635 38.5542C217.812 39.0751 218.026 39.9511 218.097 40.5075C218.168 41.0638 218.191 41.9399 218.144 42.4607C218.097 42.9816 217.966 43.8576 217.836 44.414C217.706 44.9704 217.398 45.8464 217.149 46.3673C216.9 46.8882 216.367 47.7287 215.964 48.2377C215.573 48.7349 214.815 49.4807 214.306 49.895C213.797 50.2975 212.896 50.8776 212.328 51.1854C211.747 51.4932 210.634 51.9548 209.852 52.2034C209.07 52.4639 207.874 52.7598 207.187 52.8664C206.5 52.9729 205.718 53.115 205.434 53.1742C205.161 53.2452 204.249 53.2925 203.396 53.2925C202.543 53.2925 201.631 53.2452 201.347 53.1742C201.074 53.115 200.316 52.9847 199.665 52.8782C199.013 52.7835 198.03 52.5586 197.473 52.3928C196.917 52.2153 196.064 51.8957 195.578 51.6707C195.092 51.4458 194.299 50.9841 193.813 50.6527C193.327 50.3094 192.581 49.6583 192.155 49.2084C191.645 48.652 191.195 48.0246 190.875 47.3735C190.591 46.8171 190.283 45.9648 190.176 45.4794C190.046 44.852 190.011 44.272 190.046 43.467C190.093 42.8277 190.224 41.9872 190.378 41.5137C190.52 41.052 190.769 40.4246 190.923 40.0931C191.089 39.7735 191.456 39.1579 191.728 38.7317C192.012 38.3056 192.652 37.5479 193.173 37.0271C193.683 36.518 194.571 35.7841 195.163 35.3934C195.756 35.0028 196.573 34.5056 196.999 34.2925C197.426 34.0912 198.101 33.7834 198.516 33.6296C198.918 33.4757 199.25 33.3218 199.25 33.2863C199.25 33.2507 198.705 32.9074 198.054 32.5168C197.39 32.1261 196.419 31.475 195.898 31.0844C195.365 30.6819 194.559 29.9834 194.109 29.5454C193.659 29.0956 193.102 28.4327 192.853 28.0775C192.617 27.7224 192.309 27.2133 192.166 26.9529C192.036 26.6925 191.799 26.1124 191.657 25.6507C191.408 24.9286 191.373 24.5971 191.373 23.1055C191.385 21.4837 191.396 21.3298 191.764 20.2999C191.977 19.6962 192.368 18.8202 192.64 18.3585C192.925 17.885 193.505 17.1273 193.931 16.6656C194.358 16.204 194.998 15.6002 195.353 15.3279C195.708 15.0557 196.419 14.594 196.94 14.2862C197.461 13.9902 198.291 13.5996 198.776 13.4102C199.262 13.2208 200.115 12.9603 200.672 12.8183C201.228 12.6881 201.998 12.5223 202.389 12.4631C202.78 12.404 203.716 12.3566 204.462 12.3448ZM202.626 13.3155C202.294 13.422 201.714 13.718 201.323 13.9666C200.932 14.2152 200.352 14.7124 200.044 15.0675C199.736 15.4227 199.262 16.1329 199.001 16.6538C198.741 17.1747 198.457 17.9797 198.362 18.4295C198.267 18.8794 198.184 19.708 198.184 20.2644C198.184 20.8208 198.267 21.5903 198.374 21.9809C198.468 22.3716 198.753 23.0582 198.99 23.5199C199.286 24.0999 199.736 24.6682 200.482 25.4258C201.122 26.0532 202.046 26.8227 202.745 27.2725C203.396 27.7105 204.841 28.5392 205.943 29.1193L207.957 30.1965C208.573 29.6993 209.094 29.1311 209.509 28.6102C209.923 28.0894 210.468 27.2962 210.705 26.8345C210.942 26.3728 211.262 25.6389 211.416 25.1772C211.57 24.7155 211.783 23.8987 211.878 23.3423C211.996 22.7149 212.067 21.7323 212.067 20.7379C212.067 19.5186 212.008 18.9149 211.818 18.1928C211.676 17.6719 211.404 16.9024 211.191 16.4762C210.954 15.979 210.539 15.4227 210.042 14.9255C209.532 14.4283 208.987 14.0139 208.49 13.7772C208.063 13.5759 207.4 13.3273 207.009 13.2208C206.618 13.1261 205.848 13.0195 205.291 12.9959C204.735 12.9603 204.048 12.984 203.752 13.0314C203.455 13.0906 202.946 13.2089 202.626 13.3155ZM198.267 35.0383C197.888 35.4171 197.343 36.0564 197.059 36.4825C196.774 36.9087 196.372 37.619 196.17 38.0807C195.969 38.5423 195.661 39.3947 195.495 39.9747C195.258 40.8271 195.187 41.4071 195.14 42.8751C195.092 44.0825 195.128 44.9941 195.223 45.5386C195.306 46.0003 195.519 46.7698 195.685 47.2551C195.862 47.7405 196.206 48.4508 196.443 48.8296C196.68 49.1966 197.082 49.7293 197.319 49.9897C197.568 50.262 198.006 50.6527 198.303 50.8657C198.599 51.0788 199.155 51.4221 199.546 51.6115C199.937 51.8128 200.66 52.0851 201.145 52.2153C201.643 52.3573 202.591 52.4994 203.278 52.5349C204.19 52.5823 204.758 52.5586 205.41 52.4165C205.896 52.3218 206.725 52.0259 207.246 51.7654C207.767 51.505 208.49 51.0315 208.845 50.7118C209.201 50.4041 209.745 49.7648 210.053 49.315C210.361 48.8651 210.788 48.0483 210.989 47.4919C211.356 46.5449 211.38 46.391 211.38 44.8875C211.392 43.538 211.356 43.171 211.131 42.5199C210.989 42.0938 210.646 41.4071 210.373 40.981C210.101 40.5548 209.473 39.809 208.975 39.3237C208.478 38.8383 207.507 38.057 206.831 37.5953C206.144 37.1336 204.972 36.3997 204.225 35.9853C203.479 35.5592 202.247 34.8844 201.501 34.4937C200.755 34.0912 200.079 33.7598 200.008 33.7598C199.937 33.7598 199.677 33.9018 199.416 34.0676C199.167 34.2333 198.646 34.6713 198.267 35.0383Z" fill="#182A64"/>
<path fill-rule="evenodd" clip-rule="evenodd" d="M85.414 21.5075C86.2314 21.5312 87.3212 21.6377 87.8424 21.7324C88.3637 21.839 89.1573 22.0402 89.6193 22.1941C90.0813 22.348 90.7684 22.644 91.1593 22.8334C91.5502 23.0346 92.2136 23.4608 92.6282 23.7686C93.0546 24.0882 93.6587 24.6683 93.9667 25.059C94.2866 25.4496 94.7249 26.1362 94.9499 26.5979C95.175 27.0596 95.4712 27.8528 95.6015 28.3737C95.7318 28.8945 95.8739 29.8298 95.9095 30.4453C95.9568 31.0609 95.9331 32.0198 95.8621 32.5762C95.791 33.1326 95.6725 33.8666 95.483 34.8255H76.2335L76.3164 36.8025C76.352 37.9034 76.506 39.4069 76.6363 40.1527C76.7666 40.8985 77.0272 41.9994 77.2167 42.5795C77.4063 43.1596 77.7616 44.0475 78.0104 44.5328C78.2592 45.0182 78.6501 45.7166 78.8988 46.0718C79.1357 46.4269 79.657 47.0662 80.036 47.4805C80.4151 47.8949 81.1851 48.5341 81.7418 48.9011C82.2986 49.2799 83.1989 49.7416 83.7556 49.9429C84.3124 50.1441 85.1297 50.3809 85.5917 50.4519C86.1129 50.5466 87.0251 50.5821 88.0794 50.5466C89.4179 50.4874 89.9392 50.4164 90.8039 50.156C91.3962 49.9902 92.2965 49.6232 92.8177 49.3628C93.3389 49.1024 94.1089 48.6407 94.5235 48.3447C95.2579 47.8002 95.2816 47.8002 95.4475 48.0251C95.6015 48.25 95.5659 48.3092 94.9263 48.9011C94.5472 49.2563 93.8127 49.86 93.2915 50.2388C92.7703 50.6295 92.024 51.1267 91.6331 51.3516C91.2422 51.5647 90.5196 51.908 90.0339 52.1093C89.5482 52.3105 88.5532 52.6065 87.8424 52.7722C87.1317 52.9379 86.3143 53.1155 86.03 53.1747C85.7576 53.2457 84.9402 53.2931 84.2295 53.2931C83.5187 53.2931 82.7013 53.2457 82.417 53.1747C82.1446 53.1155 81.4931 52.9735 80.9719 52.8788C80.4506 52.7841 79.5977 52.571 79.0765 52.3934C78.5553 52.2158 77.809 51.9199 77.4181 51.7186C77.0272 51.5292 76.352 51.1385 75.9018 50.8544C75.4635 50.5703 74.6699 49.9192 74.1486 49.4102C73.6156 48.913 72.9285 48.1553 72.6087 47.7291C72.2889 47.303 71.7321 46.4033 71.3886 45.7166C71.0332 45.03 70.6067 44.0474 70.4291 43.5266C70.2632 43.0057 70.0026 42.0705 69.8605 41.4549C69.6472 40.4841 69.6117 39.9514 69.5998 37.6667C69.5998 35.2872 69.6354 34.8728 69.8841 33.76C70.0381 33.0734 70.2869 32.15 70.4527 31.6884C70.6186 31.2267 71.0095 30.3506 71.3175 29.7351C71.6255 29.1195 72.1941 28.1842 72.585 27.6634C72.9641 27.1425 73.6274 26.373 74.0539 25.9468C74.4803 25.5206 75.1911 24.8932 75.6412 24.5618C76.1032 24.2184 76.9443 23.6739 77.5366 23.3543C78.1288 23.0346 79.0765 22.5966 79.6688 22.3954C80.2611 22.1941 81.1022 21.9455 81.5641 21.839C82.0261 21.7443 82.7369 21.614 83.1633 21.5548C83.5898 21.5075 84.5967 21.4838 85.414 21.5075ZM82.3934 22.5493C82.0735 22.6795 81.5049 22.9873 81.1495 23.2359C80.7942 23.4726 80.2493 23.9225 79.9531 24.2421C79.657 24.5618 79.1713 25.1892 78.8751 25.6509C78.5671 26.1126 78.1762 26.8229 77.9749 27.249C77.7853 27.6752 77.4892 28.4447 77.3233 28.9656C77.1575 29.4864 76.8969 30.469 76.7666 31.1556C76.6244 31.8423 76.4823 32.813 76.4349 33.322L76.352 34.2336H89.3232C89.5246 32.7183 89.6193 31.5581 89.6785 30.6821C89.7378 29.7232 89.7378 28.6104 89.6667 27.9001C89.6075 27.249 89.4772 26.3967 89.3706 26.006C89.2639 25.6154 89.027 24.9879 88.8375 24.6091C88.648 24.2421 88.2926 23.7212 88.0438 23.449C87.8069 23.1885 87.262 22.7979 86.8355 22.5966C86.1366 22.2533 85.9708 22.2178 84.7625 22.1941C84.0518 22.1823 83.3529 22.2059 83.2226 22.2415C83.0923 22.277 82.7132 22.4072 82.3934 22.5493Z" fill="#182A64"/>
</svg>
