<svg width="236" height="63" viewBox="0 0 236 63" fill="none" xmlns="http://www.w3.org/2000/svg">
<path d="M160.479 52.8132V45.4055H161.975L161.939 52.7776L160.479 52.8132Z" fill="#182A64"/>
<path d="M128.703 52.8132V45.4055H130.199L130.164 52.7776L128.703 52.8132Z" fill="#182A64"/>
<path d="M82.1437 52.7776L82.1223 49.0951L82.108 45.4055H83.6042V52.8132L82.1437 52.7776Z" fill="#182A64"/>
<path fill-rule="evenodd" clip-rule="evenodd" d="M189.975 45.2846C190.623 45.306 190.787 45.3345 191.179 45.5197C191.457 45.6408 191.735 45.8402 191.891 46.0183C192.034 46.175 192.198 46.467 192.255 46.6593C192.333 46.9158 192.362 47.3574 192.362 49.5726L188.764 49.6082V50.3917C188.764 50.9045 188.799 51.2678 188.87 51.4387C188.927 51.5883 189.063 51.7735 189.17 51.8447C189.303 51.935 189.5 51.9824 189.761 51.9872C189.975 51.9943 190.26 51.9445 190.395 51.8875C190.523 51.8305 190.687 51.6809 190.744 51.5669C190.801 51.453 190.872 51.104 190.937 50.2421L192.362 50.2848L192.354 50.7478C192.354 51.0042 192.312 51.3675 192.255 51.5669C192.183 51.8305 192.062 52.0157 191.799 52.2792C191.556 52.5143 191.3 52.6852 191.043 52.7778C190.737 52.8918 190.474 52.9203 189.832 52.9203C189.248 52.9203 188.913 52.8847 188.657 52.7992C188.45 52.728 188.144 52.5356 187.923 52.3362C187.674 52.1154 187.503 51.8804 187.424 51.6738C187.317 51.396 187.303 51.0399 187.303 49.1096C187.303 47.336 187.324 46.8089 187.403 46.581C187.46 46.4243 187.624 46.175 187.759 46.0183C187.902 45.8687 188.108 45.6906 188.229 45.6194C188.35 45.5411 188.621 45.4342 188.835 45.3772C189.106 45.2989 189.455 45.2704 189.975 45.2846ZM189.056 46.4029C189.034 46.4029 188.963 46.5383 188.892 46.7021C188.799 46.9371 188.764 47.2007 188.764 47.8061V48.611H190.901C190.865 47.1651 190.823 46.7947 190.751 46.6593C190.694 46.5525 190.566 46.41 190.459 46.3602C190.345 46.3032 190.124 46.2462 189.961 46.2249C189.775 46.2035 189.54 46.232 189.369 46.2961C189.212 46.3531 189.07 46.4029 189.056 46.4029Z" fill="#182A64"/>
<path d="M180.727 45.5769C180.919 45.4843 181.19 45.3774 181.34 45.3418H181.332C181.482 45.3062 181.874 45.2706 182.209 45.2706C182.629 45.2635 182.957 45.3062 183.277 45.3988C183.534 45.4771 183.883 45.6481 184.054 45.7763C184.254 45.9259 184.425 46.1538 184.546 46.4031C184.71 46.7379 184.738 46.9017 184.774 48.3263H183.277V47.6496C183.277 47.208 183.242 46.8874 183.171 46.7236C183.114 46.5883 182.978 46.4173 182.871 46.3461C182.743 46.2678 182.537 46.225 182.28 46.225C182.066 46.225 181.788 46.2678 181.674 46.3176C181.553 46.3604 181.397 46.5099 181.318 46.6381C181.183 46.8518 181.176 46.9872 181.176 49.0741C181.176 50.8976 181.197 51.3178 181.283 51.4888C181.34 51.6027 181.468 51.7594 181.568 51.8307C181.696 51.9304 181.867 51.9731 182.173 51.9731C182.43 51.9802 182.686 51.9375 182.814 51.8734C182.928 51.8164 183.085 51.6455 183.149 51.503C183.242 51.3178 183.277 51.0685 183.277 49.8933H184.774V50.5129C184.774 50.8833 184.731 51.3036 184.66 51.5315C184.574 51.8307 184.46 52.0087 184.182 52.2865C183.933 52.5287 183.684 52.6925 183.42 52.7851C183.121 52.8848 182.843 52.9205 182.209 52.9133C181.539 52.9133 181.318 52.8848 180.998 52.7566C180.784 52.6712 180.478 52.5002 180.328 52.372C180.178 52.2438 179.986 52.0087 179.9 51.852C179.758 51.5814 179.751 51.446 179.729 49.2166C179.708 47.1154 179.722 46.8305 179.836 46.5456C179.9 46.3675 180.057 46.1182 180.178 45.9829C180.292 45.8546 180.542 45.6694 180.727 45.5769Z" fill="#182A64"/>
<path fill-rule="evenodd" clip-rule="evenodd" d="M166.998 45.2706C167.311 45.2635 167.732 45.3062 167.924 45.3632C168.124 45.413 168.409 45.5199 168.565 45.5982C168.722 45.6766 168.971 45.8831 169.114 46.0541C169.264 46.225 169.42 46.51 169.47 46.688C169.527 46.8946 169.563 47.4715 169.563 49.5728L165.965 49.6084V50.4061C165.965 51.0543 165.993 51.268 166.107 51.5102C166.186 51.6811 166.321 51.852 166.414 51.9019C166.499 51.9446 166.749 51.9874 166.962 51.9874C167.176 51.9945 167.447 51.9518 167.568 51.9019C167.689 51.8592 167.846 51.7096 167.917 51.5814C168.002 51.4389 168.067 51.1469 168.138 50.2423L169.563 50.285L169.549 50.7836C169.541 51.0614 169.492 51.4247 169.442 51.5956C169.392 51.7737 169.235 52.0444 169.093 52.2011C168.943 52.372 168.651 52.5786 168.38 52.7068C167.953 52.9062 167.867 52.9205 167.069 52.9205C166.449 52.9205 166.114 52.8848 165.858 52.7994C165.651 52.7281 165.345 52.5358 165.124 52.3364C164.875 52.1156 164.704 51.8805 164.625 51.674C164.519 51.3962 164.504 51.04 164.504 49.1098C164.504 47.3362 164.526 46.8091 164.604 46.5812C164.661 46.4245 164.825 46.1752 164.96 46.0185C165.103 45.8689 165.309 45.6908 165.431 45.6196C165.552 45.5413 165.822 45.4344 166.036 45.3774C166.25 45.3204 166.684 45.2706 166.998 45.2706ZM166.335 46.396C166.243 46.4601 166.129 46.631 166.072 46.7735C166 46.9516 165.965 47.3148 165.965 47.8277V48.6112H168.102C168.067 47.0228 168.038 46.8234 167.924 46.6382C167.846 46.51 167.703 46.3746 167.604 46.3319C167.504 46.282 167.297 46.2393 167.14 46.225C166.984 46.2108 166.777 46.2179 166.677 46.2393C166.578 46.2607 166.428 46.3319 166.335 46.396Z" fill="#182A64"/>
<path d="M153.817 45.6194C153.938 45.541 154.209 45.4342 154.423 45.3772C154.701 45.2989 155.029 45.2704 155.563 45.2918C156.04 45.306 156.439 45.363 156.667 45.4485C156.895 45.5268 157.152 45.7049 157.38 45.9328C157.586 46.1465 157.779 46.4172 157.828 46.581C157.878 46.7377 157.942 47.1935 158.021 48.3261H156.489L156.468 47.5924C156.453 47.1508 156.404 46.7875 156.339 46.6665C156.282 46.5525 156.168 46.4172 156.076 46.3602C155.99 46.3032 155.769 46.2391 155.584 46.2177C155.378 46.1963 155.128 46.2177 154.957 46.2747C154.729 46.3459 154.637 46.4314 154.508 46.6878C154.359 47.0012 154.352 47.0724 154.352 49.0882C154.352 50.9188 154.366 51.2108 154.473 51.4672C154.558 51.6524 154.679 51.802 154.815 51.8732C154.936 51.9302 155.207 51.9729 155.456 51.9729C155.712 51.9658 155.948 51.9231 156.04 51.8518C156.133 51.7949 156.261 51.6595 156.325 51.5527C156.425 51.4031 156.461 51.1823 156.489 49.8931H158.021L157.971 50.6196C157.942 51.0256 157.878 51.4743 157.828 51.631C157.779 51.7806 157.622 52.037 157.486 52.1937C157.351 52.3504 157.095 52.5499 156.917 52.6353C156.738 52.7208 156.425 52.8348 156.225 52.8775C156.019 52.9203 155.655 52.9559 155.42 52.9559C155.185 52.9559 154.822 52.9203 154.622 52.8775C154.416 52.8348 154.102 52.7208 153.924 52.6353C153.746 52.5499 153.49 52.3504 153.347 52.2009C153.212 52.0442 153.048 51.7949 152.991 51.6382C152.912 51.4102 152.891 50.8831 152.891 49.1096C152.891 47.336 152.912 46.8089 152.991 46.581C153.048 46.4243 153.212 46.175 153.347 46.0183C153.49 45.8687 153.696 45.6906 153.817 45.6194Z" fill="#182A64"/>
<path fill-rule="evenodd" clip-rule="evenodd" d="M88.8055 45.2918C89.3398 45.306 89.6675 45.3559 89.9454 45.4627C90.209 45.5624 90.4441 45.7262 90.665 45.9542C90.8431 46.1394 91.0355 46.4243 91.0925 46.581C91.1708 46.8018 91.1922 47.3502 91.1922 49.1096C91.1922 51.0398 91.178 51.396 91.0711 51.6738C90.9998 51.8661 90.8146 52.1225 90.608 52.3148C90.38 52.5285 90.1164 52.6852 89.8385 52.7778C89.5108 52.8846 89.2329 52.9203 88.6273 52.9131C88.0004 52.9131 87.7653 52.8846 87.4518 52.7564C87.238 52.671 86.9317 52.5 86.7749 52.3647C86.6111 52.2293 86.4116 51.9587 86.3119 51.7379C86.1337 51.3532 86.1337 51.3461 86.1337 49.1808C86.1337 47.6494 86.1622 46.9157 86.2264 46.6878C86.2762 46.5098 86.4187 46.2391 86.547 46.0824C86.6823 45.9257 86.8961 45.7262 87.0314 45.6408C87.1668 45.5553 87.4518 45.4342 87.6655 45.3772C87.9434 45.2989 88.2782 45.2704 88.8055 45.2918ZM87.9861 46.3673C87.9078 46.4172 87.7938 46.5667 87.7368 46.7021C87.6513 46.8944 87.6299 47.336 87.6299 49.1452C87.6299 51.1324 87.6441 51.3817 87.7581 51.5527C87.8223 51.6595 87.9505 51.7949 88.0431 51.8518C88.1357 51.9231 88.3709 51.9658 88.6273 51.9729C88.891 51.9729 89.1403 51.9302 89.2899 51.859C89.4467 51.7806 89.5535 51.6524 89.6248 51.4458C89.7174 51.1894 89.7317 50.7905 89.7174 48.9671C89.696 46.8445 89.6889 46.7875 89.5393 46.5667C89.4324 46.41 89.2828 46.3032 89.1118 46.2605C88.9622 46.2248 88.7485 46.1963 88.6273 46.1963C88.5062 46.2035 88.3495 46.2248 88.2711 46.2391C88.1927 46.2605 88.0645 46.3174 87.9861 46.3673Z" fill="#182A64"/>
<path d="M75.4183 45.6408C75.5536 45.5553 75.8386 45.4342 76.0524 45.3772C76.3231 45.2989 76.6722 45.2704 77.1923 45.2846C77.748 45.306 78.0401 45.3488 78.3322 45.4627C78.546 45.5482 78.8523 45.7405 79.0019 45.883C79.1587 46.0325 79.3439 46.2961 79.4294 46.4742C79.5363 46.7163 79.579 46.9727 79.6147 48.3261H78.1185L78.1114 47.6637C78.1114 47.3075 78.0757 46.9015 78.0259 46.7662C77.976 46.6309 77.862 46.467 77.7623 46.3887C77.6625 46.3175 77.4417 46.2391 77.2635 46.2106C77.0427 46.1821 76.8432 46.2035 76.6223 46.2818C76.4086 46.3626 76.2542 46.4789 76.1592 46.6309C76.0239 46.8517 76.0167 46.9941 76.0167 49.1096C76.0167 51.1325 76.031 51.3818 76.145 51.5527C76.2091 51.6595 76.3373 51.7949 76.4228 51.8519C76.5226 51.9231 76.7577 51.9658 77.0142 51.9729C77.2707 51.9801 77.5271 51.9373 77.6554 51.8732C77.7908 51.8091 77.919 51.6524 77.9974 51.4672C78.0829 51.2607 78.1185 50.9829 78.1185 49.8931H79.6147V50.5128C79.6147 50.8832 79.5719 51.3034 79.5007 51.5313C79.4152 51.8305 79.3012 52.0086 79.0233 52.2792C78.7526 52.5428 78.5388 52.6781 78.2254 52.7778C77.8976 52.8847 77.6126 52.9203 77.0142 52.9132C76.3872 52.9132 76.1521 52.8847 75.8386 52.7565C75.6249 52.671 75.3185 52.5 75.1689 52.3718C75.0122 52.2436 74.8127 51.9729 74.7201 51.7806C74.5633 51.4316 74.5562 51.3746 74.5562 49.1452C74.5562 47.5354 74.5847 46.7876 74.6488 46.5881C74.6916 46.4385 74.834 46.1964 74.9552 46.0539C75.0763 45.9114 75.2829 45.7263 75.4183 45.6408Z" fill="#182A64"/>
<path fill-rule="evenodd" clip-rule="evenodd" d="M54.4649 45.2706C54.8852 45.2635 55.2129 45.3062 55.5335 45.3988C55.79 45.4771 56.1391 45.6481 56.3101 45.7763C56.5025 45.9259 56.6877 46.1538 56.9941 46.7948L57.0155 48.9673C57.0297 50.7979 57.0155 51.2039 56.9157 51.5315C56.8302 51.8307 56.7162 52.0087 56.4384 52.2865C56.189 52.5287 55.9397 52.6925 55.676 52.7851C55.3768 52.8848 55.0989 52.9205 54.4649 52.9133C53.7951 52.9133 53.5743 52.8848 53.2537 52.7566C53.0399 52.6712 52.7336 52.5002 52.584 52.372C52.4272 52.2438 52.2277 51.9731 52.1351 51.7808C51.9784 51.4318 51.9712 51.3819 51.9712 49.1098C51.9712 46.9373 51.9855 46.7735 52.1209 46.4743C52.1992 46.2963 52.3489 46.0612 52.4557 45.9544C52.5626 45.8404 52.7977 45.6694 52.9829 45.5769C53.1753 45.4843 53.446 45.3774 53.5885 45.3418C53.7381 45.3062 54.13 45.2706 54.4649 45.2706ZM53.6313 46.5242C53.5814 46.5954 53.5173 46.7307 53.4888 46.8305C53.4532 46.9302 53.4318 47.9701 53.4318 49.1454C53.4318 50.9047 53.4532 51.3178 53.5387 51.4888C53.5957 51.6027 53.7239 51.7594 53.8236 51.8307C53.9519 51.9304 54.1229 51.9731 54.4292 51.9731C54.6857 51.9802 54.9422 51.9375 55.0704 51.8734C55.1844 51.8164 55.3412 51.6455 55.4053 51.503C55.5193 51.2751 55.5335 50.9973 55.5335 49.1098C55.5335 47.3718 55.5122 46.9302 55.4267 46.7236C55.3697 46.5883 55.2486 46.4245 55.1559 46.3675C55.0704 46.3105 54.8353 46.2464 54.643 46.225C54.4221 46.2037 54.1799 46.225 54.0089 46.2891C53.8521 46.3461 53.6883 46.4458 53.6313 46.5242Z" fill="#182A64"/>
<path d="M45.2526 45.6407C45.445 45.5339 45.7371 45.4057 45.9152 45.3558C46.1076 45.306 46.5493 45.2775 47.0195 45.2846C47.7391 45.2988 47.846 45.3202 48.2877 45.5339C48.5798 45.6764 48.8434 45.8615 48.9788 46.0254C49.0999 46.1749 49.2424 46.4385 49.2994 46.6166C49.3706 46.816 49.4063 47.2006 49.4063 48.326H47.9101V47.5924C47.9172 46.9513 47.8958 46.8374 47.7462 46.6166C47.6536 46.467 47.4826 46.3316 47.3401 46.2818C47.2048 46.2319 46.991 46.1963 46.877 46.1963C46.763 46.1963 46.5493 46.2319 46.4139 46.2818C46.2714 46.3316 46.1004 46.467 46.0078 46.6166C45.844 46.8659 45.8368 46.8872 45.844 49.0526C45.844 50.8404 45.8653 51.2891 45.9508 51.4957C46.0078 51.631 46.1432 51.802 46.2572 51.8661C46.3854 51.9444 46.5992 51.9871 46.877 51.98C47.1121 51.98 47.3757 51.9444 47.4684 51.8945C47.5539 51.8518 47.6892 51.7094 47.7676 51.5811C47.8816 51.396 47.9101 51.225 47.9101 49.893H49.4063V50.584C49.4063 51.0541 49.3706 51.396 49.2851 51.6381C49.2068 51.8732 49.0572 52.1011 48.8434 52.3005C48.6653 52.4715 48.3376 52.6781 48.1238 52.7635C47.8032 52.8846 47.5824 52.9131 46.877 52.9131C46.1717 52.9131 45.9508 52.8846 45.6302 52.7635C45.4022 52.6709 45.0959 52.4715 44.9035 52.2863C44.647 52.0441 44.533 51.8589 44.4547 51.5811C44.3692 51.2891 44.3478 50.7691 44.3478 49.1095C44.3478 47.4286 44.3692 46.9371 44.4547 46.6522C44.5117 46.4527 44.6399 46.1892 44.7396 46.061C44.8394 45.9399 45.0674 45.7476 45.2526 45.6407Z" fill="#182A64"/>
<path d="M173.766 45.6051C173.888 45.5197 174.158 45.3914 174.372 45.3202C174.657 45.2276 174.892 45.1991 175.227 45.2276C175.483 45.249 175.833 45.3345 176.011 45.4128C176.189 45.4912 176.452 45.6764 176.602 45.8188C176.752 45.9613 176.93 46.2462 177.008 46.4527C177.143 46.8089 177.151 47.0226 177.151 52.8134L175.69 52.7778L175.654 49.7506C175.626 47.222 175.605 46.6949 175.512 46.5596C175.455 46.4741 175.291 46.353 175.156 46.2889C174.97 46.1963 174.799 46.1821 174.479 46.2106C174.215 46.2391 174.002 46.3032 173.916 46.3815C173.845 46.4527 173.752 46.5738 173.702 46.6522C173.652 46.7519 173.61 47.7206 173.553 52.7778L172.092 52.8134V45.4057H172.733C173.353 45.4057 173.375 45.4128 173.553 45.769L173.766 45.6051Z" fill="#182A64"/>
<path d="M146.479 45.4697C146.636 45.3985 146.956 45.3059 147.191 45.2703C147.426 45.2347 147.875 45.2204 148.189 45.2418C148.502 45.2632 148.937 45.3344 149.151 45.3985C149.364 45.4626 149.664 45.6122 149.813 45.7262C149.977 45.8544 150.162 46.1037 150.276 46.3316C150.397 46.5951 150.476 46.8943 150.54 47.7562H149.115L149.079 47.2291C149.051 46.7946 149.015 46.6664 148.866 46.5168C148.766 46.41 148.574 46.2889 148.438 46.2461C148.303 46.2034 147.996 46.182 147.761 46.2034C147.526 46.2248 147.255 46.2889 147.156 46.353C147.056 46.41 146.935 46.5453 146.892 46.645C146.842 46.7447 146.799 47.0296 146.799 47.2718C146.799 47.5923 146.842 47.7846 146.942 47.9485C147.02 48.0767 147.22 48.2548 147.391 48.3331C147.555 48.4186 148.046 48.5966 148.474 48.7391C148.901 48.8744 149.371 49.0383 149.507 49.1095C149.642 49.1807 149.877 49.3659 150.027 49.5297C150.198 49.7149 150.333 49.9642 150.405 50.2278C150.49 50.5269 150.511 50.7762 150.476 51.1395C150.454 51.4386 150.369 51.7663 150.276 51.9515C150.184 52.1296 149.998 52.3575 149.863 52.4714C149.728 52.5783 149.436 52.7207 149.222 52.792C148.93 52.8846 148.595 52.9202 147.939 52.9202C147.291 52.9202 146.935 52.8846 146.643 52.792C146.365 52.7136 146.123 52.5712 145.902 52.3646C145.667 52.1509 145.553 51.9657 145.474 51.7093C145.417 51.5099 145.375 51.1395 145.375 50.3916H146.799V50.9258C146.799 51.2178 146.835 51.5241 146.871 51.6025C146.906 51.6808 147.035 51.7948 147.156 51.8518C147.291 51.923 147.576 51.9586 147.939 51.9586C148.303 51.9586 148.588 51.923 148.723 51.8518C148.844 51.7948 148.973 51.6666 149.008 51.5669C149.044 51.4671 149.079 51.2107 149.079 50.997C149.079 50.7691 149.03 50.4913 148.958 50.3417C148.887 50.1993 148.716 50.007 148.581 49.9215C148.445 49.8289 147.932 49.6223 147.441 49.4585C146.949 49.3018 146.408 49.081 146.237 48.9742C146.066 48.8744 145.852 48.7106 145.774 48.6109C145.688 48.5112 145.56 48.2904 145.489 48.1123C145.389 47.863 145.367 47.6564 145.389 47.1863C145.41 46.7661 145.467 46.4954 145.567 46.296C145.645 46.1393 145.823 45.9185 145.952 45.8045C146.087 45.6906 146.322 45.541 146.479 45.4697Z" fill="#182A64"/>
<path d="M134.417 45.5909C134.545 45.4983 134.809 45.37 135.009 45.3059C135.251 45.2276 135.514 45.2062 135.828 45.2276C136.084 45.249 136.433 45.3344 136.612 45.4128C136.79 45.4911 137.039 45.655 137.167 45.7832C137.303 45.9114 137.474 46.1393 137.559 46.296C137.709 46.5738 137.716 46.6521 137.752 52.8134H136.327L136.312 49.836C136.291 47.165 136.277 46.8445 136.17 46.6308C136.099 46.5026 135.935 46.3601 135.792 46.296C135.657 46.239 135.415 46.1892 135.258 46.1892C135.101 46.1892 134.859 46.239 134.724 46.296C134.588 46.353 134.417 46.4883 134.353 46.5952C134.239 46.7661 134.218 47.0866 134.154 52.7777H132.729L132.693 45.4057H133.334C133.926 45.4057 133.983 45.4199 134.054 45.5624C134.104 45.655 134.146 45.7333 134.161 45.7404C134.175 45.7547 134.296 45.6834 134.417 45.5909Z" fill="#182A64"/>
<path d="M114.874 45.4913C115.074 45.4058 115.423 45.3061 115.651 45.2705C115.872 45.2348 116.15 45.2063 116.271 45.1992C116.392 45.1992 116.698 45.2277 116.969 45.2633C117.233 45.3061 117.61 45.4058 117.817 45.4913C118.023 45.5839 118.294 45.7833 118.437 45.9471C118.579 46.1038 118.729 46.3602 118.779 46.5169C118.828 46.6665 118.893 47.0084 118.978 47.7563H117.553L117.503 47.2435C117.468 46.9586 117.396 46.6523 117.339 46.5597C117.282 46.4742 117.119 46.3531 116.983 46.2961C116.848 46.2392 116.556 46.1893 116.342 46.1893C116.128 46.1893 115.836 46.2392 115.701 46.2961C115.565 46.3531 115.402 46.4742 115.345 46.5597C115.288 46.6523 115.216 46.8802 115.195 47.0796C115.166 47.2791 115.181 47.5497 115.223 47.6851C115.266 47.8204 115.409 48.0341 115.537 48.1552C115.715 48.3119 116.036 48.4543 116.805 48.7036C117.375 48.8888 117.966 49.1239 118.123 49.2378C118.28 49.3447 118.479 49.5299 118.558 49.6438C118.643 49.7649 118.743 49.9715 118.793 50.1068C118.836 50.2422 118.878 50.5342 118.885 50.7479C118.893 50.9616 118.878 51.2821 118.85 51.4602C118.821 51.6382 118.707 51.9303 118.586 52.1155C118.429 52.3719 118.273 52.5001 118.002 52.6354C117.795 52.7351 117.432 52.8491 117.197 52.8918C116.955 52.9346 116.456 52.9559 116.057 52.9346C115.551 52.9132 115.216 52.8491 114.917 52.7351C114.682 52.6425 114.411 52.5001 114.311 52.4146C114.212 52.3363 114.055 52.0941 113.962 51.8804C113.841 51.6026 113.791 51.3462 113.777 50.4274L115.166 50.3917V50.7977C115.166 51.0257 115.202 51.3319 115.238 51.4744C115.295 51.6881 115.366 51.7664 115.58 51.859C115.772 51.9445 116.007 51.9659 116.463 51.9516C117.012 51.9231 117.111 51.9018 117.275 51.7451C117.439 51.5884 117.461 51.51 117.468 51.0185C117.482 50.5627 117.453 50.4416 117.332 50.2707C117.254 50.1638 117.076 50 116.94 49.9074C116.805 49.8219 116.349 49.6296 115.914 49.4871C115.487 49.3447 115.01 49.1737 114.867 49.1025C114.718 49.0242 114.468 48.8461 114.304 48.6965C114.148 48.5541 113.962 48.2905 113.898 48.1124C113.827 47.913 113.777 47.5996 113.784 47.2933C113.784 47.0155 113.827 46.6665 113.884 46.5098C113.934 46.3531 114.098 46.0967 114.24 45.94C114.39 45.7833 114.668 45.5839 114.874 45.4913Z" fill="#182A64"/>
<path d="M102.214 45.5196C102.42 45.4199 102.798 45.313 103.055 45.2703C103.311 45.2347 103.76 45.2204 104.052 45.2418C104.344 45.2632 104.786 45.3415 105.035 45.4128C105.363 45.5125 105.555 45.6264 105.797 45.8686C106.025 46.0965 106.147 46.296 106.225 46.5595C106.282 46.7661 106.332 47.1222 106.332 47.7562H104.907V47.3288C104.907 47.0937 104.864 46.7946 104.814 46.6664C104.743 46.5025 104.636 46.4028 104.422 46.3102C104.259 46.2461 103.966 46.1891 103.767 46.1891C103.575 46.1891 103.275 46.2461 103.119 46.3102C102.933 46.3886 102.791 46.5097 102.741 46.6308C102.691 46.7376 102.648 47.0225 102.641 47.2718C102.634 47.6066 102.663 47.7775 102.762 47.9342C102.841 48.0482 103.026 48.2191 103.176 48.2975C103.325 48.383 103.817 48.5682 104.266 48.7177C104.715 48.8602 105.242 49.0668 105.427 49.1665C105.619 49.2733 105.862 49.4728 105.961 49.6081C106.061 49.7434 106.189 49.9998 106.239 50.1779C106.289 50.356 106.332 50.6765 106.332 50.8902C106.332 51.1039 106.282 51.46 106.218 51.6737C106.132 51.9586 106.018 52.1509 105.79 52.3646C105.57 52.5783 105.349 52.7065 105.071 52.792C104.772 52.8846 104.401 52.9202 103.767 52.9202C103.097 52.9202 102.77 52.8846 102.449 52.7849C102.15 52.6923 101.936 52.5712 101.729 52.3575C101.523 52.158 101.394 51.9444 101.316 51.6737C101.252 51.46 101.202 51.0825 101.202 50.3916H102.627V50.9258C102.627 51.2178 102.663 51.5241 102.698 51.6025C102.734 51.6808 102.862 51.7948 102.983 51.8518C103.119 51.923 103.404 51.9586 103.767 51.9586C104.13 51.9586 104.415 51.923 104.551 51.8518C104.672 51.7948 104.8 51.6666 104.836 51.5669C104.871 51.4671 104.907 51.1893 104.907 50.94C104.907 50.6266 104.864 50.4343 104.764 50.2634C104.686 50.1423 104.551 49.9856 104.465 49.9286C104.373 49.8716 103.867 49.6722 103.34 49.4799C102.812 49.2947 102.228 49.0525 102.043 48.9457C101.85 48.8388 101.637 48.6679 101.565 48.5539C101.487 48.4471 101.373 48.2191 101.316 48.0411C101.252 47.863 101.202 47.5425 101.202 47.3288C101.202 47.1151 101.245 46.7732 101.309 46.5809C101.366 46.3815 101.508 46.1037 101.63 45.9541C101.744 45.8116 102.014 45.6122 102.214 45.5196Z" fill="#182A64"/>
<path d="M68.2155 45.4412C68.4293 45.37 68.7641 45.2845 68.9636 45.256C69.1631 45.2276 69.5763 45.2204 69.8898 45.2418C70.2033 45.2632 70.6023 45.3202 70.7804 45.37C70.9585 45.427 71.2435 45.5695 71.4145 45.7048C71.6068 45.8401 71.8063 46.0823 71.9132 46.296C72.0414 46.5524 72.1056 46.8088 72.1697 47.7561H70.7091V47.2932C70.7091 47.0367 70.6664 46.7447 70.6094 46.6379C70.5524 46.5168 70.3957 46.3886 70.2175 46.3173C70.0608 46.2461 69.7687 46.1891 69.5692 46.1891C69.3768 46.1891 69.0776 46.2461 68.9137 46.3173C68.7 46.4028 68.5931 46.5025 68.5219 46.6735C68.472 46.7946 68.4293 47.0652 68.4293 47.2575C68.4293 47.457 68.4863 47.7277 68.5575 47.8701C68.6288 48.0268 68.7926 48.1978 68.9636 48.2975C69.1203 48.383 69.5834 48.561 69.9967 48.6821C70.4099 48.8103 70.9371 49.0098 71.1651 49.138C71.4002 49.2591 71.6567 49.4585 71.7493 49.5725C71.8419 49.6935 71.9631 49.9286 72.0272 50.1067C72.0842 50.2847 72.1341 50.6195 72.1341 50.8546C72.1341 51.0896 72.0842 51.46 72.0201 51.6737C71.9417 51.9443 71.8135 52.158 71.6068 52.3575C71.4002 52.5712 71.1865 52.6922 70.8873 52.7848C70.5666 52.8846 70.2389 52.9202 69.5692 52.9202C68.9351 52.9202 68.5646 52.8846 68.2725 52.792C67.9875 52.7065 67.7667 52.5783 67.5458 52.3717C67.3178 52.1509 67.2038 51.9586 67.1183 51.6737C67.0542 51.46 67.0043 51.0825 67.0043 50.3916H68.4293V50.8902C68.4293 51.168 68.4649 51.4671 68.5005 51.5668C68.5361 51.6666 68.6715 51.7948 68.7855 51.8517C68.9209 51.923 69.2058 51.9586 69.5692 51.9586C69.9326 51.9586 70.2175 51.923 70.3529 51.8517C70.4669 51.7948 70.6023 51.6808 70.6379 51.6025C70.6735 51.5241 70.7091 51.2463 70.7091 50.9828C70.7091 50.6266 70.6735 50.4414 70.5666 50.2705C70.4883 50.1423 70.3173 49.9713 70.1962 49.893C70.0679 49.8146 69.6048 49.6366 69.1773 49.4941C68.7499 49.3517 68.2084 49.1308 67.9733 49.0098C67.7453 48.8887 67.4746 48.675 67.3748 48.5396C67.2751 48.4043 67.1468 48.1479 67.097 47.9698C67.0471 47.7918 67.0043 47.4926 67.0043 47.2932C67.0043 47.1008 67.0542 46.7661 67.1112 46.5666C67.1825 46.3031 67.3107 46.0894 67.5173 45.8829C67.7216 45.6787 67.9543 45.5315 68.2155 45.4412Z" fill="#182A64"/>
<path d="M61.5037 45.4484C61.6248 45.3843 61.8528 45.306 62.0025 45.2633C62.1449 45.2276 62.4584 45.2134 62.6935 45.2276C62.9785 45.249 63.2635 45.3274 63.5485 45.4698C63.7979 45.5909 64.0615 45.7832 64.1755 45.9328C64.2823 46.0753 64.4248 46.3246 64.4889 46.4884C64.6029 46.759 64.6172 47.1223 64.6172 52.7778L63.1566 52.8134L63.1424 49.8432C63.121 47.165 63.1068 46.8445 62.9999 46.638C62.9215 46.4955 62.7648 46.353 62.608 46.2889C62.4371 46.2177 62.2019 46.1821 61.9668 46.1963C61.7388 46.2177 61.5251 46.2818 61.3969 46.3744C61.29 46.4528 61.1617 46.6308 61.1119 46.7662C61.0549 46.9371 61.0264 47.8559 61.0193 52.8134L59.5587 52.7778L59.5231 45.4057H60.1857C60.834 45.3986 60.8411 45.4057 60.9338 45.598C61.0193 45.7832 61.0335 45.7903 61.1475 45.6835C61.2116 45.6194 61.3755 45.5126 61.5037 45.4484Z" fill="#182A64"/>
<path d="M160.479 44.0524V42.9128H161.954L161.939 44.0168L160.479 44.0524Z" fill="#182A64"/>
<path d="M128.703 44.0524V42.9128H130.178L130.164 44.0168L128.703 44.0524Z" fill="#182A64"/>
<path d="M82.1439 44.0168L82.1012 42.9128H83.6045V44.0524L82.1439 44.0168Z" fill="#182A64"/>
<path d="M121.293 52.8134V42.2004H122.789V47.9699L124.962 45.4128L126.672 45.3986L126.523 45.5624C126.437 45.655 125.917 46.2319 125.361 46.8445C124.813 47.4642 124.371 48.0055 124.393 48.0411C124.414 48.0767 124.492 48.1123 124.571 48.1123C124.649 48.1123 124.898 48.1836 125.126 48.269C125.369 48.3616 125.646 48.5397 125.825 48.7106C125.996 48.8816 126.159 49.1451 126.231 49.3588C126.33 49.6509 126.352 49.9856 126.352 52.8134L124.891 52.7778L124.856 51.1609C124.82 49.6651 124.806 49.5298 124.67 49.3446C124.592 49.2377 124.414 49.1095 124.279 49.0597C124.143 49.0098 123.758 48.9742 122.789 48.9671L122.754 52.7778L121.293 52.8134Z" fill="#182A64"/>
<path fill-rule="evenodd" clip-rule="evenodd" d="M202.764 16.302C203.79 16.3234 204.16 16.3519 204.616 16.4801C204.929 16.5585 205.442 16.7579 205.756 16.9146C206.069 17.0642 206.511 17.342 206.739 17.52C206.96 17.6981 207.288 18.0257 207.466 18.2466C207.644 18.4745 207.879 18.852 207.993 19.087C208.107 19.3221 208.278 19.7566 208.364 20.0486C208.52 20.5543 208.527 20.7182 208.57 25.9605H200.733L200.754 27.3993C200.776 28.5247 200.804 28.9165 200.897 29.1658C200.961 29.3439 201.139 29.6288 201.282 29.7997C201.431 29.9778 201.681 30.1772 201.837 30.2485C202.03 30.3339 202.3 30.3767 202.657 30.3767C203.084 30.3767 203.262 30.341 203.547 30.2057C203.74 30.106 203.975 29.9279 204.06 29.814C204.153 29.6929 204.274 29.4578 204.331 29.2869C204.402 29.0946 204.438 28.7313 204.438 27.5275H208.57V28.3965C208.57 29.0447 208.535 29.4222 208.428 29.8425C208.349 30.1559 208.178 30.5903 208.05 30.804C207.929 31.0177 207.516 31.5021 207.145 31.8724C206.654 32.371 206.333 32.6203 205.97 32.8127C205.699 32.948 205.264 33.1332 205.008 33.2115C204.751 33.2899 204.352 33.3967 204.117 33.4466C203.875 33.5036 203.205 33.5392 202.585 33.5392C201.766 33.5463 201.332 33.5107 200.911 33.411C200.598 33.3397 200.099 33.1902 199.807 33.0762C199.515 32.9694 199.045 32.7201 198.774 32.5277C198.503 32.3354 198.104 31.9935 197.897 31.7585C197.669 31.5092 197.392 31.0818 197.206 30.6972C197.035 30.3482 196.843 29.8496 196.772 29.5932C196.658 29.18 196.644 28.6957 196.615 25.2839C196.601 22.5986 196.615 21.2666 196.672 20.8677C196.722 20.5543 196.836 20.0557 196.929 19.7637C197.021 19.4717 197.214 19.0229 197.363 18.7736C197.513 18.5315 197.819 18.1326 198.04 17.9047C198.268 17.6767 198.638 17.3633 198.859 17.2137C199.087 17.0713 199.501 16.8576 199.771 16.7436C200.042 16.6297 200.541 16.4801 200.876 16.4089C201.374 16.302 201.709 16.2807 202.764 16.302ZM201.417 19.721C201.296 19.8064 201.111 20.07 200.99 20.3335C200.79 20.7609 200.769 20.8749 200.733 21.8151L200.697 22.8265H204.438C204.395 20.8392 204.374 20.6825 204.217 20.3407C204.124 20.127 203.939 19.8634 203.811 19.7495C203.69 19.6426 203.462 19.5215 203.312 19.4788C203.17 19.4432 202.842 19.4076 202.585 19.4147C202.329 19.4147 202.008 19.4503 201.873 19.493C201.738 19.5287 201.531 19.6355 201.417 19.721Z" fill="#182A64"/>
<path fill-rule="evenodd" clip-rule="evenodd" d="M170.403 16.2449C170.859 16.2592 171.486 16.3233 171.786 16.3874C172.092 16.4515 172.583 16.5939 172.876 16.7008C173.168 16.8147 173.602 17.0427 173.837 17.2065C174.073 17.3632 174.422 17.6481 174.607 17.8262C174.792 18.0114 175.07 18.3533 175.227 18.5883C175.376 18.8234 175.583 19.2222 175.683 19.4787C175.775 19.7351 175.904 20.1909 175.968 20.4972C176.06 20.9602 176.082 21.644 176.082 24.8421C176.082 27.1499 176.053 28.8095 176.003 29.0944C175.968 29.3508 175.847 29.7996 175.754 30.0916C175.654 30.3836 175.455 30.8181 175.312 31.0532C175.17 31.2882 174.885 31.6515 174.692 31.8581C174.493 32.0717 174.13 32.3852 173.873 32.549C173.617 32.7199 173.203 32.9407 172.947 33.0404C172.69 33.1402 172.291 33.2684 172.056 33.3325C171.821 33.3895 171.28 33.4749 170.845 33.5177C170.289 33.5675 169.841 33.5675 169.313 33.5177C168.9 33.4749 168.287 33.361 167.938 33.2613C167.596 33.1615 167.133 32.9906 166.905 32.8766C166.684 32.7627 166.3 32.5205 166.05 32.3424C165.808 32.1643 165.466 31.8296 165.288 31.6088C165.11 31.3808 164.875 31.0176 164.761 30.8039C164.647 30.5902 164.461 30.1201 164.148 29.13V24.9276C164.148 21.0528 164.155 20.6824 164.283 20.2266C164.355 19.9559 164.533 19.4715 164.675 19.1581C164.825 18.8447 165.103 18.396 165.295 18.1609C165.495 17.9259 165.858 17.5769 166.114 17.3917C166.364 17.1994 166.77 16.9501 167.012 16.8361C167.261 16.7221 167.725 16.5583 168.045 16.48C168.373 16.3945 168.843 16.3019 169.1 16.2663C169.356 16.2378 169.94 16.2235 170.396 16.2449H170.403ZM168.75 19.8775C168.651 19.9915 168.501 20.2622 168.43 20.4758C168.294 20.8462 168.287 21.0813 168.287 24.892C168.287 28.7027 168.294 28.9377 168.43 29.3081C168.501 29.5218 168.679 29.8138 168.822 29.9563C168.964 30.1059 169.192 30.2554 169.356 30.2982C169.513 30.3409 169.848 30.3765 170.104 30.3765C170.361 30.3765 170.688 30.3409 170.831 30.3053C170.98 30.2626 171.208 30.1415 171.33 30.0346C171.458 29.9207 171.643 29.6571 171.743 29.4434L171.921 29.0588V20.7251C171.664 20.1767 171.522 19.9345 171.436 19.8419C171.351 19.7493 171.151 19.614 170.995 19.5428C170.788 19.4502 170.546 19.4074 170.104 19.4074C169.67 19.4074 169.413 19.4502 169.214 19.5428C169.057 19.6069 168.85 19.7636 168.75 19.8775Z" fill="#182A64"/>
<path d="M148.759 19.3721L148.737 17.7908L148.723 16.2024H160.693V18.2324L153.789 30.3412L160.693 30.3768V33.582H148.652L148.659 31.7657L155.677 19.4433L148.759 19.3721Z" fill="#182A64"/>
<path fill-rule="evenodd" clip-rule="evenodd" d="M101.737 16.2377C102.164 16.2591 102.713 16.3018 102.948 16.3445C103.183 16.3873 103.582 16.487 103.838 16.5725C104.095 16.6508 104.508 16.8289 104.765 16.9571C105.021 17.0924 105.392 17.3346 105.598 17.4984C105.805 17.6694 106.118 17.9828 106.296 18.1965C106.474 18.4101 106.731 18.8161 106.866 19.0868C107.002 19.3575 107.18 19.8774 107.272 20.2264C107.436 20.8604 107.436 20.9316 107.436 24.8919C107.436 28.8521 107.436 28.9234 107.272 29.5573C107.187 29.9063 106.995 30.4405 106.845 30.7326C106.645 31.1386 106.432 31.4163 105.94 31.9149C105.484 32.3708 105.156 32.6343 104.8 32.8124C104.529 32.9549 104.017 33.1543 103.66 33.254C103.304 33.3609 102.663 33.4748 102.235 33.5176C101.687 33.5674 101.231 33.5674 100.704 33.5176C100.29 33.4748 99.7132 33.3822 99.4211 33.3039C99.129 33.2327 98.7087 33.0902 98.4949 32.9976C98.2812 32.905 97.9107 32.6984 97.6756 32.5346C97.4405 32.3779 97.0557 32.0432 96.8206 31.7867C96.5855 31.5303 96.272 31.1029 96.1296 30.8323C95.9871 30.5616 95.8018 30.0986 95.7234 29.8066C95.6451 29.5146 95.5453 28.9661 95.5026 28.5957C95.467 28.2253 95.4313 26.5586 95.4313 24.8919C95.4313 23.2251 95.467 21.5584 95.5026 21.188C95.5382 20.8176 95.6166 20.319 95.6807 20.084C95.7377 19.8489 95.9229 19.386 96.0868 19.0512C96.3219 18.5597 96.4929 18.3318 96.9916 17.8403C97.4049 17.4272 97.7682 17.1494 98.1031 16.9713C98.3738 16.8289 98.8868 16.6294 99.243 16.5297C99.5992 16.4229 100.126 16.316 100.419 16.2733C100.711 16.2377 101.309 16.2234 101.737 16.2377ZM100.29 19.678C100.162 19.7706 99.984 19.9914 99.8842 20.2122C99.7845 20.4116 99.6776 20.8248 99.6349 21.1168C99.5992 21.4088 99.5636 23.1041 99.5636 24.8776C99.5636 26.8791 99.5921 28.3037 99.642 28.6527C99.6847 28.9519 99.7774 29.3294 99.8486 29.4861C99.9127 29.6428 100.062 29.8707 100.176 29.9847C100.297 30.0986 100.533 30.2411 100.704 30.2981C100.903 30.3551 101.252 30.3835 101.637 30.3693C102.157 30.3479 102.285 30.3123 102.542 30.1485C102.748 30.0132 102.898 29.8351 103.019 29.5787C103.119 29.3721 103.233 28.9946 103.268 28.7382C103.318 28.4461 103.34 26.9361 103.325 24.5713L103.304 20.8675C103.04 20.2051 102.862 19.913 102.741 19.792C102.62 19.6709 102.392 19.5355 102.235 19.4857C102.079 19.4429 101.708 19.4073 101.416 19.4144C101.124 19.4144 100.803 19.4429 100.704 19.4714C100.604 19.4999 100.419 19.5925 100.297 19.678H100.29Z" fill="#182A64"/>
<path fill-rule="evenodd" clip-rule="evenodd" d="M50.2113 16.2093C50.4322 16.2093 50.9309 16.2378 51.3157 16.2805C51.6933 16.3232 52.2775 16.4372 52.6123 16.5369C52.9472 16.6295 53.4388 16.8289 53.7166 16.9714C54.0491 17.1471 54.4172 17.4368 54.821 17.8404C55.2698 18.282 55.5049 18.5883 55.7115 18.98C55.8612 19.2721 56.0606 19.8205 56.1604 20.1909C56.3385 20.8533 56.3385 20.9246 56.3741 24.2153C56.3955 26.3735 56.3741 27.8693 56.3243 28.4177C56.2815 28.8878 56.196 29.4648 56.1319 29.6998C56.0749 29.9349 55.8968 30.3836 55.7472 30.697C55.5762 31.0674 55.3126 31.4449 55.0205 31.7583C54.7782 32.029 54.3792 32.378 54.1441 32.5347C53.909 32.6985 53.5385 32.9051 53.3248 32.9977C53.1111 33.0903 52.6907 33.2327 52.3986 33.304C52.1065 33.3823 51.5151 33.4749 51.0805 33.5176C50.5319 33.5675 50.076 33.5675 49.5488 33.5176C49.1355 33.4749 48.5157 33.3609 48.1595 33.2541C47.8103 33.1544 47.3116 32.9621 47.0551 32.8339C46.7987 32.6985 46.4139 32.435 46.2002 32.2569C45.9864 32.0717 45.673 31.7583 45.502 31.5589C45.3381 31.3594 45.0887 30.9748 44.9534 30.697C44.818 30.4192 44.6399 29.9278 44.5544 29.593C44.3977 29.0089 44.3905 28.838 44.3692 25.2481C44.3407 22.1212 44.3549 21.3875 44.4475 20.7821C44.5117 20.3761 44.6541 19.7992 44.7753 19.5C44.8893 19.1937 45.0959 18.7735 45.2384 18.574C45.3737 18.3675 45.673 18.0113 45.9081 17.7905C46.1361 17.5626 46.4994 17.2706 46.706 17.1495C46.9198 17.0213 47.2831 16.8361 47.5182 16.7435C47.7533 16.6438 48.1381 16.5155 48.3732 16.4586C48.6083 16.3945 49.0287 16.3161 49.2994 16.2805C49.5773 16.252 49.9834 16.2164 50.2113 16.2093ZM49.0928 19.7493C49.0215 19.8134 48.8862 20.0128 48.8007 20.1909C48.708 20.369 48.6012 20.718 48.5513 20.9744C48.4943 21.2949 48.4801 22.5842 48.4943 25.1769L48.5157 28.9163C48.7793 29.5787 48.9574 29.8708 49.0785 29.9919C49.1996 30.1129 49.4276 30.2483 49.5844 30.2981C49.7411 30.3409 50.1045 30.3765 50.3895 30.3765C50.7386 30.3765 51.0093 30.3338 51.2444 30.234C51.4581 30.1486 51.6505 29.999 51.7716 29.828C51.8714 29.6785 52.0139 29.3793 52.0851 29.1656C52.1991 28.8166 52.2134 28.3892 52.2419 25.2837C52.2561 22.9189 52.2419 21.6012 52.1849 21.1881C52.1421 20.8533 52.0281 20.4117 51.9284 20.2123C51.8073 19.9487 51.6648 19.7778 51.4581 19.6425C51.1945 19.4644 51.0877 19.443 50.4821 19.4216C50.0047 19.4145 49.7126 19.4359 49.5131 19.5142C49.3564 19.5712 49.1712 19.6781 49.0928 19.7493Z" fill="#182A64"/>
<path d="M32.1646 16.4443C32.4211 16.3802 32.8343 16.3019 33.0908 16.2734C33.3473 16.2449 33.7392 16.2164 33.9671 16.2093C34.188 16.2093 34.6867 16.2378 35.0643 16.2805C35.4491 16.3232 36.0333 16.4372 36.3681 16.5369C36.703 16.6295 37.1946 16.8289 37.4725 16.9714C37.8049 17.1471 38.173 17.4368 38.5768 17.8404C39.0114 18.2678 39.2679 18.5954 39.446 18.9444C39.5885 19.2151 39.7737 19.6852 39.8521 19.9772C39.9376 20.2693 40.0373 20.8818 40.0801 21.3306C40.1157 21.7793 40.1442 22.4417 40.1086 23.4318L36.0119 23.4674V22.577C36.0119 22.0856 35.9763 21.4374 35.9335 21.1311C35.8908 20.832 35.7768 20.4117 35.6842 20.2052C35.5631 19.9487 35.4206 19.7778 35.214 19.6353C34.9575 19.4715 34.8292 19.4359 34.3091 19.4145C33.9743 19.4003 33.5682 19.4288 33.4114 19.4644C33.2547 19.5071 33.0338 19.614 32.9198 19.7066C32.8058 19.7992 32.642 20.0128 32.5493 20.1909C32.4639 20.369 32.357 20.718 32.3071 20.9744C32.2501 21.2949 32.2359 22.5842 32.2715 28.9163L32.4425 29.3437C32.5351 29.5787 32.7132 29.8708 32.8343 29.9919C32.9555 30.1129 33.1834 30.2483 33.3402 30.2981C33.4969 30.3409 33.8603 30.3765 34.1453 30.3765C34.4944 30.3765 34.7651 30.3338 35.0002 30.234C35.2139 30.1486 35.3992 30.0061 35.5203 29.828C35.6272 29.6785 35.7554 29.3935 35.8195 29.2012C35.8765 29.0089 35.9549 28.5317 36.0475 27.4562H38.0567C39.6027 27.4562 40.0801 27.4775 40.1086 27.5416C40.1299 27.5915 40.1228 27.9832 40.0801 28.4177C40.0444 28.8522 39.9589 29.4078 39.8948 29.6642C39.8307 29.9206 39.6526 30.3836 39.503 30.697C39.332 31.0674 39.0684 31.4449 38.7763 31.7583C38.534 32.029 38.135 32.378 37.8999 32.5347C37.6648 32.6985 37.2943 32.9051 37.0806 32.9977C36.8669 33.0903 36.4465 33.2327 36.1544 33.304C35.8623 33.3823 35.2709 33.4749 34.8363 33.5176C34.2878 33.5675 33.8318 33.5675 33.3046 33.5176C32.8913 33.4749 32.2644 33.3609 31.9153 33.2541C31.5662 33.1544 31.0674 32.9621 30.8109 32.8339C30.5545 32.6985 30.1697 32.435 29.956 32.2569C29.7423 32.0717 29.4288 31.7583 29.2578 31.5589C29.0939 31.3594 28.8446 30.9748 28.7092 30.697C28.5738 30.4192 28.3957 29.9278 28.3102 29.593C28.1535 29.016 28.1463 28.8308 28.1178 25.3193C28.1036 22.9047 28.1178 21.4231 28.1748 20.9744C28.2176 20.604 28.3458 20.0271 28.4598 19.6923C28.5809 19.3575 28.7804 18.9159 28.9015 18.7022C29.0298 18.4886 29.3504 18.1039 29.6069 17.8475C29.8634 17.5911 30.2481 17.2706 30.4618 17.1495C30.6756 17.0213 31.0389 16.8361 31.274 16.7435C31.5092 16.6438 31.9081 16.5155 32.1646 16.4443Z" fill="#182A64"/>
<path d="M185.237 16.5585C185.429 16.473 185.821 16.3448 186.092 16.2736C186.398 16.1881 186.847 16.1383 187.267 16.1311C187.709 16.1311 188.129 16.1739 188.478 16.2665C188.77 16.3377 189.219 16.5015 189.476 16.6226C189.732 16.7437 190.131 16.993 190.366 17.1639C190.602 17.342 190.951 17.6697 191.136 17.8905C191.321 18.1184 191.585 18.5315 191.72 18.8022C191.855 19.0729 192.034 19.5572 192.29 20.4404L192.326 33.582L188.229 33.5464L188.193 27.1359C188.158 20.9889 188.151 20.7111 188.015 20.3692C187.944 20.1698 187.759 19.892 187.609 19.7424C187.395 19.5358 187.246 19.4646 186.932 19.4005C186.697 19.3506 186.312 19.3364 186.056 19.3649C185.785 19.3934 185.472 19.4789 185.308 19.5715C185.087 19.6925 184.966 19.835 184.524 20.7253L184.453 33.5464L180.356 33.582V16.2024H183.883L184.018 16.6796C184.09 16.9503 184.168 17.1711 184.175 17.1853C184.189 17.1924 184.353 17.0927 184.538 16.9574C184.731 16.8221 185.037 16.644 185.237 16.5585Z" fill="#182A64"/>
<path d="M117.375 16.2877C117.553 16.2449 117.76 16.1951 117.838 16.1737C117.917 16.1594 118.266 16.1452 118.622 16.1381C119.049 16.1309 119.448 16.1737 119.833 16.2734C120.146 16.3518 120.674 16.5512 121.009 16.715C121.457 16.9429 121.75 17.1566 122.156 17.5555C122.476 17.8689 122.797 18.282 122.954 18.5527C123.089 18.8091 123.281 19.2721 123.381 19.5855C123.481 19.8989 123.595 20.4759 123.645 20.8676C123.687 21.2594 123.716 22.0001 123.68 23.4318L119.584 23.4674L119.555 22.1711C119.541 21.2095 119.505 20.775 119.413 20.5115C119.349 20.3191 119.227 20.0556 119.135 19.9274C119.049 19.7992 118.864 19.6354 118.729 19.557C118.593 19.4715 118.273 19.3932 118.016 19.3647C117.753 19.3362 117.375 19.3505 117.147 19.4003C116.876 19.4502 116.655 19.5499 116.506 19.6781C116.378 19.7921 116.199 20.0485 116.114 20.2479C116.021 20.4545 115.922 20.832 115.879 21.0955C115.836 21.3804 115.808 24.0444 115.808 33.5818L111.711 33.5462V16.2378L113.471 16.2235C114.832 16.2093 115.245 16.2235 115.273 16.2948C115.288 16.3375 115.352 16.5654 115.523 17.1994L115.857 16.9714C116.05 16.8432 116.392 16.658 116.627 16.5583C116.862 16.4515 117.197 16.3304 117.375 16.2877Z" fill="#182A64"/>
<path d="M65.7215 16.2949C65.978 16.2095 66.2487 16.124 66.3271 16.1097C66.4055 16.0884 66.7261 16.0741 67.0396 16.067C67.353 16.067 67.8304 16.1097 68.1082 16.1667C68.3861 16.2308 68.8492 16.3946 69.1413 16.5371C69.5332 16.7294 69.811 16.936 70.7087 17.8406L71.1861 17.3562C71.4568 17.0856 71.8772 16.7508 72.1337 16.6083C72.3901 16.473 72.839 16.2878 73.1311 16.2095C73.4517 16.1169 73.8792 16.0599 74.1998 16.0599C74.5061 16.0599 74.9764 16.1169 75.3041 16.2023C75.6176 16.2878 76.0664 16.4516 76.3016 16.5798C76.5367 16.708 76.957 17.0357 77.2349 17.3064C77.5127 17.577 77.869 18.0329 78.0328 18.3036C78.1896 18.5742 78.4104 19.0586 78.5102 19.372C78.6171 19.6854 78.7453 20.2481 78.8023 20.6185C78.8807 21.1669 78.8949 22.449 78.8664 33.5463L74.7698 33.5819V27.4065C74.7698 23.5531 74.7413 21.0387 74.6914 20.7253C74.6558 20.4546 74.556 20.0914 74.4848 19.9204C74.3993 19.7352 74.2497 19.5714 74.1143 19.5002C73.9433 19.4076 73.7153 19.372 73.2736 19.372C72.8105 19.372 72.611 19.4005 72.4685 19.4931C72.3616 19.5643 72.2263 19.6925 72.1764 19.778C72.1194 19.8706 72.0125 20.1341 71.9484 20.3692C71.8344 20.7609 71.8202 21.3592 71.7774 33.5819H67.7164L67.695 27.1928C67.6737 21.3379 67.6665 20.7609 67.5525 20.3692C67.4813 20.1341 67.3744 19.8706 67.3174 19.778C67.2676 19.6925 67.1322 19.5643 67.0253 19.4931C66.8828 19.4005 66.6833 19.372 66.2202 19.372C65.7999 19.372 65.5505 19.4076 65.4009 19.4859C65.2655 19.5572 65.1302 19.7281 65.0304 19.9489C64.9449 20.1412 64.8452 20.5045 64.8024 20.7609C64.7526 21.0601 64.7241 23.3821 64.7241 33.5819L60.6274 33.5463L60.5918 16.2023L64.1185 16.1952L64.3678 17.0571L64.8096 16.7508C65.0589 16.5798 65.465 16.3733 65.7215 16.2949Z" fill="#182A64"/>
<path d="M87.4514 10.0479C87.8646 9.9126 88.5059 9.74878 88.8763 9.69179C89.3893 9.60632 89.9094 9.59207 91.0493 9.62057C91.8687 9.63481 92.6809 9.67042 92.8447 9.68467C93.0727 9.71316 93.1511 9.74878 93.1511 9.84137C93.1511 9.9126 93.03 10.6534 92.8875 11.4867C92.7308 12.37 92.5883 12.9896 92.5455 12.9683C92.5099 12.954 92.0753 12.9042 91.5837 12.8543C90.8641 12.776 90.5649 12.776 90.0519 12.8472C89.6957 12.897 89.2468 13.011 89.0545 13.1036C88.8621 13.1962 88.6056 13.3743 88.4916 13.5096C88.3776 13.6378 88.2209 13.8871 88.1425 14.0652C88.0356 14.3074 87.9929 14.6136 87.9145 16.202H92.2961V19.4073H87.9501V33.5816H83.8891V19.4073H81.8942V16.202H83.8891L83.9176 15.0481C83.9319 14.2575 83.9817 13.7518 84.0601 13.4597C84.1242 13.2247 84.2667 12.8401 84.3736 12.605C84.4876 12.37 84.7156 11.9925 84.8937 11.7574C85.0647 11.5295 85.3995 11.1876 85.6346 11.0024C85.8698 10.8243 86.2046 10.5893 86.3827 10.4895C86.5608 10.3827 87.0382 10.1904 87.4514 10.0479Z" fill="#182A64"/>
<path d="M129.843 16.2023V9.50684H133.762V16.2023H137.039V19.4075H133.762L133.726 33.5462L129.629 33.5819V19.4075H126.352V16.2023H129.843Z" fill="#182A64"/>
<path d="M14.6025 12.3273C14.8376 12.2703 15.1297 12.2062 15.2437 12.192C15.3649 12.1777 16.6829 12.1563 20.9078 12.1421V15.1337L18.9984 15.155C17.317 15.1693 17.0676 15.1835 16.8966 15.2975C16.7898 15.3616 16.6615 15.4898 16.6188 15.5824C16.5475 15.7035 16.519 17.5768 16.5048 24.1084C16.4905 28.7097 16.4977 32.6486 16.519 32.8552C16.5547 33.133 16.6117 33.2825 16.975 33.6885L20.9078 33.7242V36.787L18.115 36.7585C15.8493 36.7371 15.2224 36.7086 14.8163 36.616C14.5384 36.5519 14.118 36.4023 13.8758 36.2884C13.6264 36.1673 13.2916 35.9393 13.1206 35.7755C12.9496 35.6046 12.7287 35.2912 12.6219 35.0775C12.515 34.8638 12.3654 34.3794 12.287 34.0091C12.1517 33.3538 12.1445 33.019 12.1445 24.4503C12.1445 16.0454 12.1517 15.5254 12.2799 14.8986C12.3511 14.5425 12.5079 14.051 12.629 13.816C12.7501 13.5809 12.9852 13.2533 13.1562 13.0894C13.3201 12.9256 13.6193 12.7119 13.8188 12.6122C14.0112 12.5196 14.3674 12.3914 14.6025 12.3273Z" fill="#182A64"/>
<path d="M215.766 15.1337V12.1421H218.509C220.639 12.1421 221.373 12.1635 221.8 12.2489C222.107 12.3059 222.584 12.4626 222.855 12.598C223.182 12.7547 223.46 12.9541 223.66 13.182C223.831 13.3743 224.037 13.6735 224.116 13.8516C224.201 14.0296 224.322 14.3359 224.379 14.5282C224.472 14.8416 224.493 16.0596 224.508 24.1796C224.529 32.3067 224.515 33.5461 224.422 34.0447C224.365 34.3581 224.237 34.7854 224.137 34.992C224.037 35.1914 223.809 35.5262 223.624 35.7257C223.425 35.9322 223.104 36.1744 222.855 36.2955C222.62 36.4094 222.185 36.559 221.893 36.6231C221.444 36.7228 220.91 36.7442 215.801 36.7513L215.766 33.7242L217.597 33.717C218.822 33.717 219.52 33.6885 219.684 33.6316C219.855 33.5746 219.976 33.4677 220.062 33.2968C220.176 33.0617 220.183 32.5275 220.147 15.6323L219.969 15.4542C219.869 15.3545 219.663 15.2405 219.506 15.2049C219.349 15.1693 218.445 15.1337 215.766 15.1337Z" fill="#182A64"/>
<path d="M93.8708 51.7448C93.771 51.5311 93.7568 51.0396 93.7354 48.454L93.714 45.4055H95.2173V48.3116C95.2173 50.947 95.2316 51.2391 95.3456 51.4955C95.4239 51.6736 95.5593 51.816 95.6875 51.873C95.8158 51.93 96.0794 51.9585 96.3715 51.9442C96.7634 51.93 96.8773 51.8944 97.027 51.7448C97.1267 51.6451 97.2407 51.4314 97.2834 51.2676C97.3262 51.0895 97.3547 49.8074 97.3547 45.4055H98.7796V52.8132H98.174C97.5827 52.8132 97.5684 52.8061 97.3191 52.4001L97.1196 52.571C97.0127 52.6636 96.7562 52.7918 96.5496 52.8488C96.3501 52.9058 96.0509 52.9628 95.8941 52.9628C95.7374 52.9699 95.4952 52.9485 95.3598 52.92C95.2244 52.8915 94.9679 52.7918 94.7898 52.7064C94.6117 52.6209 94.3624 52.4214 94.227 52.2719C94.0916 52.1152 93.9349 51.8801 93.8708 51.7448Z" fill="#182A64"/>
</svg>
