<svg width="236" height="63" viewBox="0 0 236 63" fill="none" xmlns="http://www.w3.org/2000/svg">
<path fill-rule="evenodd" clip-rule="evenodd" d="M16.6071 25.3477C16.6417 25.3269 16.6624 23.9447 16.6624 22.2723V19.2314H23.5734V38.9278H16.8697V38.1814C16.8697 37.7737 16.849 37.4212 16.8214 37.3936C16.7937 37.3659 16.5933 37.5041 16.386 37.7046C16.1717 37.8981 15.8193 38.1883 15.5912 38.3404C15.3631 38.4855 14.9139 38.7136 14.5891 38.8449C14.2643 38.9762 13.663 39.1628 13.2415 39.2526C12.7715 39.3563 12.115 39.4392 11.5137 39.4669C10.9816 39.4945 10.173 39.4945 9.71684 39.4669C9.26072 39.4392 8.59035 39.3563 8.23098 39.2803C7.8716 39.2042 7.29799 39.0453 6.95244 38.9278C6.6138 38.8034 6.17841 38.6237 5.9849 38.5339C5.7983 38.4371 5.43202 38.2229 5.17631 38.057C4.9137 37.8911 4.46448 37.5249 4.17422 37.2415C3.87705 36.9651 3.47621 36.502 3.2827 36.2256C3.08919 35.9422 2.84039 35.5414 2.73673 35.3341C2.63306 35.1267 2.46029 34.7052 2.35662 34.4011C2.25296 34.097 2.10783 33.5856 2.03872 33.2608C1.93505 32.8047 1.90741 32.3831 1.90741 31.3948C1.90741 30.448 1.93505 29.9711 2.0249 29.5634C2.09401 29.2593 2.22532 28.7617 2.32898 28.4576C2.43265 28.1535 2.63306 27.6698 2.77128 27.3864C2.91642 27.1031 3.17903 26.6746 3.35181 26.4327C3.52458 26.1977 3.86322 25.8107 4.0982 25.5827C4.34008 25.3477 4.74783 25.009 5.01736 24.8294C5.28689 24.6497 5.71537 24.394 5.9849 24.2627C6.24752 24.1244 6.68982 23.9378 6.95244 23.8411C7.21506 23.7512 7.74029 23.6061 8.11349 23.5232C8.47977 23.4402 9.17778 23.3435 9.66155 23.302C10.3043 23.2467 10.8226 23.2467 11.5483 23.302C12.1011 23.3435 12.8752 23.4541 13.276 23.5439C13.6768 23.6338 14.2505 23.8134 14.5545 23.9447C14.8586 24.0761 15.294 24.311 15.5221 24.4631C15.7501 24.622 16.075 24.8916 16.2477 25.0643C16.4205 25.2371 16.5795 25.3615 16.6071 25.3477ZM11.9284 28.0013C11.7349 28.0289 11.4585 28.098 11.3064 28.1464C11.1544 28.1948 10.8434 28.3261 10.6222 28.4505C10.3942 28.568 10.0624 28.8306 9.86892 29.0449C9.67542 29.2522 9.44735 29.5839 9.36442 29.7705C9.27458 29.964 9.15709 30.3372 9.09489 30.5998C9.0396 30.8694 8.99123 31.2425 8.99123 31.4291C8.99123 31.6227 9.0396 31.9958 9.09489 32.2585C9.15709 32.528 9.27458 32.9012 9.36442 33.0878C9.45426 33.2813 9.66159 33.5854 9.82746 33.772C9.99332 33.9586 10.2559 34.1797 10.408 34.2696C10.56 34.3594 10.8641 34.4976 11.0853 34.5737C11.2995 34.6497 11.7833 34.7464 12.1496 34.7879C12.6195 34.8363 13.0411 34.8363 13.5179 34.7879C13.898 34.7533 14.4095 34.6497 14.6582 34.5598C14.907 34.47 15.2733 34.2765 15.4807 34.1244C15.6811 33.9724 15.9644 33.6752 16.1026 33.4679C16.2616 33.2398 16.4067 32.8805 16.4897 32.5695C16.5726 32.2377 16.621 31.8162 16.621 31.3946C16.621 30.973 16.5726 30.5514 16.4897 30.2197C16.4067 29.8811 16.2616 29.5563 16.075 29.2936C15.923 29.0656 15.6742 28.7891 15.5221 28.6786C15.3701 28.568 15.1075 28.416 14.9347 28.3399C14.7619 28.2639 14.4647 28.1533 14.2781 28.105C14.0846 28.0497 13.5594 27.9944 13.1033 27.9736C12.6471 27.9598 12.115 27.9736 11.9284 28.0013Z" fill="#182A64"/>
<path d="M122.332 38.9279H129.312V19.2315H122.332V38.9279Z" fill="#182A64"/>
<path d="M179.762 22.2032L186.708 22.1687L186.721 19.3006H179.762V22.2032Z" fill="#182A64"/>
<path fill-rule="evenodd" clip-rule="evenodd" d="M33.1797 23.309C33.6911 23.2261 34.5619 23.1362 35.1148 23.1086C35.6677 23.074 36.4279 23.0602 36.808 23.0809C37.1881 23.0947 37.8101 23.1224 38.1902 23.1431C38.5703 23.1639 39.2269 23.2261 39.6415 23.2813C40.0562 23.3366 40.7127 23.461 41.0928 23.5578C41.4729 23.6545 42.0189 23.8066 42.3022 23.9033C42.5856 24.0001 43.1316 24.2351 43.5117 24.4286C43.8918 24.6152 44.2995 24.8363 44.4101 24.9193C44.5207 24.9953 44.8455 25.251 45.1288 25.479C45.4053 25.714 45.8338 26.1494 46.0826 26.4535C46.3245 26.7576 46.6769 27.3035 46.8566 27.6629C47.0432 28.0223 47.2782 28.5683 47.3749 28.8723C47.4786 29.1764 47.6237 29.7362 47.6997 30.1163C47.7758 30.4964 47.8656 31.2566 47.9002 31.8095C47.9347 32.3624 47.9485 32.8323 47.9278 32.86C47.914 32.8945 44.4585 32.9153 32.5923 32.9153L32.6338 33.171C32.6545 33.3161 32.7443 33.5856 32.8411 33.7792C32.9309 33.9658 33.1728 34.2975 33.3871 34.5186C33.6497 34.7882 33.9261 34.9817 34.2855 35.1475C34.5688 35.2858 35.0181 35.4447 35.2876 35.5138C35.647 35.6037 36.0547 35.6313 36.9117 35.6313C37.8585 35.6244 38.1487 35.6037 38.6049 35.4793C38.9089 35.3963 39.3098 35.2443 39.4964 35.1406C39.683 35.037 39.9802 34.8227 40.4708 34.3666H47.8311L47.7896 34.5186C47.7619 34.6085 47.6445 34.878 47.5201 35.1268C47.3957 35.3756 47.1538 35.7626 46.981 35.9907C46.8082 36.2187 46.4696 36.5919 46.2277 36.8269C45.9927 37.0619 45.5435 37.4143 45.2394 37.6078C44.9353 37.8083 44.4723 38.0778 44.2028 38.2022C43.9332 38.3266 43.408 38.5408 43.0279 38.6721C42.6478 38.8035 41.9636 38.99 41.5075 39.0868C41.0514 39.1836 40.229 39.3149 39.6761 39.3771C39.0472 39.4462 38.0727 39.4876 37.0499 39.4876C36.1584 39.4876 35.0872 39.4531 34.6656 39.4116C34.244 39.3702 33.5184 39.2734 33.0415 39.1974C32.5646 39.1144 31.8183 38.9417 31.3829 38.8104C30.9475 38.6791 30.3048 38.451 29.9661 38.3059C29.6275 38.1538 29.0469 37.8359 28.6876 37.6009C28.3282 37.366 27.8099 36.9513 27.5403 36.6818C27.2708 36.4192 26.9253 36.0114 26.7732 35.7833C26.6212 35.5553 26.4 35.1752 26.2756 34.9333C26.1581 34.6983 25.9854 34.2767 25.8955 34.0072C25.7988 33.7308 25.6744 33.2055 25.6191 32.8462C25.5569 32.4799 25.5085 31.7681 25.5085 31.2428C25.5085 30.5655 25.55 30.0887 25.6467 29.598C25.7228 29.2179 25.8817 28.6512 25.9923 28.3402C26.1098 28.0223 26.3171 27.5662 26.4622 27.3174C26.6005 27.0686 26.8907 26.6539 27.105 26.3844C27.3192 26.1149 27.7269 25.7071 28.0034 25.479C28.2867 25.2441 28.7774 24.8985 29.1022 24.705C29.4271 24.5115 29.9039 24.2627 30.1734 24.1521C30.443 24.0346 31.0166 23.8342 31.452 23.7029C31.8874 23.5716 32.6683 23.3919 33.1797 23.309ZM35.3913 26.8402C35.1839 26.8748 34.7969 26.9854 34.5274 27.0821C34.2578 27.172 33.8777 27.3793 33.6773 27.5452C33.47 27.7041 33.2143 27.9736 33.1037 28.1464C33 28.3192 32.8411 28.6371 32.7651 28.8583C32.689 29.0725 32.6268 29.2867 32.6268 29.3213C32.6268 29.3697 34.0574 29.3904 36.7734 29.3904H40.92C40.8578 29.0449 40.7542 28.7546 40.6574 28.5334C40.533 28.257 40.3464 28.0082 40.0907 27.7801C39.8834 27.5866 39.524 27.3447 39.296 27.2411C39.0679 27.1305 38.6947 26.9923 38.4666 26.9301C38.1764 26.8541 37.7064 26.8126 36.9117 26.7919C36.2828 26.785 35.5986 26.8057 35.3913 26.8402Z" fill="#182A64"/>
<path fill-rule="evenodd" clip-rule="evenodd" d="M107.853 23.1086C107.017 23.1362 106.008 23.1915 105.607 23.233C105.206 23.2813 104.619 23.3574 104.294 23.4127C103.969 23.4679 103.409 23.5923 103.05 23.6891C102.691 23.7858 102.082 24.0139 101.702 24.2005C101.191 24.4562 100.873 24.6705 100.493 25.0229C100.161 25.3339 99.8571 25.7002 99.6497 26.0457C99.4701 26.3498 99.2351 26.8751 99.1245 27.2137C99.0139 27.5523 98.9034 27.9394 98.8757 28.0568L98.8343 28.2849H105.78C105.911 27.9394 106.036 27.7113 106.146 27.5523C106.257 27.4003 106.485 27.1861 106.651 27.0893C106.816 26.9926 107.203 26.8474 107.508 26.7645C107.957 26.6401 108.275 26.6124 109.235 26.6055C110.161 26.5917 110.528 26.6194 110.963 26.723C111.267 26.7921 111.668 26.9304 111.855 27.034C112.041 27.1308 112.276 27.3243 112.373 27.4556C112.525 27.656 112.553 27.7597 112.532 28.0776C112.525 28.3126 112.463 28.5475 112.38 28.6788C112.304 28.8101 112.117 28.9622 111.944 29.0382C111.785 29.1142 111.378 29.211 111.032 29.2455C110.687 29.287 109.318 29.3699 107.991 29.4252C106.658 29.4874 105.075 29.5634 104.467 29.6049C103.859 29.6464 103.002 29.7362 102.566 29.8122C102.131 29.8883 101.509 30.0265 101.184 30.1232C100.859 30.22 100.32 30.4481 99.9746 30.6208C99.5599 30.8374 99.1913 31.0977 98.8688 31.4018C98.6062 31.6575 98.3021 32.0099 98.1984 32.1965C98.1017 32.3831 97.9427 32.7494 97.8529 33.0189C97.7147 33.4405 97.6939 33.634 97.7008 34.4703C97.7008 35.3825 97.7147 35.4724 97.9427 36.1289C98.0879 36.5712 98.2883 36.9859 98.4956 37.2692C98.6684 37.518 98.9932 37.8636 99.2213 38.0363C99.4424 38.216 99.8916 38.4855 100.216 38.6445C100.541 38.8035 101.163 39.0177 101.599 39.1283C102.034 39.2388 102.739 39.3632 103.154 39.4116C103.568 39.4531 104.57 39.4876 105.365 39.4876C106.16 39.4876 107.141 39.4531 107.542 39.4185C107.943 39.3771 108.53 39.2941 108.855 39.2388C109.18 39.1836 109.664 39.073 109.926 38.997C110.189 38.9209 110.611 38.7827 110.859 38.686C111.108 38.5892 111.509 38.3957 111.758 38.2575C112.007 38.1124 112.359 37.8705 112.553 37.7184L112.898 37.4282C113.029 38.3266 113.105 38.6583 113.14 38.7551L113.209 38.9279C118.669 38.9279 120.258 38.914 120.258 38.8933C120.258 38.8726 120.182 38.7136 120.092 38.527C120.003 38.3473 119.871 38.0156 119.802 37.7875C119.699 37.4143 119.678 36.8684 119.636 32.5352C119.595 27.8288 119.588 27.6837 119.443 27.193C119.36 26.9234 119.187 26.488 119.056 26.2254C118.925 25.9697 118.683 25.5965 118.517 25.3961C118.351 25.1957 118.033 24.8916 117.805 24.7257C117.577 24.553 117.169 24.3042 116.907 24.1729C116.644 24.0485 116.222 23.8757 115.974 23.7928C115.725 23.7098 115.179 23.5647 114.764 23.4749C114.349 23.385 113.506 23.2675 112.898 23.2122C112.29 23.1569 111.246 23.1017 110.583 23.0878C109.919 23.074 108.689 23.0809 107.853 23.1086ZM112.235 32.0442C112.221 32.058 111.696 32.1341 111.067 32.217C110.438 32.293 109.215 32.4243 108.337 32.5004C107.466 32.5833 106.561 32.6939 106.333 32.7491C106.105 32.8044 105.807 32.9357 105.676 33.0463C105.545 33.15 105.379 33.3435 105.317 33.4748C105.241 33.613 105.192 33.8618 105.192 34.0899C105.199 34.3041 105.248 34.5875 105.324 34.7464C105.393 34.8985 105.572 35.1334 105.725 35.2648C105.877 35.3961 106.188 35.5688 106.409 35.6449C106.761 35.7623 106.989 35.7831 108.06 35.7762C109.111 35.7762 109.408 35.7485 109.961 35.6172C110.32 35.5274 110.804 35.3684 111.032 35.2578C111.26 35.1473 111.62 34.9054 111.827 34.7257C112.09 34.4976 112.269 34.2627 112.394 33.9793C112.497 33.7582 112.615 33.3988 112.656 33.1915C112.698 32.9841 112.725 32.6317 112.725 32.4174V32.0166C112.373 32.0166 112.255 32.0304 112.235 32.0442Z" fill="#182A64"/>
<path fill-rule="evenodd" clip-rule="evenodd" d="M138.78 23.309C139.333 23.2261 140.293 23.1362 140.922 23.1086C141.235 23.0948 141.537 23.0794 141.773 23.0673C142.012 23.0551 142.183 23.0464 142.228 23.0464C142.318 23.0395 143.03 23.0671 143.818 23.1017C144.599 23.1431 145.663 23.233 146.175 23.309C146.686 23.385 147.419 23.5232 147.799 23.6269C148.179 23.7236 148.711 23.8826 148.974 23.9794C149.236 24.0761 149.678 24.2627 149.941 24.4009C150.204 24.5322 150.598 24.7534 150.805 24.8985C151.012 25.0367 151.372 25.3201 151.593 25.5274C151.814 25.7347 152.132 26.0734 152.291 26.2807C152.45 26.488 152.699 26.8612 152.83 27.11C152.968 27.3588 153.169 27.8426 153.286 28.1812C153.404 28.5199 153.549 29.1142 153.611 29.4943C153.68 29.9366 153.721 30.5863 153.721 31.2912C153.721 31.9961 153.68 32.6458 153.611 33.0881C153.549 33.4682 153.39 34.0901 153.258 34.4703C153.127 34.8504 152.871 35.4102 152.692 35.7142C152.498 36.0321 152.125 36.5021 151.807 36.82C151.503 37.131 151.005 37.5387 150.701 37.7392C150.397 37.9396 149.865 38.2229 149.526 38.375C149.188 38.5201 148.504 38.7551 148.006 38.8933C147.508 39.0246 146.638 39.2043 146.071 39.2803C145.497 39.3632 144.447 39.4462 143.735 39.4738C143.023 39.4946 141.869 39.4946 141.178 39.4669C140.487 39.4462 139.533 39.3702 139.056 39.308C138.579 39.2458 137.847 39.1214 137.432 39.0177C137.018 38.9209 136.409 38.7482 136.085 38.6376C135.76 38.5201 135.276 38.3197 135.013 38.1884C134.751 38.0502 134.357 37.829 134.149 37.6908C133.942 37.5526 133.555 37.2416 133.292 36.9928C133.03 36.744 132.684 36.357 132.518 36.1289C132.36 35.9008 132.097 35.4516 131.945 35.1268C131.793 34.802 131.606 34.3044 131.53 34.021C131.447 33.7377 131.337 33.1503 131.281 32.7218C131.226 32.3002 131.178 31.6575 131.178 31.305C131.178 30.9595 131.212 30.3859 131.247 30.0472C131.288 29.7086 131.385 29.1626 131.461 28.8378C131.537 28.513 131.696 28.0154 131.807 27.732C131.924 27.4487 132.159 26.9995 132.332 26.7299C132.505 26.4604 132.85 26.0319 133.099 25.7762C133.355 25.5136 133.749 25.168 133.977 25.0022C134.205 24.8432 134.668 24.5668 135.013 24.394C135.359 24.2281 135.884 24.007 136.188 23.9033C136.492 23.7997 136.976 23.6614 137.259 23.5854C137.543 23.5163 138.227 23.385 138.78 23.309ZM140.197 28.0082C140.425 27.8976 140.832 27.7663 141.095 27.7041C141.447 27.6281 141.862 27.6005 142.65 27.6212C143.528 27.6419 143.811 27.6696 144.205 27.8009C144.468 27.8838 144.813 28.0289 144.965 28.1119C145.117 28.2017 145.387 28.4229 145.56 28.6095C145.732 28.7891 145.94 29.0656 146.016 29.2176C146.099 29.3697 146.209 29.6668 146.271 29.8742C146.34 30.0815 146.41 30.5791 146.43 30.9799C146.458 31.5052 146.437 31.8645 146.354 32.293C146.292 32.6178 146.168 33.0463 146.071 33.2467C145.974 33.4402 145.753 33.7651 145.573 33.9586C145.387 34.1521 145.117 34.3801 144.965 34.47C144.813 34.5529 144.468 34.698 144.205 34.781C143.839 34.8985 143.479 34.9399 142.754 34.9676C142 35.0021 141.655 34.9814 141.199 34.8916C140.874 34.8224 140.425 34.6842 140.197 34.5737C139.969 34.47 139.63 34.2281 139.443 34.0484C139.257 33.8618 139.036 33.5854 138.946 33.4333C138.856 33.2813 138.725 32.9081 138.642 32.604C138.545 32.2101 138.503 31.83 138.503 31.2909C138.503 30.7519 138.545 30.3718 138.642 29.9778C138.725 29.6738 138.856 29.3006 138.946 29.1485C139.036 28.9965 139.257 28.72 139.443 28.5334C139.63 28.3538 139.969 28.1119 140.197 28.0082Z" fill="#182A64"/>
<path d="M198.076 23.1017C197.523 23.1293 196.763 23.1915 196.383 23.233C196.003 23.2813 195.319 23.3988 194.863 23.4956C194.406 23.5923 193.75 23.7651 193.411 23.8757C193.073 23.9932 192.554 24.1936 192.271 24.3249C191.988 24.4562 191.504 24.7257 191.2 24.9262C190.896 25.1266 190.446 25.4721 190.205 25.7002C189.963 25.9213 189.624 26.2945 189.451 26.5226C189.279 26.7507 188.988 27.2483 188.809 27.6284C188.629 28.0085 188.415 28.5683 188.339 28.8723C188.263 29.1764 188.173 29.6671 188.131 29.9574C188.09 30.2545 188.055 30.8489 188.055 31.2705C188.055 31.6989 188.104 32.3762 188.166 32.7771C188.221 33.1779 188.366 33.7861 188.477 34.1247C188.587 34.4633 188.822 34.9955 188.995 35.2996C189.168 35.6037 189.472 36.0529 189.679 36.3017C189.88 36.5505 190.198 36.8753 190.384 37.0342C190.564 37.1863 190.903 37.442 191.131 37.594C191.359 37.753 191.794 38.0018 192.098 38.1538C192.402 38.3059 192.886 38.5132 193.169 38.6099C193.453 38.7136 193.985 38.8726 194.344 38.9624C194.704 39.0522 195.298 39.1766 195.657 39.2319C196.017 39.2872 196.653 39.3702 197.074 39.4116C197.496 39.4531 198.629 39.4876 199.597 39.4876C200.564 39.4876 201.732 39.4531 202.188 39.4116C202.644 39.3702 203.418 39.2596 203.916 39.1697C204.414 39.0799 205.139 38.9002 205.54 38.7689C205.941 38.6376 206.466 38.4303 206.715 38.3059C206.964 38.1815 207.385 37.9396 207.648 37.7737C207.911 37.6009 208.394 37.1932 208.719 36.8615C209.085 36.4883 209.424 36.0598 209.625 35.7142C209.804 35.4102 210.025 34.9609 210.122 34.7121C210.219 34.4633 210.357 34.0141 210.44 33.71C210.516 33.406 210.592 33.012 210.613 32.8254L210.654 32.5006C203.55 32.5006 203.329 32.5075 203.329 32.6181C203.329 32.6872 203.218 32.9775 203.073 33.2608C202.921 33.5649 202.686 33.9036 202.499 34.0763C202.327 34.2422 202.002 34.4703 201.774 34.5808C201.546 34.6845 201.096 34.8296 200.772 34.8918C200.322 34.9817 199.963 34.9955 199.251 34.9748C198.491 34.9402 198.221 34.9056 197.779 34.7536C197.489 34.6569 197.081 34.4703 196.881 34.3459C196.687 34.2215 196.39 33.9588 196.224 33.7722C196.058 33.5856 195.851 33.2747 195.761 33.0881C195.664 32.8945 195.54 32.5421 195.478 32.2933C195.409 32.0168 195.36 31.5815 195.36 31.153C195.367 30.7314 195.409 30.2891 195.485 30.0127C195.547 29.7639 195.671 29.4252 195.761 29.2524C195.851 29.0797 196.044 28.8032 196.19 28.6305C196.342 28.4577 196.618 28.2158 196.805 28.0983C196.991 27.9739 197.364 27.7942 197.627 27.6975C197.924 27.5938 198.408 27.4971 198.871 27.4556C199.424 27.4003 199.825 27.4003 200.357 27.4556C200.758 27.504 201.283 27.6007 201.532 27.6767C201.781 27.7528 202.105 27.8979 202.257 27.9946C202.409 28.0845 202.624 28.2434 202.727 28.3471C202.838 28.4439 203.004 28.6788 203.101 28.8723C203.197 29.0589 203.294 29.3423 203.322 29.4943L203.37 29.7708L210.654 29.8053C210.585 29.3492 210.509 28.9829 210.433 28.6996C210.357 28.4162 210.205 27.967 210.094 27.6975C209.984 27.4279 209.742 26.9787 209.562 26.6954C209.39 26.412 209.023 25.9559 208.754 25.6864C208.491 25.4168 207.987 25.0091 207.648 24.7879C207.309 24.5668 206.701 24.2558 206.3 24.0899C205.9 23.931 205.25 23.7167 204.849 23.62C204.448 23.5163 203.723 23.3781 203.225 23.3021C202.727 23.2261 201.649 23.1362 200.82 23.1017C199.991 23.0602 199.258 23.0395 199.196 23.0464C199.159 23.0505 198.967 23.0594 198.701 23.0718C198.519 23.0803 198.301 23.0904 198.076 23.1017Z" fill="#182A64"/>
<path fill-rule="evenodd" clip-rule="evenodd" d="M219.362 23.2399C219.763 23.1915 220.786 23.1362 221.643 23.1086C222.5 23.0809 223.758 23.074 224.442 23.0878C225.126 23.1017 226.149 23.1569 226.722 23.2122C227.289 23.2675 228.132 23.3919 228.588 23.4887C229.044 23.5923 229.639 23.7444 229.901 23.8411C230.164 23.9379 230.586 24.1176 230.834 24.2489C231.083 24.3733 231.47 24.629 231.691 24.8087C231.919 24.9953 232.244 25.327 232.424 25.5551C232.597 25.7831 232.839 26.2047 232.956 26.488C233.074 26.7714 233.226 27.2413 233.295 27.5247C233.398 27.9808 233.419 28.6166 233.454 32.8116V32.8151C233.495 37.5733 233.495 37.5803 233.654 38.0294C233.744 38.2782 233.861 38.5477 233.917 38.6307C233.972 38.7205 234.013 38.8242 234.013 38.8587C234.013 38.9071 232.79 38.9279 226.964 38.9279L226.895 38.6998C226.861 38.5823 226.798 38.2644 226.757 37.9949C226.722 37.7253 226.681 37.5042 226.667 37.4973C226.66 37.4904 226.467 37.6217 226.239 37.7875C226.01 37.9603 225.589 38.2229 225.306 38.3681C225.022 38.5201 224.462 38.7482 224.062 38.8795C223.661 39.0108 223.039 39.1697 222.679 39.2319C222.32 39.2941 221.712 39.3771 221.332 39.4116C220.952 39.4531 219.943 39.4876 219.086 39.4876C218.07 39.4876 217.24 39.4462 216.701 39.3771C216.245 39.3149 215.575 39.1905 215.216 39.0937C214.856 39.0039 214.262 38.7827 213.902 38.603C213.377 38.3473 213.142 38.1815 212.714 37.7599C212.306 37.3521 212.133 37.1172 211.947 36.7163C211.815 36.433 211.649 35.9838 211.58 35.7142C211.497 35.3825 211.456 34.9748 211.463 34.4357C211.463 33.8966 211.497 33.4958 211.58 33.1917C211.649 32.9429 211.815 32.5283 211.954 32.2656C212.133 31.9339 212.361 31.6506 212.693 31.3396C213.039 31.0217 213.37 30.8005 213.868 30.5586C214.248 30.3789 214.856 30.1509 215.216 30.0541C215.575 29.9574 216.169 29.833 216.529 29.7777C216.888 29.7155 217.669 29.6395 218.256 29.6049C218.844 29.5634 220.433 29.4805 221.781 29.4252C223.129 29.363 224.497 29.287 224.822 29.2455C225.147 29.2041 225.52 29.128 225.651 29.0728C225.782 29.0175 225.962 28.9 226.052 28.8171C226.135 28.7341 226.239 28.5268 226.28 28.354C226.335 28.1329 226.335 27.9739 226.28 27.8011C226.245 27.6698 226.135 27.4694 226.052 27.3588C225.962 27.2483 225.748 27.0824 225.561 26.9995C225.382 26.9096 225.029 26.7783 224.767 26.7161C224.414 26.6263 224.02 26.5986 223.094 26.6055C222.23 26.6055 221.753 26.6401 221.415 26.723C221.159 26.7852 220.807 26.9096 220.62 26.9995C220.44 27.0893 220.191 27.269 220.067 27.3934C219.943 27.5247 219.77 27.7735 219.535 28.2849H212.589L212.631 28.126C212.644 28.0745 212.68 27.9461 212.725 27.7916C212.752 27.697 212.782 27.5926 212.81 27.4901C212.887 27.2206 213.045 26.806 213.156 26.5572C213.267 26.3084 213.495 25.9144 213.667 25.6725C213.833 25.4376 214.151 25.092 214.365 24.9123C214.587 24.7327 214.967 24.47 215.216 24.3318C215.464 24.1936 215.886 24.007 216.149 23.9102C216.411 23.8135 216.819 23.6891 217.047 23.6269C217.275 23.5716 217.724 23.4749 218.049 23.4196C218.374 23.3643 218.961 23.2813 219.362 23.2399ZM223.163 32.3898C224.172 32.293 225.319 32.1617 225.713 32.0926L226.432 31.9751L226.46 32.5349C226.474 32.9035 226.444 33.2145 226.37 33.4679C226.315 33.6752 226.19 33.9724 226.107 34.1244C226.017 34.2765 225.789 34.5391 225.603 34.7119C225.416 34.8846 225.105 35.1058 224.919 35.2095C224.732 35.3131 224.255 35.479 223.854 35.5827C223.191 35.7623 223.018 35.7762 221.815 35.7762C220.578 35.7831 220.482 35.7762 220.088 35.6172C219.86 35.5205 219.556 35.3339 219.41 35.2026C219.258 35.0574 219.106 34.8224 219.044 34.6428C218.989 34.47 218.947 34.2419 218.947 34.1244C218.947 34.0139 218.982 33.7996 219.017 33.6614C219.058 33.5163 219.162 33.3159 219.245 33.2122C219.334 33.1016 219.562 32.9496 219.749 32.8666C219.936 32.7837 220.371 32.6869 220.71 32.6455C220.966 32.6141 221.66 32.5433 222.419 32.4658L223.163 32.3898Z" fill="#182A64"/>
<path d="M62.275 23.309C61.9502 23.3435 61.4112 23.4541 61.0656 23.5509C60.7201 23.6476 60.0981 23.8964 59.6834 24.1038C59.2549 24.318 58.6813 24.6705 58.3703 24.9262C58.0662 25.168 57.6447 25.5482 57.4373 25.7693C57.2231 25.9974 56.9674 26.2876 56.8637 26.4189L56.6771 26.6608V23.6545L49.9389 23.6891V38.8933L56.8845 38.9279C56.8845 32.8738 56.8914 32.6388 57.0227 32.1205C57.1056 31.8164 57.23 31.4294 57.306 31.2566C57.3821 31.0839 57.5617 30.8074 57.7 30.6416C57.8382 30.4757 58.1423 30.1993 58.3703 30.0403C58.5984 29.8744 59.0407 29.6464 59.3517 29.5358C59.6696 29.4183 60.2156 29.2732 60.5611 29.2179C60.9136 29.1626 61.5494 29.1142 61.964 29.1142C62.3787 29.1142 63.0353 29.1626 63.4154 29.2179C63.7955 29.2801 64.3691 29.3838 64.6939 29.4598C64.9008 29.5082 65.1048 29.5594 65.2418 29.5938C65.3199 29.6134 65.3762 29.6275 65.3988 29.6326C65.5163 29.6671 65.5232 29.4874 65.5025 26.5364L65.4887 23.4127C64.8459 23.3435 64.2516 23.309 63.7609 23.2883C63.2702 23.2675 62.5999 23.2813 62.275 23.309Z" fill="#182A64"/>
<path d="M77.1337 23.5163C77.4585 23.4334 77.9976 23.3366 78.3431 23.309C78.6887 23.2744 79.3383 23.2675 79.7944 23.2883C80.2506 23.3021 80.8449 23.3643 81.1075 23.4127C81.3701 23.4679 81.7779 23.5716 82.006 23.6545C82.234 23.7306 82.5588 23.8826 82.7316 23.9794C82.9044 24.083 83.2085 24.318 83.4158 24.5115C83.6162 24.705 83.9134 25.0506 84.0654 25.2786C84.2175 25.5067 84.3557 25.7002 84.3695 25.714C84.3764 25.7209 84.6321 25.479 84.9224 25.168C85.2196 24.8571 85.6826 24.47 85.9452 24.3042C86.2078 24.1383 86.6156 23.931 86.8437 23.8342C87.0717 23.7444 87.5071 23.5992 87.8112 23.5232C88.1153 23.4403 88.7234 23.3435 89.1658 23.3021C89.6979 23.2606 90.2439 23.2606 90.8244 23.3021C91.2943 23.3435 91.9302 23.4403 92.2342 23.5163C92.5383 23.5923 93.0843 23.7997 93.4437 23.9724C93.9827 24.2351 94.2039 24.4009 94.66 24.8571C94.971 25.168 95.2958 25.5689 95.3926 25.7624C95.4893 25.9559 95.6344 26.3084 95.7105 26.5572C95.7934 26.806 95.8902 27.193 95.9316 27.421C95.9731 27.6906 96.0007 29.7915 96.0007 38.9279H89.0206V34.3528C89.0206 31.4709 88.993 29.6533 88.9446 29.4598C88.91 29.287 88.7926 29.0313 88.6889 28.8793C88.5852 28.7341 88.3779 28.5475 88.2259 28.4646C87.9909 28.3402 87.8319 28.3195 87.1547 28.3195C86.4705 28.3195 86.3115 28.3402 86.0143 28.4784C85.8208 28.5683 85.5928 28.7065 85.5029 28.7894C85.4131 28.8723 85.2679 29.0589 85.1781 29.2041C85.0883 29.3423 84.9639 29.6533 84.9086 29.8883C84.8256 30.2476 84.8049 31.0631 84.8049 38.9279L78.0667 38.8933L77.9976 29.4183L77.8179 29.0797C77.7211 28.8862 77.5345 28.665 77.4032 28.5752C77.2719 28.4853 77.0439 28.3817 76.8918 28.3402C76.7398 28.3056 76.332 28.278 75.9865 28.2918C75.4612 28.3126 75.3023 28.354 74.9567 28.5268C74.6941 28.6581 74.4661 28.8447 74.314 29.0451C74.1896 29.2179 74.0307 29.5082 73.9685 29.7017C73.8648 30.0057 73.851 30.5794 73.8164 38.9279L66.8709 38.8933V23.6891L73.6091 23.6545L73.6022 25.7624L74.2449 25.1335C74.6043 24.7879 75.1019 24.3871 75.3714 24.2281C75.634 24.0692 76.0072 23.8826 76.2007 23.8066C76.3873 23.7306 76.8089 23.5992 77.1337 23.5163Z" fill="#182A64"/>
<path fill-rule="evenodd" clip-rule="evenodd" d="M162.761 23.3159C162.36 23.3435 161.711 23.4334 161.31 23.5163C160.909 23.5992 160.301 23.7582 159.962 23.8688C159.623 23.9863 159.091 24.2005 158.787 24.3456C158.483 24.4908 158.034 24.7465 157.785 24.9123C157.536 25.0713 157.066 25.4721 156.742 25.7969C156.417 26.1218 156.03 26.571 155.885 26.799C155.733 27.0271 155.511 27.4487 155.387 27.732C155.263 28.0154 155.097 28.4991 155.014 28.8032C154.91 29.1972 154.855 29.6464 154.827 30.3582C154.8 31.1392 154.82 31.5123 154.917 32.0514C154.986 32.4315 155.131 33.0051 155.242 33.3299C155.352 33.6548 155.539 34.0901 155.656 34.2975C155.774 34.5048 156.002 34.8504 156.161 35.0577C156.32 35.265 156.624 35.5967 156.824 35.7833C157.032 35.9769 157.37 36.2395 157.578 36.3777C157.785 36.5159 158.179 36.7371 158.442 36.8753C158.704 37.0066 159.223 37.2139 159.582 37.3314C159.941 37.4489 160.549 37.6078 160.93 37.6839C161.31 37.753 162.022 37.8497 162.519 37.8981C163.079 37.9465 163.867 37.9603 164.592 37.9327C165.235 37.9119 166.078 37.8428 166.458 37.7875C166.839 37.7253 167.384 37.6148 167.668 37.5387C167.951 37.4558 168.449 37.2692 168.774 37.1172C169.098 36.972 169.506 36.7371 169.686 36.6058C169.983 36.3984 170.024 36.3846 170.066 36.4952C170.087 36.5574 170.087 36.8615 170.066 37.1655C170.038 37.4696 169.955 37.9258 169.879 38.1884C169.769 38.5547 169.672 38.7205 169.409 38.9831C169.23 39.1628 168.939 39.384 168.753 39.4669C168.573 39.5498 168.221 39.6673 167.958 39.7364C167.626 39.8194 167.177 39.847 166.355 39.8539C165.518 39.8539 165.09 39.8263 164.765 39.7433C164.516 39.6811 164.129 39.5568 163.901 39.4738C163.673 39.384 163.397 39.2319 163.279 39.1214L163.072 38.9348L155.435 38.9279C155.498 39.225 155.629 39.5084 155.774 39.7572C155.919 40.006 156.223 40.4068 156.444 40.6487C156.672 40.8906 157.053 41.2223 157.301 41.3813C157.55 41.5402 157.986 41.7959 158.269 41.9341C158.552 42.0793 159.098 42.2935 159.478 42.4179C159.858 42.5423 160.556 42.722 161.033 42.8187C161.51 42.9155 162.381 43.0537 162.968 43.1228C163.798 43.2127 164.586 43.2403 166.458 43.2403C167.861 43.2403 169.25 43.1989 169.776 43.1505C170.273 43.1021 171.089 42.9846 171.586 42.8948C172.091 42.8049 172.858 42.6045 173.28 42.4525C173.708 42.3004 174.282 42.0516 174.544 41.8996C174.807 41.7406 175.208 41.4573 175.436 41.2569C175.657 41.0564 175.975 40.6971 176.141 40.4483C176.3 40.1995 176.521 39.7848 176.618 39.5153C176.721 39.2458 176.846 38.8035 176.901 38.5339C176.977 38.1193 176.998 36.744 176.998 30.842V23.6545H170.294C170.294 24.8571 170.28 25.2302 170.259 25.2648C170.239 25.2924 170.031 25.1611 169.789 24.9745C169.555 24.7879 169.202 24.5461 169.015 24.4355C168.822 24.3249 168.407 24.1176 168.082 23.9794C167.758 23.8411 167.156 23.6476 166.735 23.5578C166.313 23.461 165.574 23.3505 165.076 23.309C164.579 23.2744 164.019 23.2468 163.832 23.2468C163.639 23.2537 163.162 23.2813 162.761 23.3159ZM165.387 27.8147C164.966 27.8423 164.53 27.9253 164.178 28.0428C163.874 28.1395 163.473 28.3261 163.286 28.4436C163.093 28.568 162.83 28.803 162.692 28.9757C162.554 29.1485 162.374 29.4733 162.284 29.7014C162.16 30.0124 162.118 30.2612 162.118 30.7035C162.111 31.0767 162.153 31.4361 162.229 31.6918C162.298 31.9267 162.478 32.2585 162.678 32.5211C162.954 32.8874 163.093 32.991 163.59 33.2467C163.915 33.4057 164.399 33.5854 164.662 33.6407C164.952 33.7029 165.518 33.7443 166.078 33.7443C166.638 33.7443 167.205 33.7029 167.495 33.6407C167.758 33.5854 168.228 33.4195 168.532 33.2675C168.926 33.074 169.167 32.9012 169.375 32.6662C169.534 32.4796 169.72 32.1894 169.803 32.0166C169.879 31.8438 169.976 31.5052 170.018 31.2564C170.08 30.9246 170.08 30.6828 170.024 30.3234C169.983 30.0608 169.872 29.6738 169.776 29.4802C169.679 29.2798 169.458 28.9688 169.271 28.7822C169.091 28.6025 168.774 28.3745 168.566 28.2708C168.359 28.1741 168 28.0358 167.771 27.9736C167.543 27.9045 167.06 27.8354 166.7 27.8078C166.341 27.787 165.747 27.787 165.387 27.8147Z" fill="#182A64"/>
<path d="M179.762 38.9279V23.6545L186.708 23.6891V38.8933L179.762 38.9279Z" fill="#182A64"/>
</svg>
