<svg width="107" height="24" viewBox="0 0 107 24" fill="none" xmlns="http://www.w3.org/2000/svg">
<path d="M12.6921 23.9392L12.6921 14.7927L0.152344 0.394531L10.6278 0.394531L17.3136 8.36936L24.1227 0.394531L33.7046 0.394531L21.4422 14.8547L21.4422 23.9392L12.6921 23.9392Z" fill="#182A64"/>
<path d="M45.8107 0.291992L47.1731 0.291992C49.1713 0.291992 50.9878 0.435305 52.6227 0.72193C54.2777 0.988082 55.6603 1.34636 56.7704 1.79677C57.9007 2.22671 58.8796 2.76925 59.7071 3.4244C60.5548 4.05907 61.2209 4.70397 61.7053 5.35911C62.1897 6.01426 62.5732 6.73082 62.8558 7.50881C63.1585 8.28679 63.3503 8.99311 63.431 9.62778C63.5319 10.2625 63.5824 10.9278 63.5824 11.6239V12.5452C63.5824 13.2413 63.5319 13.9067 63.431 14.5414C63.3503 15.176 63.1585 15.8926 62.8558 16.691C62.5732 17.469 62.1897 18.1958 61.7053 18.8714C61.2411 19.5266 60.5851 20.1817 59.7374 20.8369C58.8897 21.492 57.9108 22.0448 56.8007 22.4952C55.6906 22.9456 54.308 23.3039 52.6529 23.5701C51.0181 23.8567 49.1914 24 47.1731 24L45.8107 24C43.7923 24 41.9556 23.8567 40.3005 23.5701C38.6657 23.3039 37.2831 22.9456 36.1528 22.4952C35.0427 22.0448 34.0638 21.492 33.2161 20.8369C32.3684 20.1817 31.7023 19.5266 31.2179 18.8714C30.7537 18.1958 30.3702 17.469 30.0674 16.691C29.7849 15.8926 29.5931 15.176 29.4922 14.5414C29.4115 13.9067 29.3711 13.2413 29.3711 12.5452V11.6239C29.3711 10.9278 29.4115 10.2625 29.4922 9.62778C29.5931 8.99311 29.7849 8.28679 30.0674 7.50881C30.3702 6.73082 30.7537 6.01426 31.2179 5.35911C31.7023 4.70397 32.3684 4.05907 33.2161 3.4244C34.0638 2.76925 35.0427 2.22671 36.1528 1.79677C37.2831 1.34636 38.6657 0.988082 40.3005 0.72193C41.9556 0.435305 43.7923 0.291992 45.8107 0.291992ZM54.6814 12.2688V11.8389C54.6814 11.1633 54.5603 10.5388 54.3181 9.96559C54.0759 9.37187 53.6621 8.79862 53.0768 8.24584C52.5117 7.69306 51.6639 7.25289 50.5337 6.92532C49.4034 6.59775 48.0511 6.43396 46.4767 6.43396C44.862 6.43396 43.4896 6.59775 42.3593 6.92532C41.229 7.25289 40.3813 7.69306 39.8161 8.24584C39.251 8.79862 38.8473 9.37187 38.6051 9.96559C38.3831 10.5388 38.2721 11.1633 38.2721 11.8389V12.2074C38.2721 12.883 38.3932 13.5279 38.6354 14.1421C38.8776 14.7359 39.2813 15.3296 39.8464 15.9233C40.4116 16.4966 41.2593 16.9572 42.3896 17.3052C43.54 17.6533 44.9024 17.8273 46.4767 17.8273C48.0511 17.8273 49.4034 17.6635 50.5337 17.336C51.6841 16.9879 52.5419 16.5273 53.1071 15.954C53.6722 15.3808 54.0759 14.7973 54.3181 14.2036C54.5603 13.5894 54.6814 12.9444 54.6814 12.2688Z" fill="#182A64"/>
<path d="M80.8051 23.9236L77.9991 23.9236C68.6664 23.9236 64 21.2274 64 15.8352V15.5288L73.6205 15.5288C73.785 17.6734 75.6968 18.7458 79.3559 18.7458H79.6334C80.8051 18.7458 81.7816 18.6947 82.5627 18.5926C83.3439 18.47 83.9195 18.3066 84.2895 18.1024C84.6595 17.8777 84.9062 17.653 85.0295 17.4283C85.1734 17.1832 85.2454 16.9075 85.2454 16.6011V16.5705C85.2454 16.1415 85.1323 15.8045 84.9062 15.5594C84.7006 15.2939 84.1867 15.0692 83.3644 14.8854C82.5627 14.6811 81.391 14.5586 79.8492 14.5177L75.594 14.3952C68.0908 14.1909 64.3392 11.9033 64.3392 7.5323V7.25656C64.3392 6.45997 64.4522 5.74509 64.6784 5.11191C64.9045 4.4583 65.3156 3.82511 65.9118 3.21236C66.5079 2.5996 67.2891 2.08897 68.2552 1.68046C69.2214 1.27196 70.4856 0.945153 72.048 0.700051C73.6308 0.434522 75.4604 0.301758 77.5366 0.301758L80.2809 0.301758C89.5726 0.301758 94.2184 2.70173 94.2184 7.50166V7.74676L84.6903 7.74676C84.5053 6.13317 82.6552 5.32637 79.14 5.32637H78.8317C77.3927 5.32637 76.2826 5.41828 75.5015 5.60211C74.7203 5.76551 74.2372 5.95955 74.0522 6.18423C73.8672 6.38848 73.7747 6.66423 73.7747 7.01145V7.04209C73.7747 7.38932 73.8775 7.67527 74.0831 7.89995C74.3092 8.12463 74.8026 8.32888 75.5632 8.51271C76.3238 8.67611 77.3927 8.76803 78.77 8.78845L82.9019 8.88036C87.2394 9.00292 90.3434 9.60546 92.2141 10.688C94.0848 11.7501 95.0201 13.4352 95.0201 15.7432V16.1722C95.0201 17.0096 94.9173 17.7756 94.7117 18.47C94.5062 19.1441 94.095 19.8385 93.4783 20.5534C92.8616 21.2479 92.0394 21.8402 91.0115 22.3304C90.0043 22.8002 88.627 23.1883 86.8796 23.4946C85.1529 23.7806 83.128 23.9236 80.8051 23.9236Z" fill="#182A64"/>
<path d="M106.848 17.1992V23.9892H98.2402V17.1992H106.848Z" fill="#01A7A5"/>
</svg>
