<svg width="22" height="19" viewBox="0 0 22 19" fill="none" xmlns="http://www.w3.org/2000/svg">
<path d="M10.5781 17.7901C15.1625 14.6154 18.2248 11.4043 19.4509 8.4792C20.2972 6.4593 20.2482 4.64227 19.3089 3.22455C18.3999 1.8524 16.7315 0.999998 14.9548 0.999998C13.4958 0.999998 12.2143 1.57931 11.3462 2.63122L10.5781 3.5619L9.81008 2.63122C8.94198 1.57931 7.66043 0.999998 6.20148 0.999998C4.42495 0.999998 2.75661 1.85246 1.84751 3.22472C0.908243 4.64252 0.8591 6.45949 1.70534 8.47908C2.93147 11.4043 5.99372 14.6154 10.5781 17.7901ZM10.5781 19C4.94915 15.2063 1.99697 11.7551 0.786237 8.86664C-2.45724 1.12592 6.80711 -2.57592 10.5781 1.99359C14.3491 -2.57592 23.6135 1.12592 20.37 8.86664C19.1593 11.7551 16.2071 15.2063 10.5781 19Z" fill="#121212"/>
</svg>
