<svg width="17" height="17" viewBox="0 0 17 17" fill="none" xmlns="http://www.w3.org/2000/svg">
<path fill-rule="evenodd" clip-rule="evenodd" d="M15.6543 16.8618L10.4043 11.8618L11.094 11.1377L16.344 16.1377L15.6543 16.8618Z" fill="#121212"/>
<path fill-rule="evenodd" clip-rule="evenodd" d="M6.5 1.5C3.46243 1.5 1 3.96243 1 7C1 10.0376 3.46243 12.5 6.5 12.5C9.53757 12.5 12 10.0376 12 7C12 3.96243 9.53757 1.5 6.5 1.5ZM0 7C0 3.41015 2.91015 0.5 6.5 0.5C10.0899 0.5 13 3.41015 13 7C13 10.5899 10.0899 13.5 6.5 13.5C2.91015 13.5 0 10.5899 0 7Z" fill="#121212"/>
</svg>
