<svg width="13" height="13" viewBox="0 0 13 13" fill="none" xmlns="http://www.w3.org/2000/svg">
<path d="M7.05709 6.99531V10H5.94095V6.99531H2.99902V5.93252H5.94095V3H7.05709V5.93252H9.99902V6.99531H7.05709Z" fill="#121212"/>
<path fill-rule="evenodd" clip-rule="evenodd" d="M10.999 0.75H1.99902C1.30867 0.75 0.749023 1.30964 0.749023 2V11C0.749023 11.6904 1.30867 12.25 1.99902 12.25H10.999C11.6894 12.25 12.249 11.6904 12.249 11V2C12.249 1.30964 11.6894 0.75 10.999 0.75ZM1.99902 0C0.894454 0 -0.000976562 0.89543 -0.000976562 2V11C-0.000976562 12.1046 0.894454 13 1.99902 13H10.999C12.1036 13 12.999 12.1046 12.999 11V2C12.999 0.895431 12.1036 0 10.999 0H1.99902Z" fill="#121212"/>
</svg>
