<svg width="19" height="19" viewBox="0 0 19 19" fill="none" xmlns="http://www.w3.org/2000/svg">
<path d="M18.2794 6.57705H12.0404L10.1404 0.484046C10.0999 0.344395 10.0152 0.221663 9.89898 0.134321C9.78275 0.0469802 9.64128 -0.000244141 9.49589 -0.000244141C9.3505 -0.000244141 9.20904 0.0469802 9.09281 0.134321C8.97657 0.221663 8.89185 0.344395 8.85139 0.484046L6.96039 6.57705H0.679393C0.492644 6.5846 0.316457 6.66569 0.189259 6.80263C0.0620597 6.93957 -0.00583114 7.12125 0.000393147 7.30805C0.000306913 7.34939 0.00466529 7.39063 0.0133932 7.43105C0.0214327 7.53228 0.0509133 7.63064 0.0998778 7.7196C0.148842 7.80856 0.216171 7.88609 0.297393 7.94705L5.42439 11.838L3.45639 18C3.40933 18.1447 3.40635 18.3001 3.44784 18.4465C3.48933 18.5929 3.57341 18.7236 3.68939 18.822C3.7927 18.9232 3.92749 18.986 4.07139 19C4.22561 18.9875 4.37289 18.9306 4.49539 18.836L9.49539 14.995L14.4954 18.836C14.6167 18.9327 14.7646 18.9899 14.9194 19C15.0626 18.9887 15.1966 18.9254 15.2964 18.822C15.4135 18.7244 15.4984 18.5937 15.5399 18.4471C15.5815 18.3004 15.5778 18.1446 15.5294 18L13.5614 11.839L18.6464 7.91105L18.7694 7.79705C18.8979 7.66482 18.976 7.49184 18.9904 7.30805C18.9873 7.11857 18.912 6.93742 18.7798 6.80158C18.6477 6.66573 18.4687 6.58542 18.2794 6.57705ZM12.8844 10.802C12.674 10.972 12.5201 11.2017 12.4428 11.4609C12.3655 11.7201 12.3685 11.9966 12.4514 12.254L13.7284 16.26C13.7427 16.2947 13.7454 16.333 13.7361 16.3693C13.7269 16.4056 13.7062 16.4379 13.6771 16.4615C13.648 16.4851 13.6121 16.4987 13.5747 16.5002C13.5372 16.5017 13.5003 16.4912 13.4694 16.47L10.1864 13.949C9.98885 13.7952 9.74576 13.7115 9.49539 13.711C9.24613 13.7108 9.00407 13.7946 8.80839 13.949L5.52639 16.465C5.49546 16.4862 5.45854 16.4967 5.42112 16.4952C5.3837 16.4937 5.34777 16.4801 5.31868 16.4565C5.28958 16.4329 5.26888 16.4006 5.25964 16.3643C5.2504 16.328 5.25312 16.2897 5.26739 16.255L6.54439 12.249C6.62837 11.9898 6.63154 11.7111 6.55349 11.45C6.47545 11.1889 6.31987 10.9577 6.10739 10.787L2.67239 8.18005C2.64249 8.15707 2.62028 8.12554 2.60871 8.08965C2.59713 8.05375 2.59675 8.01519 2.60759 7.97907C2.61844 7.94295 2.64001 7.91098 2.66944 7.8874C2.69887 7.86383 2.73478 7.84975 2.77239 7.84705H6.95539C7.21125 7.84056 7.45832 7.75244 7.66054 7.59556C7.86276 7.43868 8.00952 7.22126 8.07939 6.97505L9.33439 2.94705C9.3441 2.9118 9.36511 2.88071 9.3942 2.85856C9.42328 2.83641 9.45883 2.82441 9.49539 2.82441C9.53195 2.82441 9.5675 2.83641 9.59659 2.85856C9.62567 2.88071 9.64668 2.9118 9.65639 2.94705L10.9114 6.97505C10.9813 7.22126 11.128 7.43868 11.3302 7.59556C11.5325 7.75244 11.7795 7.84056 12.0354 7.84705H16.1624C16.1999 7.84909 16.2358 7.86261 16.2654 7.88578C16.2949 7.90895 16.3166 7.94064 16.3275 7.97655C16.3384 8.01247 16.338 8.05088 16.3264 8.08656C16.3147 8.12225 16.2924 8.15349 16.2624 8.17605L12.8844 10.802Z" fill="black"/>
</svg>
