<svg width="18" height="22" viewBox="0 0 18 22" fill="none" xmlns="http://www.w3.org/2000/svg">
<path fill-rule="evenodd" clip-rule="evenodd" d="M9.00095 2C8.2053 2 7.44224 2.31607 6.87963 2.87868C6.31702 3.44129 6.00095 4.20435 6.00095 5C6.00095 5.79565 6.31702 6.55871 6.87963 7.12132C7.44224 7.68393 8.2053 8 9.00095 8C9.7966 8 10.5597 7.68393 11.1223 7.12132C11.6849 6.55871 12.001 5.79565 12.001 5C12.001 4.20435 11.6849 3.44129 11.1223 2.87868C10.5597 2.31607 9.7966 2 9.00095 2ZM5.81897 1.81802C6.66289 0.974106 7.80748 0.5 9.00095 0.5C10.1944 0.5 11.339 0.974106 12.1829 1.81802C13.0268 2.66193 13.501 3.80653 13.501 5C13.501 6.19347 13.0268 7.33807 12.1829 8.18198C11.339 9.02589 10.1944 9.5 9.00095 9.5C7.80748 9.5 6.66289 9.02589 5.81897 8.18198C4.97506 7.33807 4.50095 6.19347 4.50095 5C4.50095 3.80653 4.97506 2.66193 5.81897 1.81802ZM9.00095 12.4905C7.22983 12.4905 5.52967 13.1866 4.26711 14.4287C3.12149 15.5558 2.41946 17.0504 2.27765 18.6406C4.34296 19.5158 6.61469 20 9.00095 20H9.00197C11.313 20.0031 13.5992 19.5401 15.7242 18.6404C15.5824 17.0503 14.8804 15.5557 13.7348 14.4287C12.4722 13.1866 10.7721 12.4905 9.00095 12.4905ZM3.21515 13.3594C4.75827 11.8413 6.83625 10.9905 9.00095 10.9905C11.1657 10.9905 13.2436 11.8413 14.7868 13.3594C16.3299 14.8775 17.2145 16.9413 17.2499 19.1058C17.2547 19.4034 17.0831 19.6757 16.8126 19.7997C14.3616 20.9236 11.6963 21.5037 8.99994 21.5L9.00095 20.75V21.5C9.00061 21.5 9.00028 21.5 8.99994 21.5C6.21419 21.4999 3.56798 20.8916 1.18906 19.7996C0.918656 19.6755 0.747195 19.4032 0.752054 19.1058C0.787402 16.9413 1.67203 14.8775 3.21515 13.3594Z" fill="black"/>
</svg>
