<svg width="140" height="63" viewBox="0 0 140 63" fill="none" xmlns="http://www.w3.org/2000/svg">
<path d="M16.3805 31.802L16.3805 19.8824L0.0390625 1.11914L13.6904 1.11914L22.4032 11.5117L31.2766 1.11914L43.7636 1.11914L27.7834 19.9633L27.7834 31.802L16.3805 31.802Z" fill="white"/>
<path d="M59.5399 0.984375L61.3153 0.984375C63.9193 0.984375 66.2865 1.17114 68.4171 1.54466C70.5739 1.8915 72.3756 2.3584 73.8223 2.94537C75.2952 3.50565 76.5709 4.21268 77.6493 5.06644C78.7541 5.89353 79.6221 6.73395 80.2533 7.58772C80.8846 8.44148 81.3843 9.37529 81.7526 10.3891C82.1471 11.403 82.397 12.3235 82.5022 13.1505C82.6337 13.9776 82.6995 14.8447 82.6995 15.7519V16.9525C82.6995 17.8596 82.6337 18.7267 82.5022 19.5538C82.397 20.3809 82.1471 21.3147 81.7526 22.3552C81.3843 23.369 80.8846 24.3162 80.2533 25.1966C79.6484 26.0504 78.7935 26.9042 77.6888 27.7579C76.5841 28.6117 75.3084 29.3321 73.8617 29.919C72.4151 30.506 70.6133 30.9729 68.4565 31.3197C66.326 31.6933 63.9456 31.88 61.3153 31.88H59.5399C56.9096 31.88 54.516 31.6933 52.3592 31.3197C50.2287 30.9729 48.4269 30.506 46.954 29.919C45.5073 29.3321 44.2316 28.6117 43.1269 27.7579C42.0222 26.9042 41.1542 26.0504 40.5229 25.1966C39.918 24.3162 39.4182 23.369 39.0237 22.3552C38.6554 21.3147 38.4055 20.3809 38.274 19.5538C38.1688 18.7267 38.1162 17.8596 38.1162 16.9525V15.7519C38.1162 14.8447 38.1688 13.9776 38.274 13.1505C38.4055 12.3235 38.6554 11.403 39.0237 10.3891C39.4182 9.37529 39.918 8.44148 40.5229 7.58772C41.1542 6.73395 42.0222 5.89353 43.1269 5.06644C44.2316 4.21268 45.5073 3.50565 46.954 2.94537C48.4269 2.3584 50.2287 1.8915 52.3592 1.54466C54.516 1.17114 56.9096 0.984375 59.5399 0.984375ZM71.0999 16.5923V16.032C71.0999 15.1516 70.9421 14.3378 70.6265 13.5908C70.3109 12.817 69.7716 12.07 69.0089 11.3496C68.2724 10.6293 67.1677 10.0556 65.6947 9.62875C64.2218 9.20187 62.4595 8.98843 60.4078 8.98843C58.3036 8.98843 56.515 9.20187 55.0421 9.62875C53.5691 10.0556 52.4644 10.6293 51.7279 11.3496C50.9914 12.07 50.4654 12.817 50.1497 13.5908C49.8604 14.3378 49.7158 15.1516 49.7158 16.032V16.5122C49.7158 17.3927 49.8736 18.2331 50.1892 19.0335C50.5048 19.8072 51.0309 20.581 51.7674 21.3547C52.5038 22.1017 53.6086 22.702 55.0815 23.1556C56.5808 23.6092 58.3562 23.836 60.4078 23.836C62.4595 23.836 64.2218 23.6225 65.6947 23.1956C67.194 22.7421 68.3118 22.1418 69.0483 21.3947C69.7848 20.6477 70.3109 19.8873 70.6265 19.1136C70.9421 18.3132 71.0999 17.4727 71.0999 16.5923Z" fill="white"/>
<path d="M105.144 31.7794H101.487C89.3252 31.7794 83.2441 28.2659 83.2441 21.2388V20.8396L95.7814 20.8396C95.9957 23.6344 98.4871 25.0319 103.256 25.0319H103.617C105.144 25.0319 106.417 24.9653 107.435 24.8322C108.453 24.6725 109.203 24.4596 109.685 24.1934C110.167 23.9006 110.489 23.6078 110.649 23.315C110.837 22.9956 110.931 22.6363 110.931 22.237V22.1971C110.931 21.6381 110.783 21.1989 110.489 20.8795C110.221 20.5335 109.551 20.2407 108.479 20.0011C107.435 19.7349 105.908 19.5752 103.898 19.522L98.3531 19.3623C88.5752 19.0961 83.6862 16.1149 83.6862 10.4187V10.0594C83.6862 9.02132 83.8335 8.0897 84.1282 7.26455C84.4229 6.41279 84.9586 5.58764 85.7355 4.78911C86.5124 3.99058 87.5304 3.32514 88.7895 2.79279C90.0485 2.26043 91.6961 1.83455 93.732 1.51514C95.7948 1.16911 98.179 0.996094 100.885 0.996094L104.461 0.996094C116.57 0.996094 122.624 4.12367 122.624 10.3788V10.6982L110.207 10.6982C109.966 8.59544 107.555 7.54404 102.974 7.54404H102.572C100.697 7.54404 99.2506 7.66382 98.2326 7.90338C97.2146 8.11632 96.5851 8.36919 96.344 8.66198C96.1029 8.92816 95.9823 9.2875 95.9823 9.74V9.77993C95.9823 10.2324 96.1163 10.6051 96.3841 10.8979C96.6788 11.1907 97.3218 11.4568 98.313 11.6964C99.3041 11.9093 100.697 12.0291 102.492 12.0557L107.877 12.1755C113.529 12.3352 117.574 13.1204 120.012 14.5312C122.45 15.9153 123.669 18.1113 123.669 21.1191V21.678C123.669 22.7693 123.535 23.7675 123.267 24.6725C122.999 25.5509 122.463 26.4559 121.66 27.3875C120.856 28.2925 119.784 29.0644 118.445 29.7033C117.132 30.3155 115.337 30.8212 113.06 31.2205C110.81 31.5931 108.171 31.7794 105.144 31.7794Z" fill="white"/>
<path d="M139.083 23.0176V31.8661H127.865V23.0176H139.083Z" fill="#01A7A5"/>
<path d="M18.0096 44.1872V46.2738H20.8115V47.5972H18.0096V49.803H21.1692V51.1622H16.3404V42.828H21.1692V44.1872H18.0096Z" fill="white"/>
<path d="M27.9046 51.2456C27.3244 51.2456 26.7998 51.1463 26.3308 50.9476C25.8698 50.7488 25.5041 50.4627 25.2339 50.0891C24.9636 49.7155 24.8245 49.2744 24.8166 48.7657H26.605C26.6289 49.1074 26.7481 49.3777 26.9627 49.5764C27.1853 49.7751 27.4873 49.8745 27.8689 49.8745C28.2583 49.8745 28.5644 49.7831 28.7869 49.6003C29.0095 49.4095 29.1208 49.1631 29.1208 48.861C29.1208 48.6146 29.0453 48.4119 28.8942 48.253C28.7432 48.094 28.5524 47.9708 28.3219 47.8834C28.0994 47.788 27.7894 47.6846 27.3919 47.5734C26.8514 47.4144 26.4103 47.2594 26.0685 47.1084C25.7346 46.9494 25.4445 46.7149 25.1981 46.4049C24.9596 46.087 24.8404 45.6657 24.8404 45.1411C24.8404 44.6483 24.9636 44.219 25.21 43.8534C25.4564 43.4877 25.8022 43.2095 26.2473 43.0188C26.6925 42.8201 27.2012 42.7207 27.7735 42.7207C28.6319 42.7207 29.3274 42.9313 29.86 43.3526C30.4005 43.766 30.6986 44.3462 30.7542 45.0934H28.9181C28.9022 44.8072 28.779 44.5727 28.5485 44.3899C28.3259 44.1992 28.0278 44.1038 27.6542 44.1038C27.3283 44.1038 27.066 44.1872 26.8673 44.3542C26.6766 44.5211 26.5812 44.7635 26.5812 45.0815C26.5812 45.304 26.6527 45.4908 26.7958 45.6418C26.9468 45.7849 27.1296 45.9041 27.3442 45.9995C27.5668 46.087 27.8768 46.1903 28.2742 46.3095C28.8147 46.4685 29.2559 46.6275 29.5977 46.7864C29.9395 46.9454 30.2336 47.1839 30.48 47.5018C30.7264 47.8198 30.8496 48.2371 30.8496 48.7537C30.8496 49.1989 30.7343 49.6122 30.5038 49.9937C30.2733 50.3753 29.9355 50.6813 29.4904 50.9118C29.0453 51.1344 28.5167 51.2456 27.9046 51.2456Z" fill="white"/>
<path d="M37.3163 51.2456C36.7361 51.2456 36.2115 51.1463 35.7425 50.9476C35.2815 50.7488 34.9158 50.4627 34.6456 50.0891C34.3753 49.7155 34.2362 49.2744 34.2283 48.7657L36.0167 48.7657C36.0406 49.1074 36.1598 49.3777 36.3744 49.5764C36.597 49.7751 36.899 49.8745 37.2806 49.8745C37.67 49.8745 37.9761 49.7831 38.1986 49.6003C38.4212 49.4095 38.5325 49.1631 38.5325 48.861C38.5325 48.6146 38.457 48.4119 38.3059 48.253C38.1549 48.094 37.9641 47.9708 37.7336 47.8834C37.5111 47.788 37.2011 47.6846 36.8036 47.5734C36.2631 47.4144 35.822 47.2594 35.4802 47.1084C35.1463 46.9494 34.8562 46.7149 34.6098 46.4049C34.3713 46.087 34.2521 45.6657 34.2521 45.1411C34.2521 44.6483 34.3753 44.219 34.6217 43.8534C34.8681 43.4877 35.2139 43.2095 35.659 43.0188C36.1042 42.8201 36.6129 42.7207 37.1852 42.7207C38.0436 42.7207 38.7391 42.9313 39.2717 43.3526C39.8122 43.766 40.1103 44.3462 40.1659 45.0934H38.3298C38.3139 44.8072 38.1907 44.5727 37.9602 44.3899C37.7376 44.1992 37.4395 44.1038 37.0659 44.1038C36.74 44.1038 36.4777 44.1872 36.279 44.3542C36.0883 44.5211 35.9929 44.7635 35.9929 45.0815C35.9929 45.304 36.0644 45.4908 36.2075 45.6418C36.3585 45.7849 36.5413 45.9041 36.7559 45.9995C36.9785 46.087 37.2885 46.1903 37.6859 46.3095C38.2264 46.4685 38.6676 46.6275 39.0094 46.7864C39.3512 46.9454 39.6453 47.1839 39.8917 47.5018C40.1381 47.8198 40.2613 48.2371 40.2613 48.7537C40.2613 49.1989 40.146 49.6122 39.9155 49.9937C39.685 50.3753 39.3472 50.6813 38.9021 50.9118C38.457 51.1344 37.9284 51.2456 37.3163 51.2456Z" fill="white"/>
<path d="M45.5238 44.1872V46.2738H48.3257V47.5972H45.5238V49.803H48.6834V51.1622H43.8546V42.828H48.6834V44.1872H45.5238Z" fill="white"/>
<path d="M59.4645 51.1622H57.7952L54.0157 45.4511V51.1622H52.3464V42.828H54.0157L57.7952 48.551V42.828H59.4645V51.1622Z" fill="white"/>
<path d="M68.9236 42.8399V44.1872H66.7059V51.1622H65.0367V44.1872H62.819V42.8399H68.9236Z" fill="white"/>
<path d="M73.9568 42.8399V51.1622H72.2876V42.8399H73.9568Z" fill="white"/>
<path d="M82.8552 49.5764H79.5406L78.9922 51.1622H77.2395L80.2321 42.828H82.1756L85.1683 51.1622H83.4037L82.8552 49.5764ZM82.4021 48.241L81.1979 44.7595L79.9937 48.241H82.4021Z" fill="white"/>
<path d="M90.1022 49.8387H92.8445V51.1622H88.433V42.8399H90.1022V49.8387Z" fill="white"/>
<path d="M16.3141 58.2674C16.3141 57.4487 16.497 56.7174 16.8626 56.0735C17.2362 55.4218 17.7409 54.917 18.3768 54.5593C19.0207 54.1937 19.74 54.0109 20.5349 54.0109C21.4649 54.0109 22.2796 54.2493 22.9791 54.7263C23.6786 55.2032 24.1674 55.8629 24.4456 56.7055H22.526C22.3352 56.308 22.065 56.01 21.7152 55.8112C21.3735 55.6125 20.976 55.5132 20.5229 55.5132C20.0381 55.5132 19.6049 55.6284 19.2233 55.8589C18.8498 56.0815 18.5557 56.3994 18.341 56.8128C18.1344 57.2261 18.031 57.711 18.031 58.2674C18.031 58.8158 18.1344 59.3007 18.341 59.722C18.5557 60.1353 18.8498 60.4572 19.2233 60.6877C19.6049 60.9103 20.0381 61.0216 20.5229 61.0216C20.976 61.0216 21.3735 60.9222 21.7152 60.7235C22.065 60.5168 22.3352 60.2148 22.526 59.8174H24.4456C24.1674 60.6679 23.6786 61.3316 22.9791 61.8085C22.2876 62.2775 21.4728 62.512 20.5349 62.512C19.74 62.512 19.0207 62.3331 18.3768 61.9754C17.7409 61.6098 17.2362 61.105 16.8626 60.4612C16.497 59.8174 16.3141 59.0861 16.3141 58.2674Z" fill="white"/>
<path d="M31.0647 62.5239C30.2857 62.5239 29.5703 62.3411 28.9185 61.9754C28.2668 61.6098 27.7501 61.105 27.3686 60.4612C26.987 59.8094 26.5973 59.0742 26.5973 58.2555C26.5973 57.4447 26.987 56.7174 27.3686 56.0735C27.7501 55.4218 28.2668 54.913 28.9185 54.5474C29.5703 54.1818 30.2857 53.999 31.0647 53.999C31.8516 53.999 32.567 54.1818 33.2108 54.5474C33.8626 54.913 34.3753 55.4218 34.7489 56.0735C35.1304 56.7174 35.3212 57.4447 35.3212 58.2555C35.3212 59.0742 35.1304 59.8094 34.7489 60.4612C34.3753 61.105 33.8626 61.6098 33.2108 61.9754C32.559 62.3411 31.8437 62.5239 31.0647 62.5239ZM31.0647 61.0335C31.5654 61.0335 32.0066 60.9222 32.3881 60.6997C32.7697 60.4692 33.0677 60.1433 33.2823 59.722C33.497 59.3007 33.6043 58.8119 33.6043 58.2555C33.6043 57.699 33.497 57.2142 33.2823 56.8008C33.0677 56.3796 32.7697 56.0577 32.3881 55.8351C32.0066 55.6125 31.5654 55.5012 31.0647 55.5012C30.5639 55.5012 30.1188 55.6125 29.7293 55.8351C29.3478 56.0577 29.0497 56.3796 28.8351 56.8008C28.6205 57.2142 28.5132 57.699 28.5132 58.2555C28.5132 58.8119 28.6205 59.3007 28.8351 59.722C29.0497 60.1433 29.3478 60.4692 29.7293 60.6997C30.1188 60.9222 30.5639 61.0335 31.0647 61.0335Z" fill="white"/>
<path d="M41.3836 62.5239C40.8034 62.5239 40.2788 62.4245 39.8098 62.2258C39.3488 62.0271 38.9831 61.7409 38.7129 61.3674C38.4426 60.9938 38.3035 60.5526 38.2956 60.0439H40.084C40.1079 60.3857 40.2271 60.6559 40.4417 60.8547C40.6643 61.0534 40.9663 61.1527 41.3479 61.1527C41.7374 61.1527 42.0434 61.0613 42.2659 60.8785C42.4885 60.6877 42.5998 60.4413 42.5998 60.1393C42.5998 59.8929 42.5243 59.6902 42.3732 59.5312C42.2222 59.3722 42.0315 59.249 41.8009 59.1616C41.5784 59.0662 41.2684 58.9629 40.871 58.8516C40.3304 58.6926 39.8893 58.5376 39.5475 58.3866C39.2137 58.2276 38.9235 57.9931 38.6771 57.6832C38.4387 57.3652 38.3194 56.9439 38.3194 56.4193C38.3194 55.9265 38.4426 55.4973 38.689 55.1316C38.9354 54.766 39.2812 54.4878 39.7263 54.297C40.1715 54.0983 40.6802 53.999 41.2525 53.999C42.1109 53.999 42.8064 54.2096 43.339 54.6309C43.8795 55.0442 44.1776 55.6244 44.2332 56.3716H42.3971C42.3812 56.0855 42.258 55.851 42.0275 55.6682C41.8049 55.4774 41.5068 55.382 41.1333 55.382C40.8074 55.382 40.5451 55.4655 40.3463 55.6324C40.1556 55.7993 40.0602 56.0418 40.0602 56.3597C40.0602 56.5823 40.1317 56.7691 40.2748 56.9201C40.4258 57.0632 40.6086 57.1824 40.8233 57.2778C41.0458 57.3652 41.3558 57.4685 41.7533 57.5878C42.2938 57.7467 42.7349 57.9057 43.0767 58.0647C43.4185 58.2237 43.7126 58.4621 43.959 58.7801C44.2054 59.098 44.3286 59.5153 44.3286 60.032C44.3286 60.4771 44.2134 60.8904 43.9828 61.272C43.7523 61.6535 43.4145 61.9595 42.9694 62.19C42.5243 62.4126 41.9957 62.5239 41.3836 62.5239Z" fill="white"/>
<path d="M56.9953 54.1182V62.4404H55.3261V57.0274L53.0965 62.4404H51.8326L49.5911 57.0274V62.4404H47.9219V54.1182H49.8177L52.4646 60.3062L55.1115 54.1182H56.9953Z" fill="white"/>
<path d="M62.4609 55.4655V57.552H65.2628V58.8754H62.4609V61.0812H65.6205V62.4404H60.7917V54.1063H65.6205V55.4655H62.4609Z" fill="white"/>
<path d="M74.947 54.1182V55.4655H72.7293V62.4404H71.0601V55.4655H68.8424V54.1182L74.947 54.1182Z" fill="white"/>
<path d="M79.9803 54.1182V62.4404H78.3111V54.1182H79.9803Z" fill="white"/>
<path d="M82.4164 58.2674C82.4164 57.4487 82.5992 56.7174 82.9648 56.0735C83.3384 55.4218 83.8432 54.917 84.4791 54.5593C85.1229 54.1937 85.8422 54.0109 86.6371 54.0109C87.5671 54.0109 88.3818 54.2493 89.0813 54.7263C89.7808 55.2032 90.2696 55.8629 90.5478 56.7055H88.6283C88.4375 56.308 88.1672 56.01 87.8175 55.8112C87.4757 55.6125 87.0783 55.5132 86.6252 55.5132C86.1403 55.5132 85.7071 55.6284 85.3256 55.8589C84.952 56.0815 84.6579 56.3994 84.4433 56.8128C84.2366 57.2261 84.1333 57.711 84.1333 58.2674C84.1333 58.8158 84.2366 59.3007 84.4433 59.722C84.6579 60.1353 84.952 60.4572 85.3256 60.6877C85.7071 60.9103 86.1403 61.0216 86.6252 61.0216C87.0783 61.0216 87.4757 60.9222 87.8175 60.7235C88.1672 60.5168 88.4375 60.2148 88.6283 59.8174H90.5478C90.2696 60.6679 89.7808 61.3316 89.0813 61.8085C88.3898 62.2775 87.5751 62.512 86.6371 62.512C85.8422 62.512 85.1229 62.3331 84.4791 61.9754C83.8432 61.6098 83.3384 61.105 82.9648 60.4612C82.5992 59.8174 82.4164 59.0861 82.4164 58.2674Z" fill="white"/>
<path d="M96.1585 62.5239C95.5783 62.5239 95.0537 62.4245 94.5847 62.2258C94.1237 62.0271 93.758 61.7409 93.4878 61.3674C93.2175 60.9938 93.0784 60.5526 93.0705 60.0439H94.8589C94.8828 60.3857 95.002 60.6559 95.2166 60.8547C95.4392 61.0534 95.7412 61.1527 96.1228 61.1527C96.5123 61.1527 96.8183 61.0613 97.0408 60.8785C97.2634 60.6877 97.3747 60.4413 97.3747 60.1393C97.3747 59.8929 97.2992 59.6902 97.1481 59.5312C96.9971 59.3722 96.8064 59.249 96.5758 59.1616C96.3533 59.0662 96.0433 58.9629 95.6459 58.8516C95.1053 58.6926 94.6642 58.5376 94.3224 58.3866C93.9886 58.2276 93.6984 57.9931 93.452 57.6832C93.2136 57.3652 93.0943 56.9439 93.0943 56.4193C93.0943 55.9265 93.2175 55.4973 93.4639 55.1316C93.7104 54.766 94.0561 54.4878 94.5012 54.297C94.9464 54.0983 95.4551 53.999 96.0274 53.999C96.8858 53.999 97.5813 54.2096 98.1139 54.6309C98.6544 55.0442 98.9525 55.6244 99.0081 56.3716H97.172C97.1561 56.0855 97.0329 55.851 96.8024 55.6682C96.5798 55.4774 96.2817 55.382 95.9082 55.382C95.5823 55.382 95.32 55.4655 95.1212 55.6324C94.9305 55.7993 94.8351 56.0418 94.8351 56.3597C94.8351 56.5823 94.9066 56.7691 95.0497 56.9201C95.2007 57.0632 95.3835 57.1824 95.5982 57.2778C95.8207 57.3652 96.1307 57.4685 96.5282 57.5878C97.0687 57.7467 97.5098 57.9057 97.8516 58.0647C98.1934 58.2237 98.4875 58.4621 98.7339 58.7801C98.9803 59.098 99.1035 59.5153 99.1035 60.032C99.1035 60.4771 98.9883 60.8904 98.7577 61.272C98.5272 61.6535 98.1894 61.9595 97.7443 62.19C97.2992 62.4126 96.7706 62.5239 96.1585 62.5239Z" fill="white"/>
</svg>
