<svg width="16" height="16" viewBox="0 0 16 16" fill="none" xmlns="http://www.w3.org/2000/svg">
<path d="M8.00042 12.48C12.1719 12.48 15.4731 8.37346 15.6113 8.19874L15.7684 8.00002L15.6113 7.8013C15.4731 7.62658 12.1719 3.52002 8.00042 3.52002C3.8289 3.52002 0.527782 7.62658 0.389542 7.8013L0.232422 8.00002L0.389542 8.19874C0.527782 8.37346 3.8289 12.48 8.00042 12.48ZM8.00042 4.16002C11.3585 4.16002 14.2308 7.18722 14.9412 8.00002C14.2318 8.81346 11.3633 11.84 8.00042 11.84C4.64234 11.84 1.77002 8.81282 1.05962 8.00002C1.76906 7.18658 4.63754 4.16002 8.00042 4.16002Z" fill="black"/>
<path d="M8.00012 10.8801C9.58828 10.8801 10.8801 9.58796 10.8801 8.00012C10.8801 6.41228 9.58828 5.12012 8.00012 5.12012C6.41196 5.12012 5.12012 6.41228 5.12012 8.00012C5.12012 9.58796 6.41196 10.8801 8.00012 10.8801ZM8.00012 5.76012C9.235 5.76012 10.2401 6.76492 10.2401 8.00012C10.2401 9.23532 9.235 10.2401 8.00012 10.2401C6.76524 10.2401 5.76012 9.23532 5.76012 8.00012C5.76012 6.76492 6.76524 5.76012 8.00012 5.76012Z" fill="black"/>
<path fill-rule="evenodd" clip-rule="evenodd" d="M2.99973 12.9999L12.9997 1.99989L13.5547 2.50439L3.55469 13.5044L2.99973 12.9999Z" fill="black"/>
</svg>
