<svg width="40" height="40" viewBox="0 0 40 40" fill="none" xmlns="http://www.w3.org/2000/svg">
<g clip-path="url(#clip0_2298_898)">
<path d="M20 40.0893C31.095 40.0893 40.0893 31.0951 40.0893 20.0001C40.0893 8.90505 31.095 -0.0892334 20 -0.0892334C8.90499 -0.0892334 -0.0892944 8.90505 -0.0892944 20.0001C-0.0892944 31.0951 8.90499 40.0893 20 40.0893Z" fill="url(#paint0_linear_2298_898)"/>
<path d="M24.2679 8.83936H15.7411C11.9375 8.83936 8.84821 11.9286 8.84821 15.7322V24.259C8.84821 28.0626 11.9375 31.1519 15.7411 31.1519H24.2679C28.0714 31.1519 31.1607 28.0626 31.1607 24.259V15.7322C31.1607 11.9286 28.0714 8.83936 24.2679 8.83936ZM28.6696 24.2679C28.6696 26.6965 26.6964 28.6786 24.2589 28.6786H15.7321C13.3036 28.6786 11.3214 26.7054 11.3214 24.2679V15.7411C11.3214 13.3126 13.2946 11.3304 15.7321 11.3304H24.2589C26.6875 11.3304 28.6696 13.3036 28.6696 15.7411V24.2679Z" fill="white"/>
<path d="M20 14.2947C16.8571 14.2947 14.2946 16.8572 14.2946 20C14.2946 23.1429 16.8571 25.7054 20 25.7054C23.1428 25.7054 25.7053 23.1429 25.7053 20C25.7053 16.8572 23.1428 14.2947 20 14.2947ZM20 23.4643C18.0893 23.4643 16.5357 21.9107 16.5357 20C16.5357 18.0893 18.0893 16.5357 20 16.5357C21.9107 16.5357 23.4643 18.0893 23.4643 20C23.4643 21.9107 21.9107 23.4643 20 23.4643Z" fill="white"/>
<path d="M26.1398 14.9202C26.6655 14.835 27.0225 14.3398 26.9373 13.8142C26.8521 13.2886 26.3569 12.9315 25.8313 13.0167C25.3056 13.1019 24.9486 13.5971 25.0338 14.1228C25.119 14.6484 25.6142 15.0054 26.1398 14.9202Z" fill="white"/>
</g>
<defs>
<linearGradient id="paint0_linear_2298_898" x1="4.70347" y1="35.2966" x2="33.2526" y2="6.74746" gradientUnits="userSpaceOnUse">
<stop stop-color="#FEE411"/>
<stop offset="0.0518459" stop-color="#FEDB16"/>
<stop offset="0.1381" stop-color="#FEC125"/>
<stop offset="0.2481" stop-color="#FE983D"/>
<stop offset="0.3762" stop-color="#FE5F5E"/>
<stop offset="0.5" stop-color="#FE2181"/>
<stop offset="1" stop-color="#9000DC"/>
</linearGradient>
<clipPath id="clip0_2298_898">
<rect width="40" height="40" fill="white"/>
</clipPath>
</defs>
</svg>
