<svg width="18" height="17" viewBox="0 0 18 17" fill="none" xmlns="http://www.w3.org/2000/svg">
<path fill-rule="evenodd" clip-rule="evenodd" d="M7.19639 3.46851L4.2772 6.40797H0.526855V16.7468C13.8659 16.7468 13.9065 16.7468 14.393 16.2805C14.6768 16.0372 15.4674 14.4763 16.1972 12.7937C17.4946 9.77314 17.4946 9.75287 17.373 8.27301C17.2919 7.28643 17.15 6.73233 16.9473 6.61069C16.7851 6.50933 15.2039 6.40797 13.4402 6.40797C11.0278 6.40797 10.2575 6.34715 10.2575 6.14443C10.2575 6.0228 10.4399 5.09028 10.6629 4.07668C10.8859 3.06307 11.0684 2.06973 11.0684 1.84674C11.0684 1.62375 10.8656 1.23858 10.6021 0.995312L10.1358 0.529053L7.19639 3.46851ZM7.43938 4.94852L5.55407 6.97574L5.59461 15.5306L13.7237 15.4292C15.9131 10.2801 16.3388 8.98268 16.3388 8.43533V7.62445H8.63544C8.79761 6.91492 9.02061 5.94186 9.2436 4.98907C9.44632 4.03628 9.54768 3.18485 9.46659 3.10376C9.3855 3.02267 8.47326 3.85383 7.43938 4.94852ZM1.74291 11.5775V15.5306H4.37829V7.62445H1.74291V11.5775Z" fill="#182A64"/>
</svg>
