<svg width="40" height="40" viewBox="0 0 40 40" fill="none" xmlns="http://www.w3.org/2000/svg">
<path d="M19.9533 0C30.9738 0 39.9067 8.93411 39.9067 19.9534C39.9067 30.974 30.9738 39.9067 19.9533 39.9067C8.93274 39.9067 0 30.9738 0 19.9534C0 8.93411 8.93288 0 19.9533 0Z" fill="#0077B7"/>
<path d="M16.5814 27H13.2643V16.3176H16.5814V27ZM14.9211 14.8604C13.8604 14.8604 13 13.9819 13 12.9211C13 11.8601 13.8601 11 14.9211 11C15.982 11 16.8421 11.8601 16.8421 12.9211C16.8421 13.9819 15.9814 14.8604 14.9211 14.8604ZM28.9964 27H25.6864V21.7999C25.6864 20.5606 25.6614 18.9712 23.9618 18.9712C22.2371 18.9712 21.9729 20.3177 21.9729 21.7106V27H18.6593V16.3176H21.8407V17.7748H21.8871C22.33 16.9355 23.4118 16.0498 25.0257 16.0498C28.3829 16.0498 29 18.2605 29 21.132V27H28.9964Z" fill="white"/>
</svg>
