<svg width="108" height="104" viewBox="0 0 108 104" fill="none" xmlns="http://www.w3.org/2000/svg">
<path fill-rule="evenodd" clip-rule="evenodd" d="M45 71.5001L72 52.0001L45 32.5001V71.5001ZM54 8.66675C29.16 8.66675 9 28.0801 9 52.0001C9 75.9201 29.16 95.3334 54 95.3334C78.84 95.3334 99 75.9201 99 52.0001C99 28.0801 78.84 8.66675 54 8.66675ZM54 86.6667C34.155 86.6667 18 71.1101 18 52.0001C18 32.8901 34.155 17.3334 54 17.3334C73.845 17.3334 90 32.8901 90 52.0001C90 71.1101 73.845 86.6667 54 86.6667Z" fill="white"/>
</svg>
