<svg width="19" height="19" viewBox="0 0 19 19" fill="none" xmlns="http://www.w3.org/2000/svg">
<path d="M18.2794 6.57705H12.0404L10.1404 0.484046C10.0999 0.344395 10.0152 0.221663 9.89898 0.134321C9.78275 0.0469802 9.64128 -0.000244141 9.49589 -0.000244141C9.3505 -0.000244141 9.20904 0.0469802 9.09281 0.134321C8.97657 0.221663 8.89185 0.344395 8.85139 0.484046L6.96039 6.57705H0.679393C0.492644 6.5846 0.316457 6.66569 0.189259 6.80263C0.0620597 6.93957 -0.00583114 7.12125 0.000393147 7.30805C0.000306913 7.34939 0.00466529 7.39063 0.0133932 7.43105C0.0214327 7.53228 0.0509133 7.63064 0.0998778 7.7196C0.148842 7.80856 0.216171 7.88609 0.297393 7.94705L5.42439 11.838L3.45639 18C3.40933 18.1447 3.40635 18.3001 3.44784 18.4465C3.48933 18.5929 3.57341 18.7236 3.68939 18.822C3.7927 18.9232 3.92749 18.986 4.07139 19C4.22561 18.9875 4.37289 18.9306 4.49539 18.836L9.49539 14.995L14.4954 18.836C14.6167 18.9327 14.7646 18.9899 14.9194 19C15.0626 18.9887 15.1966 18.9254 15.2964 18.822C15.4135 18.7244 15.4984 18.5937 15.5399 18.4471C15.5815 18.3004 15.5778 18.1446 15.5294 18L13.5614 11.839L18.6464 7.91105L18.7694 7.79705C18.8979 7.66482 18.976 7.49184 18.9904 7.30805C18.9873 7.11857 18.912 6.93742 18.7798 6.80158C18.6477 6.66573 18.4687 6.58542 18.2794 6.57705Z" fill="black"/>
</svg>
